<?xml version="1.0" encoding="utf-8"?>
<!-- Generator: Adobe Illustrator 19.0.0, SVG Export Plug-In . SVG Version: 6.00 Build 0)  -->
<svg version="1.1" id="Capa_1" xmlns="http://www.w3.org/2000/svg" xmlns:xlink="http://www.w3.org/1999/xlink" x="0px" y="0px"
	 viewBox="-17 17 32 32" style="enable-background:new -17 17 32 32;" xml:space="preserve">
<style type="text/css">
	.st0{fill:url(#SVGID_1_);}
	.st1{fill:#3F5889;stroke:url(#SVGID_2_);stroke-width:0.5;stroke-miterlimit:10;}
</style>
<linearGradient id="SVGID_1_" gradientUnits="userSpaceOnUse" x1="-5.1068" y1="27.8772" x2="-12.0584" y2="20.8088" gradientTransform="matrix(1.0578 -0.174 0.1623 0.9867 -4.4013 -0.2672)">
	<stop  offset="0" style="stop-color:#D300FF"/>
	<stop  offset="0.8565" style="stop-color:#42FFFF"/>
</linearGradient>
<path class="st0" d="M-10.3,25.6c-0.3-2.1,0.9-4.1,2.8-4.9c-0.7-0.1-1.4-0.1-2.1,0.1c-2.7,0.6-4.5,3.1-4.2,5.7
	c0.4,2.8,3.2,4.7,6.1,4.2c1.1-0.2,2-0.6,2.8-1.3C-7.4,29.7-9.9,28.1-10.3,25.6z"/>
<linearGradient id="SVGID_2_" gradientUnits="userSpaceOnUse" x1="9.4669" y1="46.9926" x2="-6.7837" y2="30.4688" gradientTransform="matrix(0.9997 -2.626982e-002 2.626982e-002 0.9997 -0.9263 1.037041e-002)">
	<stop  offset="0" style="stop-color:#D300FF"/>
	<stop  offset="0.8565" style="stop-color:#42FFFF"/>
</linearGradient>
<path class="st1" d="M14.4,40c0.1-2.4-1.8-4.5-4.3-4.5c-0.1,0-0.2,0-0.4,0c0.5-0.9,0.7-1.8,0.8-2.9c0.1-3.6-2.7-6.6-6.3-6.7
	C1.1,25.8-1.6,28-2.3,31c-4.5-1.6-7.7,2.4-7.3,5.5c-2.3-0.2-3.8,1.6-3.9,3.6c-0.1,1.8,1,3.4,2.5,4.1l0,0l0,0
	c0.5,0.2,1.1,0.4,1.7,0.4l20.4-0.5C12.9,43.6,14.3,42,14.4,40z"/>
</svg>
