<?xml version="1.0" encoding="utf-8"?>
<!-- Generator: Adobe Illustrator 19.0.0, SVG Export Plug-In . SVG Version: 6.00 Build 0)  -->
<svg version="1.1" id="Capa_1" xmlns="http://www.w3.org/2000/svg" xmlns:xlink="http://www.w3.org/1999/xlink" x="0px" y="0px"
	 viewBox="-17 17 32 32" style="enable-background:new -17 17 32 32;" xml:space="preserve">
<style type="text/css">
	.st0{fill:url(#SVGID_1_);}
	.st1{fill:#3F5889;stroke:url(#SVGID_2_);stroke-width:0.5;stroke-miterlimit:10;}
</style>
<linearGradient id="SVGID_1_" gradientUnits="userSpaceOnUse" x1="-3.9838" y1="27.9963" x2="-10.9353" y2="20.9279" gradientTransform="matrix(1.0578 -0.174 0.1623 0.9867 -4.4013 -0.2672)">
	<stop  offset="0" style="stop-color:#D300FF"/>
	<stop  offset="0.8565" style="stop-color:#42FFFF"/>
</linearGradient>
<path class="st0" d="M-7.1,26.9c-0.3-2.1,0.9-4.1,2.8-4.9c-0.7-0.1-1.4-0.1-2.1,0.1c-2.7,0.6-4.5,3.1-4.2,5.7
	c0.4,2.8,3.2,4.7,6.1,4.2c1.1-0.2,2-0.6,2.8-1.3C-4.2,31-6.7,29.4-7.1,26.9z"/>
<linearGradient id="SVGID_2_" gradientUnits="userSpaceOnUse" x1="9.0399" y1="45.9053" x2="-8.8642" y2="27.7002" gradientTransform="matrix(0.9997 -2.626982e-002 2.626982e-002 0.9997 -0.9263 1.037041e-002)">
	<stop  offset="0" style="stop-color:#D300FF"/>
	<stop  offset="0.8565" style="stop-color:#42FFFF"/>
</linearGradient>
<path class="st1" d="M14.4,38.2c0.1-2.7-2-4.9-4.7-5c-0.1,0-0.3,0-0.4,0c0.5-0.9,0.8-2,0.9-3.2c0.1-4-3-7.3-6.9-7.4
	C-0.3,22.6-3.3,25-4,28.3c-5-1.8-8.5,2.7-8.1,6c-2.6-0.3-4.2,1.7-4.3,4c-0.1,2,1.1,3.8,2.8,4.6l0,0l0,0c0.6,0.3,1.2,0.4,1.9,0.5
	l22.5-0.6C12.8,42.2,14.3,40.4,14.4,38.2z"/>
</svg>
