<?xml version="1.0" encoding="utf-8"?>
<!-- Generator: Adobe Illustrator 19.0.0, SVG Export Plug-In . SVG Version: 6.00 Build 0)  -->
<svg version="1.1" id="Capa_1" xmlns="http://www.w3.org/2000/svg" xmlns:xlink="http://www.w3.org/1999/xlink" x="0px" y="0px"
	 viewBox="-15 17 32 32" style="enable-background:new -15 17 32 32;" xml:space="preserve">
<style type="text/css">
	.st0{fill:#193372;stroke:url(#SVGID_1_);stroke-width:0.5;stroke-miterlimit:10;}
	.st1{fill:#0B1B3A;stroke:url(#SVGID_2_);stroke-width:0.5;stroke-miterlimit:10;}
	.st2{fill:#0B1B3A;stroke:url(#SVGID_3_);stroke-width:0.5;stroke-miterlimit:10;}
	.st3{fill:none;stroke:url(#SVGID_4_);stroke-width:0.25;stroke-miterlimit:10;}
	.st4{fill:#0F234C;}
	.st5{fill:none;stroke:url(#SVGID_5_);stroke-width:0.25;stroke-miterlimit:10;}
</style>
<g>
	<g>
		
			<linearGradient id="SVGID_1_" gradientUnits="userSpaceOnUse" x1="10.2837" y1="36.3196" x2="-5.967" y2="19.7958" gradientTransform="matrix(0.9997 -2.626982e-002 2.626982e-002 0.9997 -0.9623 4.858)">
			<stop  offset="0" style="stop-color:#D300FF"/>
			<stop  offset="0.8565" style="stop-color:#42FFFF"/>
		</linearGradient>
		<path class="st0" d="M15,34.2c0.1-2.4-1.8-4.5-4.3-4.5c-0.1,0-0.2,0-0.4,0c0.5-0.9,0.7-1.8,0.8-2.9c0.1-3.6-2.7-6.6-6.3-6.7
			C1.7,20-1,22.2-1.7,25.2c-4.5-1.6-7.7,2.4-7.3,5.5c-2.3-0.2-3.8,1.6-3.9,3.6c-0.1,1.8,1,3.4,2.5,4.1l0,0l0,0
			c0.5,0.2,1.1,0.4,1.7,0.4l20.4-0.5C13.5,37.8,14.9,36.2,15,34.2z"/>
	</g>
	
		<linearGradient id="SVGID_2_" gradientUnits="userSpaceOnUse" x1="-10.2103" y1="35.1016" x2="-5.1343" y2="35.1016" gradientTransform="matrix(1 0 0 1 0 8)">
		<stop  offset="0" style="stop-color:#D300FF"/>
		<stop  offset="0.8565" style="stop-color:#42FFFF"/>
	</linearGradient>
	<polygon class="st1" points="-8,45.9 -9.8,45.9 -7.4,40.3 -5.5,40.3 	"/>
	
		<linearGradient id="SVGID_3_" gradientUnits="userSpaceOnUse" x1="-6.5989" y1="35.1016" x2="-1.5161" y2="35.1016" gradientTransform="matrix(1 0 0 1 0 8)">
		<stop  offset="0" style="stop-color:#D300FF"/>
		<stop  offset="0.8565" style="stop-color:#42FFFF"/>
	</linearGradient>
	<polygon class="st2" points="-4.3,45.9 -6.2,45.9 -3.8,40.3 -1.9,40.3 	"/>
	<g>
		
			<linearGradient id="SVGID_4_" gradientUnits="userSpaceOnUse" x1="-1.1798" y1="38.5516" x2="4.8435" y2="38.5516" gradientTransform="matrix(1 0 0 1 0 4)">
			<stop  offset="0" style="stop-color:#D300FF"/>
			<stop  offset="0.8565" style="stop-color:#42FFFF"/>
		</linearGradient>
		<path class="st3" d="M4.3,43.3l0.2-0.1l-0.3-0.5L4,42.8c-0.2,0.1-0.4,0.2-0.5,0.4l-1.1-0.6L3.5,42c0.1,0.2,0.3,0.3,0.5,0.4
			l0.2,0.1L4.5,42l-0.2-0.1c-0.1-0.1-0.2-0.1-0.3-0.2l0.7-0.4l-0.3-0.5l-0.7,0.4c0-0.1,0-0.2,0-0.3v-0.3H3.1v0.3
			c0,0.2,0,0.4,0.1,0.6l-1.1,0.6v-1.3c0.2,0,0.4-0.1,0.6-0.2l0.2-0.1L2.6,40l-0.2,0.1c-0.1,0.1-0.2,0.1-0.3,0.1v-0.7H1.6v0.7
			c-0.1,0-0.2-0.1-0.3-0.1L1.1,40l-0.3,0.5L1,40.6c0.2,0.1,0.4,0.2,0.6,0.2v1.3l-1.1-0.6c0.1-0.2,0.1-0.4,0.1-0.6v-0.3H0v0.3
			c0,0.1,0,0.2,0,0.3l-0.7-0.4L-1,41.3l0.7,0.4c-0.1,0.1-0.2,0.1-0.3,0.2L-0.8,42l0.3,0.5l0.2-0.2c0.2-0.1,0.4-0.2,0.5-0.4l1.1,0.6
			l-1.1,0.6c-0.1-0.2-0.3-0.3-0.5-0.4l-0.2-0.1l-0.3,0.5l0.2,0.2c0.1,0.1,0.2,0.1,0.3,0.2L-1,43.9l0.3,0.5L0,44c0,0.1,0,0.2,0,0.3
			v0.3h0.6v-0.3c0-0.2,0-0.4-0.1-0.6l1.1-0.6v1.2c-0.2,0-0.4,0.1-0.6,0.2l-0.2,0.1l0.3,0.5L1.3,45c0.1-0.1,0.2-0.1,0.3-0.1v0.7h0.5
			v-0.7c0.1,0,0.2,0.1,0.3,0.1l0.2,0.1l0.3-0.5l-0.2-0.1c-0.1-0.1-0.3-0.1-0.6-0.2V43l1.1,0.6c0,0.3-0.1,0.5,0,0.7v0.3h0.6v-0.3
			c0-0.1,0-0.2,0-0.3l0.6,0.3l0.3-0.5L4,43.4C4.1,43.4,4.2,43.3,4.3,43.3z"/>
		<path class="st4" d="M4.3,43.3l0.2-0.1l-0.3-0.5L4,42.8c-0.2,0.1-0.4,0.2-0.5,0.4l-1.1-0.6L3.5,42c0.1,0.2,0.3,0.3,0.5,0.4
			l0.2,0.1L4.5,42l-0.2-0.1c-0.1-0.1-0.2-0.1-0.3-0.2l0.7-0.4l-0.3-0.5l-0.7,0.4c0-0.1,0-0.2,0-0.3v-0.3H3.1v0.3
			c0,0.2,0,0.4,0.1,0.6l-1.1,0.6v-1.3c0.2,0,0.4-0.1,0.6-0.2l0.2-0.1L2.6,40l-0.2,0.1c-0.1,0.1-0.2,0.1-0.3,0.1v-0.7H1.6v0.7
			c-0.1,0-0.2-0.1-0.3-0.1L1.1,40l-0.3,0.5L1,40.6c0.2,0.1,0.4,0.2,0.6,0.2v1.3l-1.1-0.6c0.1-0.2,0.1-0.4,0.1-0.6v-0.3H0v0.3
			c0,0.1,0,0.2,0,0.3l-0.7-0.4L-1,41.3l0.7,0.4c-0.1,0.1-0.2,0.1-0.3,0.2L-0.8,42l0.3,0.5l0.2-0.2c0.2-0.1,0.4-0.2,0.5-0.4l1.1,0.6
			l-1.1,0.6c-0.1-0.2-0.3-0.3-0.5-0.4l-0.2-0.1l-0.3,0.5l0.2,0.2c0.1,0.1,0.2,0.1,0.3,0.2L-1,43.9l0.3,0.5L0,44c0,0.1,0,0.2,0,0.3
			v0.3h0.6v-0.3c0-0.2,0-0.4-0.1-0.6l1.1-0.6v1.2c-0.2,0-0.4,0.1-0.6,0.2l-0.2,0.1l0.3,0.5L1.3,45c0.1-0.1,0.2-0.1,0.3-0.1v0.7h0.5
			v-0.7c0.1,0,0.2,0.1,0.3,0.1l0.2,0.1l0.3-0.5l-0.2-0.1c-0.1-0.1-0.3-0.1-0.6-0.2V43l1.1,0.6c0,0.3-0.1,0.5,0,0.7v0.3h0.6v-0.3
			c0-0.1,0-0.2,0-0.3l0.6,0.3l0.3-0.5L4,43.4C4.1,43.4,4.2,43.3,4.3,43.3z"/>
	</g>
	<g>
		
			<linearGradient id="SVGID_5_" gradientUnits="userSpaceOnUse" x1="5.1952" y1="38.5516" x2="11.2185" y2="38.5516" gradientTransform="matrix(1 0 0 1 0 4)">
			<stop  offset="0" style="stop-color:#D300FF"/>
			<stop  offset="0.8565" style="stop-color:#42FFFF"/>
		</linearGradient>
		<path class="st5" d="M10.7,43.3l0.2-0.1l-0.3-0.5l-0.2,0.1c-0.2,0.1-0.4,0.2-0.5,0.4l-1.1-0.6L9.9,42c0.1,0.2,0.3,0.3,0.5,0.4
			l0.2,0.1l0.3-0.5l-0.2-0.1c-0.1-0.1-0.2-0.1-0.3-0.2l0.7-0.4l-0.3-0.5l-0.7,0.4c0-0.1,0-0.2,0-0.3v-0.3H9.5v0.3
			c0,0.2,0,0.4,0.1,0.6l-1.1,0.6v-1.3c0.2,0,0.4-0.1,0.6-0.2l0.2-0.1L9,40l-0.2,0.1c-0.1,0.1-0.2,0.1-0.3,0.1v-0.7H8v0.7
			c-0.1,0-0.2-0.1-0.3-0.1L7.5,40l-0.3,0.5l0.2,0.1c0.2,0.1,0.4,0.2,0.6,0.2v1.3l-1.1-0.6C7,41.3,7,41.1,7,40.9v-0.3H6.4v0.3
			c0,0.1,0,0.2,0,0.3l-0.7-0.4l-0.3,0.5l0.7,0.4c-0.1,0.1-0.2,0.1-0.3,0.2L5.6,42l0.3,0.5l0.2-0.2c0.2-0.1,0.4-0.2,0.5-0.4l1.1,0.6
			l-1.1,0.6c-0.1-0.2-0.3-0.3-0.5-0.4l-0.2-0.1l-0.3,0.5l0.2,0.2c0.1,0.1,0.2,0.1,0.3,0.2l-0.7,0.4l0.3,0.5L6.4,44
			c0,0.1,0,0.2,0,0.3v0.3H7v-0.3c0-0.2,0-0.4-0.1-0.6L8,43.1v1.2c-0.2,0-0.4,0.1-0.6,0.2l-0.2,0.1l0.3,0.5L7.7,45
			c0.1-0.1,0.2-0.1,0.3-0.1v0.7h0.5v-0.7c0.1,0,0.2,0.1,0.3,0.1L9,45.1l0.3-0.5l-0.2-0.1c-0.1-0.1-0.3-0.1-0.6-0.2V43l1.1,0.6
			c0,0.3-0.1,0.5,0,0.7v0.3h0.6v-0.3c0-0.1,0-0.2,0-0.3l0.6,0.3l0.3-0.5l-0.7-0.4C10.5,43.4,10.6,43.3,10.7,43.3z"/>
		<path class="st4" d="M10.7,43.3l0.2-0.1l-0.3-0.5l-0.2,0.1c-0.2,0.1-0.4,0.2-0.5,0.4l-1.1-0.6L9.9,42c0.1,0.2,0.3,0.3,0.5,0.4
			l0.2,0.1l0.3-0.5l-0.2-0.1c-0.1-0.1-0.2-0.1-0.3-0.2l0.7-0.4l-0.3-0.5l-0.7,0.4c0-0.1,0-0.2,0-0.3v-0.3H9.5v0.3
			c0,0.2,0,0.4,0.1,0.6l-1.1,0.6v-1.3c0.2,0,0.4-0.1,0.6-0.2l0.2-0.1L9,40l-0.2,0.1c-0.1,0.1-0.2,0.1-0.3,0.1v-0.7H8v0.7
			c-0.1,0-0.2-0.1-0.3-0.1L7.5,40l-0.3,0.5l0.2,0.1c0.2,0.1,0.4,0.2,0.6,0.2v1.3l-1.1-0.6C7,41.3,7,41.1,7,40.9v-0.3H6.4v0.3
			c0,0.1,0,0.2,0,0.3l-0.7-0.4l-0.3,0.5l0.7,0.4c-0.1,0.1-0.2,0.1-0.3,0.2L5.6,42l0.3,0.5l0.2-0.2c0.2-0.1,0.4-0.2,0.5-0.4l1.1,0.6
			l-1.1,0.6c-0.1-0.2-0.3-0.3-0.5-0.4l-0.2-0.1l-0.3,0.5l0.2,0.2c0.1,0.1,0.2,0.1,0.3,0.2l-0.7,0.4l0.3,0.5L6.4,44
			c0,0.1,0,0.2,0,0.3v0.3H7v-0.3c0-0.2,0-0.4-0.1-0.6L8,43.1v1.2c-0.2,0-0.4,0.1-0.6,0.2l-0.2,0.1l0.3,0.5L7.7,45
			c0.1-0.1,0.2-0.1,0.3-0.1v0.7h0.5v-0.7c0.1,0,0.2,0.1,0.3,0.1L9,45.1l0.3-0.5l-0.2-0.1c-0.1-0.1-0.3-0.1-0.6-0.2V43l1.1,0.6
			c0,0.3-0.1,0.5,0,0.7v0.3h0.6v-0.3c0-0.1,0-0.2,0-0.3l0.6,0.3l0.3-0.5l-0.7-0.4C10.5,43.4,10.6,43.3,10.7,43.3z"/>
	</g>
</g>
</svg>
