<?xml version="1.0" encoding="utf-8"?>
<!-- Generator: Adobe Illustrator 19.0.0, SVG Export Plug-In . SVG Version: 6.00 Build 0)  -->
<svg version="1.1" id="Capa_1" xmlns="http://www.w3.org/2000/svg" xmlns:xlink="http://www.w3.org/1999/xlink" x="0px" y="0px"
	 viewBox="-15 17 32 32" style="enable-background:new -15 17 32 32;" xml:space="preserve">
<style type="text/css">
	.st0{fill:#3F5889;stroke:url(#SVGID_1_);stroke-width:0.5;stroke-miterlimit:10;}
	.st1{fill:none;stroke:url(#SVGID_2_);stroke-width:0.25;stroke-miterlimit:10;}
	.st2{fill:#193372;}
	.st3{fill:none;stroke:url(#SVGID_3_);stroke-width:0.25;stroke-miterlimit:10;}
	.st4{fill:url(#SVGID_4_);}
</style>
<g>
	<g>
		
			<linearGradient id="SVGID_1_" gradientUnits="userSpaceOnUse" x1="10.6911" y1="22.5223" x2="-5.5595" y2="39.046" gradientTransform="matrix(0.9997 -2.626982e-002 -2.626982e-002 -0.9997 0.7985 67.2025)">
			<stop  offset="0" style="stop-color:#D300FF"/>
			<stop  offset="0.8565" style="stop-color:#42FFFF"/>
		</linearGradient>
		<path class="st0" d="M15.5,37.7c0.1-2.4-1.8-4.5-4.3-4.5c-0.1,0-0.2,0-0.4,0c0.5-0.9,0.7-1.8,0.8-2.9c0.1-3.6-2.7-6.6-6.3-6.7
			c-3.2-0.1-5.9,2.1-6.5,5.1c-4.5-1.6-7.7,2.4-7.3,5.5c-2.3-0.2-3.8,1.6-3.9,3.6c-0.1,1.8,1,3.4,2.5,4.1l0,0l0,0
			c0.5,0.2,1.1,0.4,1.7,0.4l20.4-0.5C14,41.3,15.4,39.7,15.5,37.7z"/>
	</g>
	<g>
		<g>
			
				<linearGradient id="SVGID_2_" gradientUnits="userSpaceOnUse" x1="1.5528" y1="22.6359" x2="5.8531" y2="22.6359" gradientTransform="matrix(1 0 0 -1 0 68)">
				<stop  offset="0" style="stop-color:#D300FF"/>
				<stop  offset="0.8565" style="stop-color:#42FFFF"/>
			</linearGradient>
			<path class="st1" d="M5.4,45.9l0.2-0.1l-0.2-0.3l-0.2,0.1c-0.1,0.1-0.2,0.2-0.3,0.3l-0.8-0.5L4.9,45c0.1,0.1,0.2,0.2,0.3,0.3
				l0.2,0L5.6,45l-0.2-0.1c-0.1,0-0.1-0.1-0.2-0.1l0.5-0.3l-0.2-0.3L5,44.5c0-0.1,0-0.2,0-0.2v-0.2H4.6v0.2c0,0.1,0,0.3,0.1,0.4
				l-0.8,0.4v-0.9c0.1,0,0.3-0.1,0.4-0.2l0.2-0.1l-0.2-0.3l-0.2,0.1c-0.1,0-0.1,0.1-0.2,0.1v-0.5H3.5v0.5c-0.1,0-0.1,0-0.2-0.1
				l-0.2-0.1l-0.2,0.3L3.1,44c0.1,0.1,0.3,0.1,0.4,0.2v0.9l-0.8-0.4c0.1-0.1,0.1-0.3,0.1-0.4v-0.2H2.4v0.2c0,0.1,0,0.2,0,0.2
				l-0.5-0.3l-0.2,0.3l0.5,0.3c-0.1,0-0.1,0.1-0.2,0.1L1.8,45L2,45.3l0.2-0.1c0.1-0.1,0.2-0.2,0.3-0.3l0.8,0.4l-0.8,0.4
				c-0.1-0.1-0.2-0.2-0.3-0.3L2,45.3l-0.2,0.3L2,45.7c0.1,0,0.1,0.1,0.2,0.1l-0.5,0.5l0.2,0.3l0.5-0.3c0,0.1,0,0.2,0,0.2v0.2h0.4
				v-0.2c0-0.1,0-0.3-0.1-0.4l0.8-0.4v0.9c-0.1,0-0.3,0.1-0.4,0.2l-0.2,0.1l0.2,0.3l0.2-0.1c0.1,0,0.1-0.1,0.2-0.1v0.5h0.4V47
				C4,47,4,47,4.1,47.1l0.2,0.1l0.2-0.3l-0.2-0.1c-0.1-0.1-0.3-0.1-0.4-0.2v-0.9l0.8,0.4c-0.1,0.1-0.1,0.3-0.1,0.4v0.2H5v-0.2
				c0-0.1,0-0.2,0-0.2l0.5,0.3l0.2-0.3L5.2,46C5.2,46,5.3,46,5.4,45.9z"/>
			<path class="st2" d="M5.4,45.9l0.2-0.1l-0.2-0.3l-0.2,0.1c-0.1,0.1-0.2,0.2-0.3,0.3l-0.8-0.5L4.9,45c0.1,0.1,0.2,0.2,0.3,0.3
				l0.2,0L5.6,45l-0.2-0.1c-0.1,0-0.1-0.1-0.2-0.1l0.5-0.3l-0.2-0.3L5,44.5c0-0.1,0-0.2,0-0.2v-0.2H4.6v0.2c0,0.1,0,0.3,0.1,0.4
				l-0.8,0.4v-0.9c0.1,0,0.3-0.1,0.4-0.2l0.2-0.1l-0.2-0.3l-0.2,0.1c-0.1,0-0.1,0.1-0.2,0.1v-0.5H3.5v0.5c-0.1,0-0.1,0-0.2-0.1
				l-0.2-0.1l-0.2,0.3L3.1,44c0.1,0.1,0.3,0.1,0.4,0.2v0.9l-0.8-0.4c0.1-0.1,0.1-0.3,0.1-0.4v-0.2H2.4v0.2c0,0.1,0,0.2,0,0.2
				l-0.5-0.3l-0.2,0.3l0.5,0.3c-0.1,0-0.1,0.1-0.2,0.1L1.8,45L2,45.3l0.2-0.1c0.1-0.1,0.2-0.2,0.3-0.3l0.8,0.4l-0.8,0.4
				c-0.1-0.1-0.2-0.2-0.3-0.3L2,45.3l-0.2,0.3L2,45.7c0.1,0,0.1,0.1,0.2,0.1l-0.5,0.5l0.2,0.3l0.5-0.3c0,0.1,0,0.2,0,0.2v0.2h0.4
				v-0.2c0-0.1,0-0.3-0.1-0.4l0.8-0.4v0.9c-0.1,0-0.3,0.1-0.4,0.2l-0.2,0.1l0.2,0.3l0.2-0.1c0.1,0,0.1-0.1,0.2-0.1v0.5h0.4V47
				C4,47,4,47,4.1,47.1l0.2,0.1l0.2-0.3l-0.2-0.1c-0.1-0.1-0.3-0.1-0.4-0.2v-0.9l0.8,0.4c-0.1,0.1-0.1,0.3-0.1,0.4v0.2H5v-0.2
				c0-0.1,0-0.2,0-0.2l0.5,0.3l0.2-0.3L5.2,46C5.2,46,5.3,46,5.4,45.9z"/>
		</g>
		<g>
			
				<linearGradient id="SVGID_3_" gradientUnits="userSpaceOnUse" x1="-3.6035" y1="22.6359" x2="0.6968" y2="22.6359" gradientTransform="matrix(1 0 0 -1 0 68)">
				<stop  offset="0" style="stop-color:#D300FF"/>
				<stop  offset="0.8565" style="stop-color:#42FFFF"/>
			</linearGradient>
			<path class="st3" d="M0.2,45.9l0.2-0.1l-0.2-0.3L0,45.6c-0.1,0.1-0.2,0.2-0.3,0.3l-0.8-0.4l0.8-0.4c0.1,0.1,0.2,0.2,0.3,0.3
				l0.2,0.1l0.2-0.3l-0.2-0.1C0.1,45.1,0.1,45,0,45l0.5-0.3l-0.2-0.3l-0.5,0.3c0-0.1,0-0.2,0-0.2v-0.2h-0.4v0.2c0,0.1,0,0.3,0.1,0.4
				l-0.8,0.4v-0.9c0.1,0,0.3-0.1,0.4-0.2l0.2-0.1l-0.2-0.5l-0.2,0.1c-0.1,0-0.1,0.1-0.2,0.1v-0.5h-0.4v0.5c-0.1,0-0.1,0-0.2-0.1
				l-0.2-0.1l-0.2,0.3l0.2,0.1c0.1,0.1,0.3,0.1,0.4,0.2v0.9l-0.8-0.4c0.1-0.1,0.1-0.3,0.1-0.4v-0.2h-0.4v0.2c0,0.1,0,0.2,0,0.2
				l-0.5-0.3l-0.2,0.3l0.5,0.3c-0.1,0.1-0.1,0.1-0.2,0.1L-3.4,45l0.2,0.3l0.2-0.1c0.1-0.1,0.2-0.2,0.3-0.3l0.8,0.4l-0.8,0.4
				c-0.1-0.1-0.2-0.2-0.3-0.3l-0.2-0.1l-0.2,0.3l0.2,0.1c0.1,0,0.1,0.1,0.2,0.1l-0.5,0.5l0.2,0.3l0.5-0.3c0,0.1,0,0.2,0,0.2v0.2h0.4
				v-0.2c0-0.1,0-0.3-0.1-0.4l0.8-0.4v0.9c-0.1,0-0.3,0.1-0.4,0.2l-0.2,0.1l0.2,0.3l0.2-0.1c0.1,0,0.1-0.1,0.2-0.1v0.5h0.4V47
				c0.1,0,0.1,0,0.2,0.1l0.2,0.1l0.2-0.3l-0.2-0.1c-0.1-0.1-0.3-0.1-0.4-0.2v-0.9l0.8,0.4c-0.1,0.1-0.1,0.3-0.1,0.4v0.2h0.4v-0.2
				c0-0.1,0-0.2,0-0.2l0.5,0.3l0.2-0.3L0,46C0.1,46,0.1,46,0.2,45.9z"/>
			<path class="st2" d="M0.2,45.9l0.2-0.1l-0.2-0.3L0,45.6c-0.1,0.1-0.2,0.2-0.3,0.3l-0.8-0.4l0.8-0.4c0.1,0.1,0.2,0.2,0.3,0.3
				l0.2,0.1l0.2-0.3l-0.2-0.1C0.1,45.1,0.1,45,0,45l0.5-0.3l-0.2-0.3l-0.5,0.3c0-0.1,0-0.2,0-0.2v-0.2h-0.4v0.2c0,0.1,0,0.3,0.1,0.4
				l-0.8,0.4v-0.9c0.1,0,0.3-0.1,0.4-0.2l0.2-0.1l-0.2-0.5l-0.2,0.1c-0.1,0-0.1,0.1-0.2,0.1v-0.5h-0.4v0.5c-0.1,0-0.1,0-0.2-0.1
				l-0.2-0.1l-0.2,0.3l0.2,0.1c0.1,0.1,0.3,0.1,0.4,0.2v0.9l-0.8-0.4c0.1-0.1,0.1-0.3,0.1-0.4v-0.2h-0.4v0.2c0,0.1,0,0.2,0,0.2
				l-0.5-0.3l-0.2,0.3l0.5,0.3c-0.1,0.1-0.1,0.1-0.2,0.1L-3.4,45l0.2,0.3l0.2-0.1c0.1-0.1,0.2-0.2,0.3-0.3l0.8,0.4l-0.8,0.4
				c-0.1-0.1-0.2-0.2-0.3-0.3l-0.2-0.1l-0.2,0.3l0.2,0.1c0.1,0,0.1,0.1,0.2,0.1l-0.5,0.5l0.2,0.3l0.5-0.3c0,0.1,0,0.2,0,0.2v0.2h0.4
				v-0.2c0-0.1,0-0.3-0.1-0.4l0.8-0.4v0.9c-0.1,0-0.3,0.1-0.4,0.2l-0.2,0.1l0.2,0.3l0.2-0.1c0.1,0,0.1-0.1,0.2-0.1v0.5h0.4V47
				c0.1,0,0.1,0,0.2,0.1l0.2,0.1l0.2-0.3l-0.2-0.1c-0.1-0.1-0.3-0.1-0.4-0.2v-0.9l0.8,0.4c-0.1,0.1-0.1,0.3-0.1,0.4v0.2h0.4v-0.2
				c0-0.1,0-0.2,0-0.2l0.5,0.3l0.2-0.3L0,46C0.1,46,0.1,46,0.2,45.9z"/>
		</g>
	</g>
	
		<linearGradient id="SVGID_4_" gradientUnits="userSpaceOnUse" x1="-4.5516" y1="24.4317" x2="-12.5725" y2="18.605" gradientTransform="matrix(1.0578 -0.174 0.1623 0.9867 -4.5169 8.078986e-002)">
		<stop  offset="0" style="stop-color:#D300FF"/>
		<stop  offset="0.8565" style="stop-color:#42FFFF"/>
	</linearGradient>
	<path class="st4" d="M-10.1,23.5c-0.3-2.1,0.9-4.1,2.8-4.9c-0.7-0.1-1.4-0.1-2.1,0.1c-2.7,0.6-4.5,3.1-4.2,5.7
		c0.4,2.8,3.2,4.7,6.1,4.2c1.1-0.2,2-0.6,2.8-1.3C-7.2,27.6-9.7,26-10.1,23.5z"/>
</g>
</svg>
