<?xml version="1.0" encoding="utf-8"?>
<!-- Generator: Adobe Illustrator 19.0.0, SVG Export Plug-In . SVG Version: 6.00 Build 0)  -->
<svg version="1.1" id="Capa_1" xmlns="http://www.w3.org/2000/svg" xmlns:xlink="http://www.w3.org/1999/xlink" x="0px" y="0px"
	 viewBox="-15 17 32 32" style="enable-background:new -15 17 32 32;" xml:space="preserve">
<style type="text/css">
	.st0{fill:#3F5889;stroke:url(#SVGID_1_);stroke-width:0.5;stroke-miterlimit:10;}
	.st1{fill:none;stroke:url(#SVGID_2_);stroke-width:0.25;stroke-miterlimit:10;}
	.st2{fill:#193372;}
</style>
<g>
	<g>
		
			<linearGradient id="SVGID_1_" gradientUnits="userSpaceOnUse" x1="10.2192" y1="27.5695" x2="-6.0314" y2="44.0933" gradientTransform="matrix(0.9997 -2.626982e-002 -2.626982e-002 -0.9997 0.7805 69.6263)">
			<stop  offset="0" style="stop-color:#D300FF"/>
			<stop  offset="0.8565" style="stop-color:#42FFFF"/>
		</linearGradient>
		<path class="st0" d="M15,35.1c0.1-2.4-1.8-4.5-4.3-4.5c-0.1,0-0.2,0-0.4,0c0.5-0.9,0.7-1.8,0.8-2.9c0.1-3.6-2.7-6.6-6.3-6.7
			c-3.2-0.1-5.9,2.1-6.5,5.1c-4.5-1.6-7.7,2.4-7.3,5.5c-2.3-0.2-3.8,1.6-3.9,3.6c-0.1,1.8,1,3.4,2.5,4.1l0,0l0,0
			c0.5,0.2,1.1,0.4,1.7,0.4l20.4-0.5C13.5,38.7,14.9,37.1,15,35.1z"/>
	</g>
	<g>
		
			<linearGradient id="SVGID_2_" gradientUnits="userSpaceOnUse" x1="-1.1284" y1="29.1484" x2="3.1719" y2="29.1484" gradientTransform="matrix(1 0 0 -1 0 72)">
			<stop  offset="0" style="stop-color:#D300FF"/>
			<stop  offset="0.8565" style="stop-color:#42FFFF"/>
		</linearGradient>
		<path class="st1" d="M2.9,43.4L3,43.3L2.8,43H2.7c-0.1,0.1-0.2,0.2-0.3,0.3l-0.8-0.4l0.8-0.4c0.1,0.1,0.2,0.2,0.3,0.3l0.2,0.1
			L3,42.4l-0.2-0.1c-0.1,0-0.1-0.1-0.2-0.1l0.5-0.3L3,41.6l-0.5,0.3c0-0.1,0-0.2,0-0.2v-0.2H2.1v0.2c0,0.1,0,0.3,0.1,0.4l-0.8,0.4
			v-0.9c0.1,0,0.3-0.1,0.4-0.2L2,41.3L1.7,41l-0.2,0.1c-0.1,0-0.1,0.1-0.2,0.1v-0.5H1v0.5c-0.1,0-0.1,0-0.2-0.1L0.6,41l-0.2,0.3
			l0.2,0.1c0.1,0.1,0.3,0.1,0.4,0.2v0.9l-0.8-0.4c0.1-0.1,0.1-0.3,0.1-0.4v-0.2h-0.4v0.2c0,0.1,0,0.2,0,0.2l-0.5-0.3l-0.2,0.3
			l0.5,0.3c-0.1,0.1-0.1,0.1-0.2,0.1l-0.2,0.1l0.2,0.3l0.2-0.1c0.1-0.1,0.2-0.2,0.3-0.3l0.8,0.4L0,43.3c-0.1-0.1-0.2-0.2-0.3-0.3
			l-0.2-0.1l-0.2,0.3l0.2,0.1c0.1,0,0.1,0.1,0.2,0.1l-0.5,0.3l0.2,0.3l0.5-0.3c0,0.1,0,0.2,0,0.2v0.2h0.4v-0.2c0-0.1,0-0.3-0.1-0.4
			L1,43.1V44c-0.1,0-0.3,0.1-0.4,0.2l-0.2,0.1l0.2,0.3l0.2-0.1c0.1,0,0.1-0.1,0.2-0.1V45h0.4v-0.5c0.1,0,0.1,0,0.2,0.1l0.2,0.1
			L2,44.4l-0.2-0.1c-0.1-0.1-0.3-0.1-0.4-0.2v-0.9l0.8,0.4c-0.1,0.1-0.1,0.3-0.1,0.4v0.2h0.4V44c0-0.1,0-0.2,0-0.2L3,44.1l0.2-0.3
			l-0.5-0.3C2.7,43.5,2.8,43.4,2.9,43.4z"/>
		<path class="st2" d="M2.9,43.4L3,43.3L2.8,43H2.7c-0.1,0.1-0.2,0.2-0.3,0.3l-0.8-0.4l0.8-0.4c0.1,0.1,0.2,0.2,0.3,0.3l0.2,0.1
			L3,42.4l-0.2-0.1c-0.1,0-0.1-0.1-0.2-0.1l0.5-0.3L3,41.6l-0.5,0.3c0-0.1,0-0.2,0-0.2v-0.2H2.1v0.2c0,0.1,0,0.3,0.1,0.4l-0.8,0.4
			v-0.9c0.1,0,0.3-0.1,0.4-0.2L2,41.3L1.7,41l-0.2,0.1c-0.1,0-0.1,0.1-0.2,0.1v-0.5H1v0.5c-0.1,0-0.1,0-0.2-0.1L0.6,41l-0.2,0.3
			l0.2,0.1c0.1,0.1,0.3,0.1,0.4,0.2v0.9l-0.8-0.4c0.1-0.1,0.1-0.3,0.1-0.4v-0.2h-0.4v0.2c0,0.1,0,0.2,0,0.2l-0.5-0.3l-0.2,0.3
			l0.5,0.3c-0.1,0.1-0.1,0.1-0.2,0.1l-0.2,0.1l0.2,0.3l0.2-0.1c0.1-0.1,0.2-0.2,0.3-0.3l0.8,0.4L0,43.3c-0.1-0.1-0.2-0.2-0.3-0.3
			l-0.2-0.1l-0.2,0.3l0.2,0.1c0.1,0,0.1,0.1,0.2,0.1l-0.5,0.3l0.2,0.3l0.5-0.3c0,0.1,0,0.2,0,0.2v0.2h0.4v-0.2c0-0.1,0-0.3-0.1-0.4
			L1,43.1V44c-0.1,0-0.3,0.1-0.4,0.2l-0.2,0.1l0.2,0.3l0.2-0.1c0.1,0,0.1-0.1,0.2-0.1V45h0.4v-0.5c0.1,0,0.1,0,0.2,0.1l0.2,0.1
			L2,44.4l-0.2-0.1c-0.1-0.1-0.3-0.1-0.4-0.2v-0.9l0.8,0.4c-0.1,0.1-0.1,0.3-0.1,0.4v0.2h0.4V44c0-0.1,0-0.2,0-0.2L3,44.1l0.2-0.3
			l-0.5-0.3C2.7,43.5,2.8,43.4,2.9,43.4z"/>
	</g>
</g>
</svg>
