<?xml version="1.0" encoding="utf-8"?>
<!-- Generator: Adobe Illustrator 19.0.0, SVG Export Plug-In . SVG Version: 6.00 Build 0)  -->
<svg version="1.1" id="Capa_1" xmlns="http://www.w3.org/2000/svg" xmlns:xlink="http://www.w3.org/1999/xlink" x="0px" y="0px"
	 viewBox="-15 17 32 32" style="enable-background:new -15 17 32 32;" xml:space="preserve">
<style type="text/css">
	.st0{fill:#3F5889;stroke:url(#SVGID_1_);stroke-width:0.5;stroke-miterlimit:10;}
	.st1{fill:none;stroke:url(#SVGID_2_);stroke-width:0.25;stroke-miterlimit:10;}
	.st2{fill:#193372;}
	.st3{fill:url(#SVGID_3_);}
</style>
<g>
	
		<linearGradient id="SVGID_1_" gradientUnits="userSpaceOnUse" x1="11.6605" y1="42.0767" x2="-4.5901" y2="25.553" gradientTransform="matrix(0.9997 -2.626982e-002 2.626982e-002 0.9997 -0.9443 2.4342)">
		<stop  offset="0" style="stop-color:#D300FF"/>
		<stop  offset="0.8565" style="stop-color:#42FFFF"/>
	</linearGradient>
	<path class="st0" d="M16.4,37.5c0.1-2.4-1.8-4.5-4.3-4.5c-0.1,0-0.2,0-0.4,0c0.5-0.9,0.7-1.8,0.8-2.9c0.1-3.6-2.7-6.6-6.3-6.7
		c-3.2-0.1-5.9,2.1-6.5,5.1C-4.8,26.8-8,30.8-7.6,34c-2.3-0.2-3.8,1.6-3.9,3.6c-0.1,1.8,1,3.4,2.5,4.1l0,0l0,0
		c0.5,0.2,1.1,0.4,1.7,0.4l20.4-0.5C14.9,41,16.3,39.5,16.4,37.5z"/>
</g>
<g>
	
		<linearGradient id="SVGID_2_" gradientUnits="userSpaceOnUse" x1="0.5242" y1="41.1" x2="4.8245" y2="41.1" gradientTransform="matrix(1 0 0 1 0 4)">
		<stop  offset="0" style="stop-color:#D300FF"/>
		<stop  offset="0.8565" style="stop-color:#42FFFF"/>
	</linearGradient>
	<path class="st1" d="M4.3,45.5l0.2-0.1l-0.2-0.3l-0.2,0.1c-0.1,0.1-0.2,0.2-0.3,0.3L3,45l0.8-0.4C3.9,44.8,4,44.9,4.1,45h0.2
		l0.2-0.3l-0.2-0.1c-0.1,0-0.1-0.1-0.2-0.1l0.5-0.3L4.4,44l-0.5,0.3c0-0.1,0-0.2,0-0.2v-0.2H3.5V44c0,0.1,0,0.3,0.1,0.4l-0.8,0.4V44
		c0.1,0,0.3-0.1,0.4-0.2l0.2-0.1l-0.2-0.3L3,43.5c-0.1,0-0.1,0.1-0.2,0.1V43H2.4v0.5c-0.1,0-0.1,0-0.2-0.1L2,43.3l-0.2,0.3L2,43.8
		c0.1,0.1,0.3,0.1,0.4,0.2v0.9l-0.8-0.4c0.1-0.1,0.1-0.3,0.1-0.4v-0.2H1.3V44c0,0.1,0,0.2,0,0.2L0.8,44l-0.2,0.3l0.5,0.3
		c-0.1,0-0.1,0.1-0.2,0.1l-0.2,0.1L0.9,45l0.2-0.1c0.1-0.1,0.2-0.2,0.3-0.3L2.2,45l-0.8,0.4c-0.1-0.1-0.2-0.2-0.3-0.3L0.9,45
		l-0.2,0.3l0.2,0.1c0.1,0,0.1,0.1,0.2,0.1L0.6,46l0.2,0.3L1.3,46c0,0.1,0,0.2,0,0.2v0.2h0.4v-0.2c0-0.1,0-0.3-0.1-0.4l0.8-0.4v0.9
		c-0.1,0-0.3,0.1-0.4,0.2l-0.2,0.1L2,47l0.2-0.1c0.1,0,0.1-0.1,0.2-0.1v0.5h0.4v-0.5c0.1,0,0.1,0,0.2,0.1L3.2,47l0.2-0.3l-0.2-0.1
		c-0.1-0.1-0.3-0.1-0.4-0.2v-0.9l0.8,0.4c-0.1,0.1-0.1,0.3-0.1,0.4v0.2h0.4v-0.2c0-0.1,0-0.2,0-0.2l0.5,0.3L4.6,46l-0.5-0.3
		C4.1,45.8,4.2,45.8,4.3,45.5z"/>
	<path class="st2" d="M4.3,45.5l0.2-0.1l-0.2-0.3l-0.2,0.1c-0.1,0.1-0.2,0.2-0.3,0.3L3,45l0.8-0.4C3.9,44.8,4,44.9,4.1,45h0.2
		l0.2-0.3l-0.2-0.1c-0.1,0-0.1-0.1-0.2-0.1l0.5-0.3L4.4,44l-0.5,0.3c0-0.1,0-0.2,0-0.2v-0.2H3.5V44c0,0.1,0,0.3,0.1,0.4l-0.8,0.4V44
		c0.1,0,0.3-0.1,0.4-0.2l0.2-0.1l-0.2-0.3L3,43.5c-0.1,0-0.1,0.1-0.2,0.1V43H2.4v0.5c-0.1,0-0.1,0-0.2-0.1L2,43.3l-0.2,0.3L2,43.8
		c0.1,0.1,0.3,0.1,0.4,0.2v0.9l-0.8-0.4c0.1-0.1,0.1-0.3,0.1-0.4v-0.2H1.3V44c0,0.1,0,0.2,0,0.2L0.8,44l-0.2,0.3l0.5,0.3
		c-0.1,0-0.1,0.1-0.2,0.1l-0.2,0.1L0.9,45l0.2-0.1c0.1-0.1,0.2-0.2,0.3-0.3L2.2,45l-0.8,0.4c-0.1-0.1-0.2-0.2-0.3-0.3L0.9,45
		l-0.2,0.3l0.2,0.1c0.1,0,0.1,0.1,0.2,0.1L0.6,46l0.2,0.3L1.3,46c0,0.1,0,0.2,0,0.2v0.2h0.4v-0.2c0-0.1,0-0.3-0.1-0.4l0.8-0.4v0.9
		c-0.1,0-0.3,0.1-0.4,0.2l-0.2,0.1L2,47l0.2-0.1c0.1,0,0.1-0.1,0.2-0.1v0.5h0.4v-0.5c0.1,0,0.1,0,0.2,0.1L3.2,47l0.2-0.3l-0.2-0.1
		c-0.1-0.1-0.3-0.1-0.4-0.2v-0.9l0.8,0.4c-0.1,0.1-0.1,0.3-0.1,0.4v0.2h0.4v-0.2c0-0.1,0-0.2,0-0.2l0.5,0.3L4.6,46l-0.5-0.3
		C4.1,45.8,4.2,45.8,4.3,45.5z"/>
</g>
<linearGradient id="SVGID_3_" gradientUnits="userSpaceOnUse" x1="-3.9437" y1="24.3219" x2="-11.9646" y2="18.4952" gradientTransform="matrix(1.0578 -0.174 0.1623 0.9867 -4.5169 8.078986e-002)">
	<stop  offset="0" style="stop-color:#D300FF"/>
	<stop  offset="0.8565" style="stop-color:#42FFFF"/>
</linearGradient>
<path class="st3" d="M-9.4,23.3c-0.3-2.1,0.9-4.1,2.8-4.9c-0.7-0.1-1.4-0.1-2.1,0.1c-2.7,0.6-4.5,3.1-4.2,5.7
	c0.4,2.8,3.2,4.7,6.1,4.2c1.1-0.2,2-0.6,2.8-1.3C-6.6,27.4-9,25.8-9.4,23.3z"/>
</svg>
