<?xml version="1.0" encoding="utf-8"?>
<!-- Generator: Adobe Illustrator 19.0.0, SVG Export Plug-In . SVG Version: 6.00 Build 0)  -->
<svg version="1.1" id="Capa_1" xmlns="http://www.w3.org/2000/svg" xmlns:xlink="http://www.w3.org/1999/xlink" x="0px" y="0px"
	 viewBox="-15 17 32 32" style="enable-background:new -15 17 32 32;" xml:space="preserve">
<style type="text/css">
	.st0{fill:#5BBFD6;stroke:url(#SVGID_1_);stroke-width:0.5;stroke-miterlimit:10;}
	.st1{fill:#193372;stroke:url(#SVGID_2_);stroke-width:0.5;stroke-miterlimit:10;}
	.st2{fill:#193372;stroke:url(#SVGID_3_);stroke-width:0.5;stroke-miterlimit:10;}
	.st3{fill:url(#SVGID_4_);}
</style>
<g>
	<g>
		
			<linearGradient id="SVGID_1_" gradientUnits="userSpaceOnUse" x1="11.0103" y1="39.8201" x2="-5.246" y2="23.2906" gradientTransform="matrix(0.9997 -2.626982e-002 2.626982e-002 0.9997 -0.9623 4.858)">
			<stop  offset="0" style="stop-color:#D300FF"/>
			<stop  offset="0.8565" style="stop-color:#42FFFF"/>
		</linearGradient>
		<path class="st0" d="M15.7,37.6c0.1-2.4-1.8-4.5-4.3-4.5c-0.1,0-0.2,0-0.4,0c0.5-0.9,0.7-1.8,0.8-2.9c0.1-3.6-2.7-6.6-6.3-6.7
			c-3.1-0.1-5.8,2.1-6.5,5.1C-5.5,27-8.7,31-8.3,34.1c-2.3-0.2-3.8,1.6-3.9,3.6c-0.1,1.8,1,3.4,2.5,4.1l0,0l0,0
			c0.5,0.3,1.1,0.5,1.7,0.5l20.4-0.5C14.2,41.3,15.6,39.6,15.7,37.6z"/>
	</g>
	
		<linearGradient id="SVGID_2_" gradientUnits="userSpaceOnUse" x1="-1.8718" y1="37.4808" x2="2.2712" y2="37.4808" gradientTransform="matrix(1 0 0 1 0 8)">
		<stop  offset="0" style="stop-color:#D300FF"/>
		<stop  offset="0.8565" style="stop-color:#42FFFF"/>
	</linearGradient>
	<polygon class="st1" points="0.3,47.1 -1.5,47.1 0,43.8 1.9,43.8 	"/>
	
		<linearGradient id="SVGID_3_" gradientUnits="userSpaceOnUse" x1="1.7336" y1="37.4808" x2="5.8766" y2="37.4808" gradientTransform="matrix(1 0 0 1 0 8)">
		<stop  offset="0" style="stop-color:#D300FF"/>
		<stop  offset="0.8565" style="stop-color:#42FFFF"/>
	</linearGradient>
	<polygon class="st2" points="4,47.1 2.1,47.1 3.6,43.8 5.5,43.8 	"/>
	
		<linearGradient id="SVGID_4_" gradientUnits="userSpaceOnUse" x1="-4.7785" y1="24.7295" x2="-12.7994" y2="18.9028" gradientTransform="matrix(1.0578 -0.174 0.1623 0.9867 -4.5169 8.078986e-002)">
		<stop  offset="0" style="stop-color:#D300FF"/>
		<stop  offset="0.8565" style="stop-color:#42FFFF"/>
	</linearGradient>
	<path class="st3" d="M-10.3,23.8c-0.3-2.1,0.9-4.1,2.8-4.9c-0.7-0.1-1.4-0.1-2.1,0.1c-2.7,0.6-4.5,3.1-4.2,5.7
		c0.4,2.8,3.2,4.7,6.1,4.2c1.1-0.2,2-0.6,2.8-1.3C-7.4,27.9-9.8,26.3-10.3,23.8z"/>
</g>
</svg>
