<?xml version="1.0" encoding="utf-8"?>
<!-- Generator: Adobe Illustrator 19.0.0, SVG Export Plug-In . SVG Version: 6.00 Build 0)  -->
<svg version="1.1" id="Capa_1" xmlns="http://www.w3.org/2000/svg" xmlns:xlink="http://www.w3.org/1999/xlink" x="0px" y="0px"
	 viewBox="-15 17 32 32" style="enable-background:new -15 17 32 32;" xml:space="preserve">
<style type="text/css">
	.st0{fill:#3F5889;stroke:url(#SVGID_1_);stroke-width:0.5;stroke-miterlimit:10;}
	.st1{fill:#193372;stroke:url(#SVGID_2_);stroke-width:0.5;stroke-miterlimit:10;}
	.st2{fill:#193372;stroke:url(#SVGID_3_);stroke-width:0.5;stroke-miterlimit:10;}
	.st3{fill:none;stroke:url(#SVGID_4_);stroke-width:0.25;stroke-miterlimit:10;}
	.st4{fill:#193372;}
	.st5{fill:none;stroke:url(#SVGID_5_);stroke-width:0.25;stroke-miterlimit:10;}
	.st6{fill:url(#SVGID_6_);}
</style>
<g>
	<g>
		
			<linearGradient id="SVGID_1_" gradientUnits="userSpaceOnUse" x1="11.6032" y1="25.4563" x2="-4.6476" y2="41.9801" gradientTransform="matrix(0.9997 -2.626982e-002 -2.626982e-002 -0.9997 0.7805 69.6263)">
			<stop  offset="0" style="stop-color:#D300FF"/>
			<stop  offset="0.8565" style="stop-color:#42FFFF"/>
		</linearGradient>
		<path class="st0" d="M16.3,37.1c0.1-2.4-1.8-4.5-4.3-4.5c-0.1,0-0.2,0-0.4,0c0.5-0.9,0.7-1.8,0.8-2.9c0.1-3.6-2.7-6.6-6.3-6.7
			c-3.1-0.1-5.8,2.1-6.5,5.1c-4.5-1.6-7.7,2.4-7.3,5.5c-2.3-0.2-3.8,1.6-3.9,3.6c-0.1,1.8,1,3.4,2.5,4.1l0,0l0,0
			c0.5,0.2,1.1,0.4,1.7,0.4L13,41.2C14.8,40.7,16.2,39.1,16.3,37.1z"/>
	</g>
	
		<linearGradient id="SVGID_2_" gradientUnits="userSpaceOnUse" x1="-6.2468" y1="27.1192" x2="-2.1038" y2="27.1192" gradientTransform="matrix(1 0 0 -1 0 72)">
		<stop  offset="0" style="stop-color:#D300FF"/>
		<stop  offset="0.8565" style="stop-color:#42FFFF"/>
	</linearGradient>
	<polygon class="st1" points="-4.1,46.5 -5.9,46.5 -4.4,43.2 -2.5,43.2 	"/>
	
		<linearGradient id="SVGID_3_" gradientUnits="userSpaceOnUse" x1="-2.6414" y1="27.1192" x2="1.5016" y2="27.1192" gradientTransform="matrix(1 0 0 -1 0 72)">
		<stop  offset="0" style="stop-color:#D300FF"/>
		<stop  offset="0.8565" style="stop-color:#42FFFF"/>
	</linearGradient>
	<polygon class="st2" points="-0.4,46.5 -2.3,46.5 -0.8,43.2 1.1,43.2 	"/>
	<g>
		
			<linearGradient id="SVGID_4_" gradientUnits="userSpaceOnUse" x1="2.1152" y1="41.1307" x2="6.0282" y2="41.1307" gradientTransform="matrix(1 0 0 1 0 4)">
			<stop  offset="0" style="stop-color:#D300FF"/>
			<stop  offset="0.8565" style="stop-color:#42FFFF"/>
		</linearGradient>
		<path class="st3" d="M5.6,45.5l0.2-0.1l-0.2-0.3l-0.2,0.1c-0.1,0.1-0.2,0.2-0.3,0.3L4.4,45l0.7-0.4c0.1,0.1,0.2,0.2,0.3,0.3h0.2
			l0.2-0.3l-0.2,0c-0.1,0-0.1-0.1-0.2-0.1l0.5-0.3l-0.2-0.3l-0.5,0.3c0-0.1,0-0.2,0-0.2v-0.2H4.9V44c0,0.1,0,0.3,0.1,0.4l-0.8,0.4
			V44c0.1,0,0.3-0.1,0.4-0.2l0.2-0.1l-0.2-0.3l-0.2,0.1c-0.1,0-0.1,0.1-0.2,0.1v-0.5H3.9v0.5c-0.1,0-0.1,0-0.2-0.1l-0.2-0.1
			l-0.2,0.3l0.2,0.1c0.1,0.1,0.3,0.1,0.4,0.2v0.8l-0.7-0.4c0.1-0.1,0.1-0.3,0.1-0.4v-0.2H2.9V44c0,0.1,0,0.2,0,0.2l-0.5-0.3
			l-0.2,0.3l0.5,0.3c-0.1,0-0.1,0.1-0.2,0.1l-0.2,0.1L2.5,45l0.2-0.1c0.1-0.1,0.2-0.2,0.3-0.3L3.7,45L3,45.4
			c-0.1-0.1-0.2-0.2-0.3-0.3L2.5,45l-0.2,0.3l0.2,0.1c0.1,0,0.1,0.1,0.2,0.1L2.2,46l0.2,0.3L2.9,46c0,0.1,0,0.2,0,0.2v0.2h0.4v-0.2
			c0-0.1,0-0.3-0.1-0.4l0.7-0.4v0.8c-0.1,0-0.3,0.1-0.4,0.2l-0.2,0.1l0.2,0.3l0.2-0.1c0.1,0,0.1-0.1,0.2-0.1v0.5h0.4v-0.5
			c0.1,0,0.1,0,0.2,0.1l0.1,0l0.2-0.3l-0.2-0.1c-0.1-0.1-0.3-0.1-0.4-0.2v-0.8l0.7,0.4c-0.1,0.1-0.1,0.3-0.1,0.4v0.2h0.4v-0.2
			c0-0.1,0-0.2,0-0.2l0.5,0.3l0.2-0.3l-0.5-0.3C5.4,45.6,5.5,45.6,5.6,45.5z"/>
		<path class="st4" d="M5.6,45.5l0.2-0.1l-0.2-0.3l-0.2,0.1c-0.1,0.1-0.2,0.2-0.3,0.3L4.4,45l0.7-0.4c0.1,0.1,0.2,0.2,0.3,0.3h0.2
			l0.2-0.3l-0.2,0c-0.1,0-0.1-0.1-0.2-0.1l0.5-0.3l-0.2-0.3l-0.5,0.3c0-0.1,0-0.2,0-0.2v-0.2H4.9V44c0,0.1,0,0.3,0.1,0.4l-0.8,0.4
			V44c0.1,0,0.3-0.1,0.4-0.2l0.2-0.1l-0.2-0.3l-0.2,0.1c-0.1,0-0.1,0.1-0.2,0.1v-0.5H3.9v0.5c-0.1,0-0.1,0-0.2-0.1l-0.2-0.1
			l-0.2,0.3l0.2,0.1c0.1,0.1,0.3,0.1,0.4,0.2v0.8l-0.7-0.4c0.1-0.1,0.1-0.3,0.1-0.4v-0.2H2.9V44c0,0.1,0,0.2,0,0.2l-0.5-0.3
			l-0.2,0.3l0.5,0.3c-0.1,0-0.1,0.1-0.2,0.1l-0.2,0.1L2.5,45l0.2-0.1c0.1-0.1,0.2-0.2,0.3-0.3L3.7,45L3,45.4
			c-0.1-0.1-0.2-0.2-0.3-0.3L2.5,45l-0.2,0.3l0.2,0.1c0.1,0,0.1,0.1,0.2,0.1L2.2,46l0.2,0.3L2.9,46c0,0.1,0,0.2,0,0.2v0.2h0.4v-0.2
			c0-0.1,0-0.3-0.1-0.4l0.7-0.4v0.8c-0.1,0-0.3,0.1-0.4,0.2l-0.2,0.1l0.2,0.3l0.2-0.1c0.1,0,0.1-0.1,0.2-0.1v0.5h0.4v-0.5
			c0.1,0,0.1,0,0.2,0.1l0.1,0l0.2-0.3l-0.2-0.1c-0.1-0.1-0.3-0.1-0.4-0.2v-0.8l0.7,0.4c-0.1,0.1-0.1,0.3-0.1,0.4v0.2h0.4v-0.2
			c0-0.1,0-0.2,0-0.2l0.5,0.3l0.2-0.3l-0.5-0.3C5.4,45.6,5.5,45.6,5.6,45.5z"/>
	</g>
	<g>
		
			<linearGradient id="SVGID_5_" gradientUnits="userSpaceOnUse" x1="6.9704" y1="41.1308" x2="10.8834" y2="41.1308" gradientTransform="matrix(1 0 0 1 0 4)">
			<stop  offset="0" style="stop-color:#D300FF"/>
			<stop  offset="0.8565" style="stop-color:#42FFFF"/>
		</linearGradient>
		<path class="st5" d="M10.4,45.5l0.2-0.1l-0.2-0.3l-0.2,0.1c-0.1,0.1-0.2,0.2-0.3,0.3L9.2,45l0.7-0.4c0.1,0.1,0.2,0.2,0.3,0.3h0.2
			l0.2-0.3l-0.2-0.1c-0.1,0-0.1-0.1-0.2-0.1l0.5-0.3l-0.2-0.3L10,44.1c0-0.1,0-0.2,0-0.2v-0.2H9.6v0.2c0,0.1,0,0.3,0.1,0.4l-0.6,0.5
			V44c0.1,0,0.3-0.1,0.4-0.2l0.2-0.1l-0.2-0.3l-0.2,0.1c-0.1,0-0.1,0.1-0.2,0.1v-0.5H8.7v0.5c-0.1,0-0.1,0-0.2-0.1l-0.2-0.1
			l-0.2,0.3l0.3,0.1c0.1,0.1,0.3,0.1,0.4,0.2v0.8l-0.7-0.4c0.1-0.1,0.1-0.3,0.1-0.4v-0.2H7.7V44c0,0.1,0,0.2,0,0.2l-0.5-0.3L7,44.2
			l0.6,0.3c-0.1,0-0.1,0.1-0.2,0.1l-0.2,0.1L7.4,45l0.2-0.1c0-0.1,0.1-0.2,0.2-0.3L8.5,45l-0.7,0.4c-0.1-0.2-0.2-0.3-0.2-0.3L7.4,45
			l-0.2,0.3l0.2,0.1c0.1,0,0.1,0.1,0.2,0.1L7.1,46l0.2,0.3L7.8,46c0,0.1,0,0.2,0,0.2v0.2h0.4v-0.2c0-0.1,0-0.3-0.1-0.4l0.7-0.4v0.8
			c-0.1,0-0.3,0.1-0.4,0.2l-0.2,0.1l0.2,0.3l0.2-0.1c0.1,0,0.1-0.1,0.2-0.1v0.5h0.4v-0.5c0.1,0,0.1,0,0.2,0.1l0.2,0.1l0.2-0.3
			l-0.2-0.1c-0.1-0.1-0.3-0.1-0.4-0.2v-0.8l0.7,0.4c-0.1,0.1-0.1,0.3-0.1,0.4v0.2h0.4v-0.2c0-0.1,0-0.2,0-0.2l0.5,0.3l0.2-0.3
			l-0.5-0.3C10.3,45.6,10.3,45.6,10.4,45.5z"/>
		<path class="st4" d="M10.4,45.5l0.2-0.1l-0.2-0.3l-0.2,0.1c-0.1,0.1-0.2,0.2-0.3,0.3L9.2,45l0.7-0.4c0.1,0.1,0.2,0.2,0.3,0.3h0.2
			l0.2-0.3l-0.2-0.1c-0.1,0-0.1-0.1-0.2-0.1l0.5-0.3l-0.2-0.3L10,44.1c0-0.1,0-0.2,0-0.2v-0.2H9.6v0.2c0,0.1,0,0.3,0.1,0.4l-0.6,0.5
			V44c0.1,0,0.3-0.1,0.4-0.2l0.2-0.1l-0.2-0.3l-0.2,0.1c-0.1,0-0.1,0.1-0.2,0.1v-0.5H8.7v0.5c-0.1,0-0.1,0-0.2-0.1l-0.2-0.1
			l-0.2,0.3l0.3,0.1c0.1,0.1,0.3,0.1,0.4,0.2v0.8l-0.7-0.4c0.1-0.1,0.1-0.3,0.1-0.4v-0.2H7.7V44c0,0.1,0,0.2,0,0.2l-0.5-0.3L7,44.2
			l0.6,0.3c-0.1,0-0.1,0.1-0.2,0.1l-0.2,0.1L7.4,45l0.2-0.1c0-0.1,0.1-0.2,0.2-0.3L8.5,45l-0.7,0.4c-0.1-0.2-0.2-0.3-0.2-0.3L7.4,45
			l-0.2,0.3l0.2,0.1c0.1,0,0.1,0.1,0.2,0.1L7.1,46l0.2,0.3L7.8,46c0,0.1,0,0.2,0,0.2v0.2h0.4v-0.2c0-0.1,0-0.3-0.1-0.4l0.7-0.4v0.8
			c-0.1,0-0.3,0.1-0.4,0.2l-0.2,0.1l0.2,0.3l0.2-0.1c0.1,0,0.1-0.1,0.2-0.1v0.5h0.4v-0.5c0.1,0,0.1,0,0.2,0.1l0.2,0.1l0.2-0.3
			l-0.2-0.1c-0.1-0.1-0.3-0.1-0.4-0.2v-0.8l0.7,0.4c-0.1,0.1-0.1,0.3-0.1,0.4v0.2h0.4v-0.2c0-0.1,0-0.2,0-0.2l0.5,0.3l0.2-0.3
			l-0.5-0.3C10.3,45.6,10.3,45.6,10.4,45.5z"/>
	</g>
	
		<linearGradient id="SVGID_6_" gradientUnits="userSpaceOnUse" x1="-5.3538" y1="24.628" x2="-13.3747" y2="18.8013" gradientTransform="matrix(1.0578 -0.174 0.1623 0.9867 -4.5169 8.078986e-002)">
		<stop  offset="0" style="stop-color:#D300FF"/>
		<stop  offset="0.8565" style="stop-color:#42FFFF"/>
	</linearGradient>
	<path class="st6" d="M-10.9,23.8c-0.3-2.1,0.9-4.1,2.8-4.9c-0.7-0.1-1.4-0.1-2.1,0.1c-2.7,0.6-4.5,3.1-4.2,5.7
		c0.4,2.8,3.2,4.7,6.1,4.2c1.1-0.2,2-0.6,2.8-1.3C-8,27.9-10.5,26.3-10.9,23.8z"/>
</g>
</svg>
