<?xml version="1.0" encoding="utf-8"?>
<!-- Generator: Adobe Illustrator 19.0.0, SVG Export Plug-In . SVG Version: 6.00 Build 0)  -->
<svg version="1.1" id="Capa_1" xmlns="http://www.w3.org/2000/svg" xmlns:xlink="http://www.w3.org/1999/xlink" x="0px" y="0px"
	 viewBox="-15 17 32 32" style="enable-background:new -15 17 32 32;" xml:space="preserve">
<style type="text/css">
	.st0{fill:#47C3C9;stroke:url(#SVGID_1_);stroke-width:0.5;stroke-miterlimit:10;}
	.st1{fill:none;stroke:url(#SVGID_2_);stroke-width:0.25;stroke-miterlimit:10;}
	.st2{fill:#193372;}
	.st3{fill:none;stroke:url(#SVGID_3_);stroke-width:0.25;stroke-miterlimit:10;}
	.st4{fill:url(#SVGID_4_);}
</style>
<g>
	<g>
		
			<linearGradient id="SVGID_1_" gradientUnits="userSpaceOnUse" x1="11.0906" y1="24.9863" x2="-5.1601" y2="41.5101" gradientTransform="matrix(0.9997 -2.626982e-002 -2.626982e-002 -0.9997 0.7805 69.6263)">
			<stop  offset="0" style="stop-color:#D300FF"/>
			<stop  offset="0.8565" style="stop-color:#42FFFF"/>
		</linearGradient>
		<path class="st0" d="M15.8,37.6c0.1-2.4-1.8-4.5-4.3-4.5c-0.1,0-0.2,0-0.4,0c0.5-0.9,0.7-1.8,0.8-2.9c0.1-3.6-2.7-6.6-6.3-6.7
			c-3.1-0.1-5.8,2.1-6.5,5.1C-5.4,27-8.6,31-8.2,34.1c-2.3-0.2-3.8,1.6-3.9,3.6c-0.1,1.8,1,3.4,2.5,4.1l0,0l0,0
			c0.5,0.2,1.1,0.4,1.7,0.4l20.4-0.5C14.3,41.2,15.7,39.6,15.8,37.6z"/>
	</g>
	<g>
		
			<linearGradient id="SVGID_2_" gradientUnits="userSpaceOnUse" x1="-1.9927" y1="41.5641" x2="1.9203" y2="41.5641" gradientTransform="matrix(1 0 0 1 0 4)">
			<stop  offset="0" style="stop-color:#D300FF"/>
			<stop  offset="0.8565" style="stop-color:#42FFFF"/>
		</linearGradient>
		<path class="st1" d="M1.5,46l0.2-0.1l-0.2-0.3l-0.2,0.1C1.2,45.8,1.1,45.9,1,46l-0.7-0.5L1,45.1c0.1,0.2,0.2,0.3,0.3,0.4h0.2
			l0.2-0.3l-0.2-0.1c-0.1,0-0.1-0.1-0.2-0.1l0.5-0.3l-0.2-0.3l-0.5,0.3c0-0.1,0-0.2,0-0.2v-0.2H0.8v0.2c0,0.1,0,0.3,0.1,0.4
			l-0.8,0.4v-0.8c0.1,0,0.3-0.1,0.4-0.2l0.2-0.1l-0.2-0.3L0.3,44c-0.1,0-0.1,0.1-0.2,0.1v-0.5h-0.3v0.5c-0.1,0-0.1,0-0.2-0.1
			l-0.2-0.1l-0.2,0.3l0.2,0.1c0.1,0.1,0.3,0.1,0.4,0.2v0.8l-0.7-0.4c0-0.1,0-0.2,0-0.3v-0.2h-0.4v0.2c0,0.1,0,0.2,0,0.2l-0.5-0.3
			l-0.1,0.2l0.5,0.3c-0.1,0-0.1,0.1-0.2,0.1l-0.2,0.1l0.2,0.3l0.2-0.1c0.1-0.1,0.2-0.2,0.3-0.3l0.7,0.4l-0.7,0.4
			c-0.1-0.1-0.2-0.2-0.3-0.3l-0.2-0.1l-0.2,0.3l0.2,0.1c0.1,0,0.1,0.1,0.2,0.1l-0.5,0.4l0.2,0.3l0.5-0.3c0,0.1,0,0.2,0,0.2v0.2h0.3
			v-0.2c0-0.1,0-0.3-0.1-0.4l0.7-0.4v0.8c-0.1,0-0.3,0.1-0.4,0.2l-0.2,0.1l0.2,0.3l0.2-0.1c0.1,0,0.1-0.1,0.2-0.1v0.5h0.4V47
			c0.1,0,0.1,0,0.2,0.1l0.2,0.1l0.2-0.3l-0.2-0.1c-0.1-0.1-0.3-0.1-0.4-0.2v-0.8l0.7,0.4c-0.1,0.1-0.1,0.3-0.1,0.4v0.2h0.4v-0.2
			c0-0.1,0-0.2,0-0.2l0.5,0.3l0.2-0.3l-0.5-0.3C1.3,46.1,1.4,46.1,1.5,46z"/>
		<path class="st2" d="M1.5,46l0.2-0.1l-0.2-0.3l-0.2,0.1C1.2,45.8,1.1,45.9,1,46l-0.7-0.5L1,45.1c0.1,0.2,0.2,0.3,0.3,0.4h0.2
			l0.2-0.3l-0.2-0.1c-0.1,0-0.1-0.1-0.2-0.1l0.5-0.3l-0.2-0.3l-0.5,0.3c0-0.1,0-0.2,0-0.2v-0.2H0.8v0.2c0,0.1,0,0.3,0.1,0.4
			l-0.8,0.4v-0.8c0.1,0,0.3-0.1,0.4-0.2l0.2-0.1l-0.2-0.3L0.3,44c-0.1,0-0.1,0.1-0.2,0.1v-0.5h-0.3v0.5c-0.1,0-0.1,0-0.2-0.1
			l-0.2-0.1l-0.2,0.3l0.2,0.1c0.1,0.1,0.3,0.1,0.4,0.2v0.8l-0.7-0.4c0-0.1,0-0.2,0-0.3v-0.2h-0.4v0.2c0,0.1,0,0.2,0,0.2l-0.5-0.3
			l-0.1,0.2l0.5,0.3c-0.1,0-0.1,0.1-0.2,0.1l-0.2,0.1l0.2,0.3l0.2-0.1c0.1-0.1,0.2-0.2,0.3-0.3l0.7,0.4l-0.7,0.4
			c-0.1-0.1-0.2-0.2-0.3-0.3l-0.2-0.1l-0.2,0.3l0.2,0.1c0.1,0,0.1,0.1,0.2,0.1l-0.5,0.4l0.2,0.3l0.5-0.3c0,0.1,0,0.2,0,0.2v0.2h0.3
			v-0.2c0-0.1,0-0.3-0.1-0.4l0.7-0.4v0.8c-0.1,0-0.3,0.1-0.4,0.2l-0.2,0.1l0.2,0.3l0.2-0.1c0.1,0,0.1-0.1,0.2-0.1v0.5h0.4V47
			c0.1,0,0.1,0,0.2,0.1l0.2,0.1l0.2-0.3l-0.2-0.1c-0.1-0.1-0.3-0.1-0.4-0.2v-0.8l0.7,0.4c-0.1,0.1-0.1,0.3-0.1,0.4v0.2h0.4v-0.2
			c0-0.1,0-0.2,0-0.2l0.5,0.3l0.2-0.3l-0.5-0.3C1.3,46.1,1.4,46.1,1.5,46z"/>
	</g>
	<g>
		
			<linearGradient id="SVGID_3_" gradientUnits="userSpaceOnUse" x1="2.8625" y1="41.5641" x2="6.7755" y2="41.5641" gradientTransform="matrix(1 0 0 1 0 4)">
			<stop  offset="0" style="stop-color:#D300FF"/>
			<stop  offset="0.8565" style="stop-color:#42FFFF"/>
		</linearGradient>
		<path class="st3" d="M6.3,46l0.2-0.1l-0.2-0.3l-0.2,0.1C6,45.8,5.9,45.9,5.8,46l-0.7-0.5l0.7-0.4c0.2,0.2,0.3,0.3,0.4,0.4h0.2
			l0.2-0.3l-0.2-0.1c-0.1,0-0.1-0.1-0.2-0.1l0.5-0.3l-0.2-0.3L6,44.7c0-0.1,0-0.2,0-0.2v-0.2H5.6v0.2c0,0.1,0,0.3,0.1,0.4L5,45.3
			v-0.8c0.1,0,0.3-0.1,0.4-0.2l0.2-0.1l-0.2-0.3L5.2,44c-0.1,0-0.1,0.1-0.2,0.1v-0.5H4.6v0.5c-0.1,0-0.1,0-0.2-0.1l-0.2-0.1
			l-0.1,0.3l0.2,0.1c0.1,0.1,0.3,0.1,0.4,0.2v0.8L4,44.9c0.1-0.1,0.1-0.3,0.1-0.4v-0.2H3.6v0.2c0,0.1,0,0.2,0,0.2l-0.5-0.3l-0.2,0.3
			L3.4,45c-0.1,0-0.1,0.1-0.2,0.1l-0.1,0.1l0.2,0.3l0.2-0.1c0.1-0.1,0.2-0.2,0.3-0.3l0.7,0.4l-0.7,0.4c-0.1-0.1-0.2-0.2-0.3-0.3
			l-0.2-0.1l-0.2,0.2l0.2,0.1c0.1,0,0.1,0.1,0.2,0.1L3,46.4l0.2,0.3l0.5-0.3c0,0.1,0,0.2,0,0.2v0.2h0.4v-0.2c0-0.1,0-0.3-0.1-0.4
			l0.7-0.4v0.8c-0.1,0-0.3,0.1-0.4,0.2l-0.2,0.1l0.2,0.3l0.2-0.1c0.1,0,0.1-0.1,0.2-0.1v0.5h0.4V47c0.1,0,0.1,0,0.2,0.1l0.2,0.1
			l0.2-0.3l-0.2-0.1c-0.1-0.1-0.3-0.1-0.4-0.2v-0.8l0.7,0.4c-0.1,0.1-0.1,0.3-0.1,0.4v0.2h0.4v-0.2c0-0.1,0-0.2,0-0.2l0.5,0.3
			l0.2-0.3l-0.5-0.3C6.2,46.1,6.2,46.1,6.3,46z"/>
		<path class="st2" d="M6.3,46l0.2-0.1l-0.2-0.3l-0.2,0.1C6,45.8,5.9,45.9,5.8,46l-0.7-0.5l0.7-0.4c0.2,0.2,0.3,0.3,0.4,0.4h0.2
			l0.2-0.3l-0.2-0.1c-0.1,0-0.1-0.1-0.2-0.1l0.5-0.3l-0.2-0.3L6,44.7c0-0.1,0-0.2,0-0.2v-0.2H5.6v0.2c0,0.1,0,0.3,0.1,0.4L5,45.3
			v-0.8c0.1,0,0.3-0.1,0.4-0.2l0.2-0.1l-0.2-0.3L5.2,44c-0.1,0-0.1,0.1-0.2,0.1v-0.5H4.6v0.5c-0.1,0-0.1,0-0.2-0.1l-0.2-0.1
			l-0.1,0.3l0.2,0.1c0.1,0.1,0.3,0.1,0.4,0.2v0.8L4,44.9c0.1-0.1,0.1-0.3,0.1-0.4v-0.2H3.6v0.2c0,0.1,0,0.2,0,0.2l-0.5-0.3l-0.2,0.3
			L3.4,45c-0.1,0-0.1,0.1-0.2,0.1l-0.1,0.1l0.2,0.3l0.2-0.1c0.1-0.1,0.2-0.2,0.3-0.3l0.7,0.4l-0.7,0.4c-0.1-0.1-0.2-0.2-0.3-0.3
			l-0.2-0.1l-0.2,0.2l0.2,0.1c0.1,0,0.1,0.1,0.2,0.1L3,46.4l0.2,0.3l0.5-0.3c0,0.1,0,0.2,0,0.2v0.2h0.4v-0.2c0-0.1,0-0.3-0.1-0.4
			l0.7-0.4v0.8c-0.1,0-0.3,0.1-0.4,0.2l-0.2,0.1l0.2,0.3l0.2-0.1c0.1,0,0.1-0.1,0.2-0.1v0.5h0.4V47c0.1,0,0.1,0,0.2,0.1l0.2,0.1
			l0.2-0.3l-0.2-0.1c-0.1-0.1-0.3-0.1-0.4-0.2v-0.8l0.7,0.4c-0.1,0.1-0.1,0.3-0.1,0.4v0.2h0.4v-0.2c0-0.1,0-0.2,0-0.2l0.5,0.3
			l0.2-0.3l-0.5-0.3C6.2,46.1,6.2,46.1,6.3,46z"/>
	</g>
	
		<linearGradient id="SVGID_4_" gradientUnits="userSpaceOnUse" x1="-4.8355" y1="24.3309" x2="-12.8564" y2="18.5042" gradientTransform="matrix(1.0578 -0.174 0.1623 0.9867 -4.5169 8.078986e-002)">
		<stop  offset="0" style="stop-color:#D300FF"/>
		<stop  offset="0.8565" style="stop-color:#42FFFF"/>
	</linearGradient>
	<path class="st4" d="M-10.4,23.5c-0.3-2.1,0.9-4.1,2.8-4.9c-0.7-0.1-1.4-0.1-2.1,0.1c-2.7,0.6-4.5,3.1-4.2,5.7
		c0.4,2.8,3.2,4.7,6.1,4.2c1.1-0.2,2-0.6,2.8-1.3C-7.5,27.6-10,25.9-10.4,23.5z"/>
</g>
</svg>
