<?xml version="1.0" encoding="utf-8"?>
<!-- Generator: Adobe Illustrator 19.0.0, SVG Export Plug-In . SVG Version: 6.00 Build 0)  -->
<svg version="1.1" id="Capa_1" xmlns="http://www.w3.org/2000/svg" xmlns:xlink="http://www.w3.org/1999/xlink" x="0px" y="0px"
	 viewBox="-15 17 32 32" style="enable-background:new -15 17 32 32;" xml:space="preserve">
<style type="text/css">
	.st0{fill:#47C3C9;stroke:url(#SVGID_1_);stroke-width:0.5;stroke-miterlimit:10;}
	.st1{fill:none;stroke:url(#SVGID_2_);stroke-width:0.25;stroke-miterlimit:10;}
	.st2{fill:#193372;}
	.st3{fill:none;stroke:url(#SVGID_3_);stroke-width:0.25;stroke-miterlimit:10;}
	.st4{fill:none;stroke:url(#SVGID_4_);stroke-width:0.25;stroke-miterlimit:10;}
	.st5{fill:none;stroke:url(#SVGID_5_);stroke-width:0.25;stroke-miterlimit:10;}
	.st6{fill:url(#SVGID_6_);}
</style>
<g>
	<g>
		
			<linearGradient id="SVGID_1_" gradientUnits="userSpaceOnUse" x1="11.2586" y1="25.0319" x2="-4.9921" y2="41.5557" gradientTransform="matrix(0.9997 -2.626982e-002 -2.626982e-002 -0.9997 0.7805 69.6263)">
			<stop  offset="0" style="stop-color:#D300FF"/>
			<stop  offset="0.8565" style="stop-color:#42FFFF"/>
		</linearGradient>
		<path class="st0" d="M16,37.6c0.1-2.4-1.8-4.5-4.3-4.5c-0.1,0-0.2,0-0.4,0c0.5-0.9,0.7-1.8,0.8-2.9c0.1-3.6-2.7-6.6-6.3-6.7
			c-3.1-0.1-5.8,2.1-6.5,5.1C-5.2,27-8.4,31-8,34.1c-2.3-0.2-3.8,1.6-3.9,3.6c-0.1,1.8,1,3.4,2.5,4.1l0,0l0,0
			c0.5,0.2,1.1,0.4,1.7,0.4l20.4-0.5C14.5,41.2,15.9,39.6,16,37.6z"/>
	</g>
	<g>
		
			<linearGradient id="SVGID_2_" gradientUnits="userSpaceOnUse" x1="-6.3885" y1="41.5641" x2="-2.4755" y2="41.5641" gradientTransform="matrix(1 0 0 1 0 4)">
			<stop  offset="0" style="stop-color:#D300FF"/>
			<stop  offset="0.8565" style="stop-color:#42FFFF"/>
		</linearGradient>
		<path class="st1" d="M-2.9,46l0.2-0.1l-0.2-0.3l-0.2,0.1c-0.1,0.1-0.2,0.2-0.3,0.3l-0.7-0.5l0.7-0.4c0.1,0.1,0.2,0.2,0.3,0.3h0.2
			l0.2-0.3L-2.9,45C-3,45-3,44.9-3.1,44.9l0.5-0.3l-0.2-0.3l-0.5,0.3c0-0.1,0-0.2,0-0.2v-0.2h-0.4v0.2c0,0.1,0,0.3,0.1,0.4l-0.6,0.5
			v-0.8c0.1,0,0.3-0.1,0.4-0.2l0.2-0.1l-0.2-0.3L-4,44c-0.1,0-0.1,0.1-0.2,0.1v-0.5h-0.4v0.5c-0.1,0-0.1,0-0.2-0.1L-5,43.9l-0.2,0.3
			l0.2,0.1c0.1,0.1,0.3,0.1,0.4,0.2v0.8l-0.7-0.4c0.1-0.1,0.1-0.3,0.1-0.4v-0.2h-0.4v0.2c0,0.1,0,0.2,0,0.2l-0.5-0.3l-0.2,0.3
			l0.5,0.3c-0.1,0-0.1,0.1-0.2,0.1l-0.2,0.1l0.2,0.3l0.2-0.1c0.1-0.1,0.2-0.2,0.3-0.3l0.7,0.4l-0.7,0.4c-0.1-0.1-0.2-0.2-0.3-0.3
			L-6,45.5l-0.2,0.3l0.2,0.1c0.1,0,0.1,0.1,0.2,0.1l-0.5,0.5l0.2,0.3l0.5-0.3c0,0.1,0,0.2,0,0.2v0.2h0.4v-0.2c0-0.1,0-0.3-0.1-0.4
			l0.7-0.4v0.8c-0.1,0-0.3,0.1-0.4,0.2L-5.2,47l0.2,0.3l0.2-0.1c0.1,0,0.1-0.1,0.2-0.1v0.5h0.4v-0.5c0.1,0,0.1,0,0.2,0.1l0.2,0.1
			l0.2-0.3l-0.2-0.1c-0.1-0.1-0.3-0.1-0.4-0.2v-0.8l0.7,0.4c-0.1,0.1-0.1,0.3-0.1,0.4v0.2h0.4v-0.2c0-0.1,0-0.2,0-0.2l0.5,0.3
			l0.2-0.3L-3,46.2C-3.1,46.1-3,46.1-2.9,46z"/>
		<path class="st2" d="M-2.9,46l0.2-0.1l-0.2-0.3l-0.2,0.1c-0.1,0.1-0.2,0.2-0.3,0.3l-0.7-0.5l0.7-0.4c0.1,0.1,0.2,0.2,0.3,0.3h0.2
			l0.2-0.3L-2.9,45C-3,45-3,44.9-3.1,44.9l0.5-0.3l-0.2-0.3l-0.5,0.3c0-0.1,0-0.2,0-0.2v-0.2h-0.4v0.2c0,0.1,0,0.3,0.1,0.4l-0.6,0.5
			v-0.8c0.1,0,0.3-0.1,0.4-0.2l0.2-0.1l-0.2-0.3L-4,44c-0.1,0-0.1,0.1-0.2,0.1v-0.5h-0.4v0.5c-0.1,0-0.1,0-0.2-0.1L-5,43.9l-0.2,0.3
			l0.2,0.1c0.1,0.1,0.3,0.1,0.4,0.2v0.8l-0.7-0.4c0.1-0.1,0.1-0.3,0.1-0.4v-0.2h-0.4v0.2c0,0.1,0,0.2,0,0.2l-0.5-0.3l-0.2,0.3
			l0.5,0.3c-0.1,0-0.1,0.1-0.2,0.1l-0.2,0.1l0.2,0.3l0.2-0.1c0.1-0.1,0.2-0.2,0.3-0.3l0.7,0.4l-0.7,0.4c-0.1-0.1-0.2-0.2-0.3-0.3
			L-6,45.5l-0.2,0.3l0.2,0.1c0.1,0,0.1,0.1,0.2,0.1l-0.5,0.5l0.2,0.3l0.5-0.3c0,0.1,0,0.2,0,0.2v0.2h0.4v-0.2c0-0.1,0-0.3-0.1-0.4
			l0.7-0.4v0.8c-0.1,0-0.3,0.1-0.4,0.2L-5.2,47l0.2,0.3l0.2-0.1c0.1,0,0.1-0.1,0.2-0.1v0.5h0.4v-0.5c0.1,0,0.1,0,0.2,0.1l0.2,0.1
			l0.2-0.3l-0.2-0.1c-0.1-0.1-0.3-0.1-0.4-0.2v-0.8l0.7,0.4c-0.1,0.1-0.1,0.3-0.1,0.4v0.2h0.4v-0.2c0-0.1,0-0.2,0-0.2l0.5,0.3
			l0.2-0.3L-3,46.2C-3.1,46.1-3,46.1-2.9,46z"/>
	</g>
	<g>
		
			<linearGradient id="SVGID_3_" gradientUnits="userSpaceOnUse" x1="-1.5333" y1="41.5141" x2="2.3797" y2="41.5141" gradientTransform="matrix(1 0 0 1 0 4)">
			<stop  offset="0" style="stop-color:#D300FF"/>
			<stop  offset="0.8565" style="stop-color:#42FFFF"/>
		</linearGradient>
		<path class="st3" d="M2,46l0.2-0.1L2,45.6l-0.2,0.1c-0.1,0.1-0.2,0.2-0.3,0.3l-0.7-0.5l0.7-0.4c0.1,0.1,0.2,0.2,0.3,0.3H2l0.2-0.3
			L2,45c-0.1,0-0.1-0.1-0.2-0.1l0.5-0.3l-0.2-0.3l-0.5,0.3c0-0.1,0-0.2,0-0.2v-0.2H1.2v0.2c0,0.1,0,0.3,0.1,0.4l-0.7,0.5v-0.8
			c0.1,0,0.3-0.1,0.4-0.2l0.2-0.1L1,43.9L0.8,44c-0.1,0-0.1,0.1-0.2,0.1v-0.5H0.3v0.5c-0.1,0-0.1,0-0.2-0.1l-0.2-0.1l-0.2,0.3
			l0.2,0.1c0.1,0.1,0.3,0.1,0.4,0.2v0.8l-0.7-0.4c0.1-0.1,0.1-0.3,0.1-0.4v-0.2h-0.4v0.2c0,0.1,0,0.2,0,0.2l-0.5-0.3l-0.2,0.3
			l0.5,0.3C-1,45-1,45.1-1.1,45.1l-0.2,0.1l0.2,0.3l0.2-0.1c0.1-0.1,0.2-0.2,0.3-0.3l0.7,0.4l-0.7,0.4c-0.1-0.1-0.2-0.2-0.3-0.3
			l-0.2-0.1l-0.2,0.3l0.2,0.1C-1,45.9-1,46-0.9,46l-0.5,0.5l0.2,0.3l0.5-0.4c0,0.1,0,0.2,0,0.2v0.2h0.4v-0.2c0-0.1,0-0.3-0.1-0.4
			l0.7-0.4v0.8c-0.1,0-0.3,0.1-0.4,0.2l-0.2,0.1l0.2,0.3l0.2-0.1c0.1,0,0.1-0.1,0.2-0.1v0.5h0.4V47c0.1,0,0.1,0,0.2,0.1l0.2,0.1
			l0.2-0.3l-0.2-0.1c-0.1-0.1-0.3-0.1-0.4-0.2v-0.8l0.6,0.4c-0.1,0.1-0.1,0.3-0.1,0.4v0.2h0.4v-0.2c0-0.1,0-0.2,0-0.2l0.5,0.3
			l0.2-0.3l-0.5-0.3C1.8,46.1,1.9,46.1,2,46z"/>
		<path class="st2" d="M2,46l0.2-0.1L2,45.6l-0.2,0.1c-0.1,0.1-0.2,0.2-0.3,0.3l-0.7-0.5l0.7-0.4c0.1,0.1,0.2,0.2,0.3,0.3H2l0.2-0.3
			L2,45c-0.1,0-0.1-0.1-0.2-0.1l0.5-0.3l-0.2-0.3l-0.5,0.3c0-0.1,0-0.2,0-0.2v-0.2H1.2v0.2c0,0.1,0,0.3,0.1,0.4l-0.7,0.5v-0.8
			c0.1,0,0.3-0.1,0.4-0.2l0.2-0.1L1,43.9L0.8,44c-0.1,0-0.1,0.1-0.2,0.1v-0.5H0.3v0.5c-0.1,0-0.1,0-0.2-0.1l-0.2-0.1l-0.2,0.3
			l0.2,0.1c0.1,0.1,0.3,0.1,0.4,0.2v0.8l-0.7-0.4c0.1-0.1,0.1-0.3,0.1-0.4v-0.2h-0.4v0.2c0,0.1,0,0.2,0,0.2l-0.5-0.3l-0.2,0.3
			l0.5,0.3C-1,45-1,45.1-1.1,45.1l-0.2,0.1l0.2,0.3l0.2-0.1c0.1-0.1,0.2-0.2,0.3-0.3l0.7,0.4l-0.7,0.4c-0.1-0.1-0.2-0.2-0.3-0.3
			l-0.2-0.1l-0.2,0.3l0.2,0.1C-1,45.9-1,46-0.9,46l-0.5,0.5l0.2,0.3l0.5-0.4c0,0.1,0,0.2,0,0.2v0.2h0.4v-0.2c0-0.1,0-0.3-0.1-0.4
			l0.7-0.4v0.8c-0.1,0-0.3,0.1-0.4,0.2l-0.2,0.1l0.2,0.3l0.2-0.1c0.1,0,0.1-0.1,0.2-0.1v0.5h0.4V47c0.1,0,0.1,0,0.2,0.1l0.2,0.1
			l0.2-0.3l-0.2-0.1c-0.1-0.1-0.3-0.1-0.4-0.2v-0.8l0.6,0.4c-0.1,0.1-0.1,0.3-0.1,0.4v0.2h0.4v-0.2c0-0.1,0-0.2,0-0.2l0.5,0.3
			l0.2-0.3l-0.5-0.3C1.8,46.1,1.9,46.1,2,46z"/>
	</g>
	<g>
		
			<linearGradient id="SVGID_4_" gradientUnits="userSpaceOnUse" x1="2.8119" y1="41.5641" x2="6.7249" y2="41.5641" gradientTransform="matrix(1 0 0 1 0 4)">
			<stop  offset="0" style="stop-color:#D300FF"/>
			<stop  offset="0.8565" style="stop-color:#42FFFF"/>
		</linearGradient>
		<path class="st4" d="M6.3,46l0.2-0.1l-0.2-0.3l-0.2,0.1C6,45.8,5.9,45.9,5.8,46l-0.7-0.5l0.7-0.4c0.1,0.1,0.2,0.2,0.3,0.3h0.2
			l0.2-0.3l-0.2,0c-0.1,0-0.1-0.1-0.2-0.1l0.5-0.3l-0.2-0.3l-0.5,0.3c0-0.1,0-0.2,0-0.2v-0.2H5.6v0.2c0,0.1,0,0.3,0.1,0.4L5,45.3
			v-0.8c0.1,0,0.3-0.1,0.4-0.2l0.2-0.1l-0.3-0.3L5.1,44C5,44,5,44.1,4.9,44.1v-0.5H4.6v0.5c-0.1,0-0.1,0-0.2-0.1l-0.2-0.1L4,44.2
			l0.2,0.1c0.1,0.1,0.3,0.1,0.4,0.2v0.8l-0.7-0.4C4,44.8,4,44.6,4,44.5v-0.2H3.6v0.2c0,0.1,0,0.2,0,0.2l-0.5-0.3l-0.2,0.3L3.4,45
			c-0.1,0-0.1,0.1-0.2,0.1L3,45.2l0.2,0.3l0.2-0.1c0.1-0.1,0.2-0.2,0.3-0.3l0.7,0.4l-0.7,0.4c-0.1-0.1-0.2-0.2-0.3-0.3l-0.2-0.1
			L3,45.8l0.2,0.1c0.1,0,0.1,0.1,0.2,0.1l-0.5,0.5l0.2,0.3l0.5-0.3c0,0.1,0,0.2,0,0.2v0.2H4v-0.2c0-0.1,0-0.3-0.1-0.4l0.7-0.4v0.8
			c-0.1,0-0.3,0.1-0.4,0.2L4,47l0.2,0.3l0.2-0.1c0.1,0,0.1-0.1,0.2-0.1v0.5H5v-0.5c0.1,0,0.1,0,0.2,0.1l0.1,0l0.2-0.3l-0.2-0.1
			c-0.1-0.1-0.3-0.1-0.4-0.2v-0.8l0.7,0.4c-0.1,0.1-0.1,0.3-0.1,0.4v0.2h0.4v-0.2c0-0.1,0-0.2,0-0.2l0.5,0.3l0.2-0.3l-0.5-0.3
			C6.1,46.1,6.2,46.1,6.3,46z"/>
		<path class="st2" d="M6.3,46l0.2-0.1l-0.2-0.3l-0.2,0.1C6,45.8,5.9,45.9,5.8,46l-0.7-0.5l0.7-0.4c0.1,0.1,0.2,0.2,0.3,0.3h0.2
			l0.2-0.3l-0.2,0c-0.1,0-0.1-0.1-0.2-0.1l0.5-0.3l-0.2-0.3l-0.5,0.3c0-0.1,0-0.2,0-0.2v-0.2H5.6v0.2c0,0.1,0,0.3,0.1,0.4L5,45.3
			v-0.8c0.1,0,0.3-0.1,0.4-0.2l0.2-0.1l-0.3-0.3L5.1,44C5,44,5,44.1,4.9,44.1v-0.5H4.6v0.5c-0.1,0-0.1,0-0.2-0.1l-0.2-0.1L4,44.2
			l0.2,0.1c0.1,0.1,0.3,0.1,0.4,0.2v0.8l-0.7-0.4C4,44.8,4,44.6,4,44.5v-0.2H3.6v0.2c0,0.1,0,0.2,0,0.2l-0.5-0.3l-0.2,0.3L3.4,45
			c-0.1,0-0.1,0.1-0.2,0.1L3,45.2l0.2,0.3l0.2-0.1c0.1-0.1,0.2-0.2,0.3-0.3l0.7,0.4l-0.7,0.4c-0.1-0.1-0.2-0.2-0.3-0.3l-0.2-0.1
			L3,45.8l0.2,0.1c0.1,0,0.1,0.1,0.2,0.1l-0.5,0.5l0.2,0.3l0.5-0.3c0,0.1,0,0.2,0,0.2v0.2H4v-0.2c0-0.1,0-0.3-0.1-0.4l0.7-0.4v0.8
			c-0.1,0-0.3,0.1-0.4,0.2L4,47l0.2,0.3l0.2-0.1c0.1,0,0.1-0.1,0.2-0.1v0.5H5v-0.5c0.1,0,0.1,0,0.2,0.1l0.1,0l0.2-0.3l-0.2-0.1
			c-0.1-0.1-0.3-0.1-0.4-0.2v-0.8l0.7,0.4c-0.1,0.1-0.1,0.3-0.1,0.4v0.2h0.4v-0.2c0-0.1,0-0.2,0-0.2l0.5,0.3l0.2-0.3l-0.5-0.3
			C6.1,46.1,6.2,46.1,6.3,46z"/>
	</g>
	<g>
		
			<linearGradient id="SVGID_5_" gradientUnits="userSpaceOnUse" x1="7.6672" y1="41.5641" x2="11.5801" y2="41.5641" gradientTransform="matrix(1 0 0 1 0 4)">
			<stop  offset="0" style="stop-color:#D300FF"/>
			<stop  offset="0.8565" style="stop-color:#42FFFF"/>
		</linearGradient>
		<path class="st5" d="M11.2,46l0.2-0.1l-0.2-0.3L11,45.7c-0.1,0.1-0.2,0.2-0.3,0.3L10,45.5l0.7-0.4c0.1,0.1,0.2,0.2,0.3,0.3h0.2
			l0.2-0.3L11.2,45c-0.1,0-0.1-0.1-0.2-0.1l0.5-0.3l-0.2-0.1l-0.5,0.3c0-0.1,0-0.2,0-0.2v-0.2h-0.4v0.2c0,0.1,0,0.3,0.1,0.4
			l-0.7,0.3v-0.8c0.1,0,0.3-0.1,0.4-0.2l0.2-0.1l-0.2-0.3L10,44c-0.1,0-0.1,0.1-0.2,0.1v-0.5H9.4v0.5c-0.1,0-0.1,0-0.2-0.1L9,43.9
			l-0.2,0.3l0.3,0.1c0.1,0.1,0.3,0.1,0.4,0.2v0.8l-0.7-0.4c0.1-0.1,0.1-0.3,0.1-0.4v-0.2H8.5v0.2c0,0.1,0,0.2,0,0.2L8,44.4l-0.2,0.3
			L8.3,45c-0.1,0-0.1,0.1-0.2,0.1l-0.2,0.1l0.2,0.3l0.2-0.1c0.1-0.1,0.2-0.2,0.3-0.3l0.7,0.4l-0.7,0.4c-0.1-0.1-0.2-0.2-0.3-0.3
			l-0.2-0.1l-0.2,0.3l0.2,0.1c0.1,0,0.1,0.1,0.2,0.1l-0.5,0.5L8,46.8l0.5-0.3c0,0.1,0,0.2,0,0.2v0.2h0.4v-0.2c0-0.1,0-0.3-0.1-0.4
			l0.7-0.4v0.8c-0.1,0-0.3,0.1-0.4,0.2L8.9,47l0.2,0.3l0.2-0.1c0.1,0,0.1-0.1,0.2-0.1v0.5h0.4v-0.5c0.1,0,0.1,0,0.2,0.1l0.2,0.1
			l0.2-0.3l-0.2-0.1c-0.1-0.1-0.3-0.1-0.4-0.2v-0.8l0.7,0.4c-0.1,0.1-0.1,0.3-0.1,0.4v0.2h0.4v-0.2c0-0.1,0-0.2,0-0.2l0.5,0.3
			l0.2-0.3l-0.5-0.3C11,46.1,11.1,46.1,11.2,46z"/>
		<path class="st2" d="M11.2,46l0.2-0.1l-0.2-0.3L11,45.7c-0.1,0.1-0.2,0.2-0.3,0.3L10,45.5l0.7-0.4c0.1,0.1,0.2,0.2,0.3,0.3h0.2
			l0.2-0.3L11.2,45c-0.1,0-0.1-0.1-0.2-0.1l0.5-0.3l-0.2-0.1l-0.5,0.3c0-0.1,0-0.2,0-0.2v-0.2h-0.4v0.2c0,0.1,0,0.3,0.1,0.4
			l-0.7,0.3v-0.8c0.1,0,0.3-0.1,0.4-0.2l0.2-0.1l-0.2-0.3L10,44c-0.1,0-0.1,0.1-0.2,0.1v-0.5H9.4v0.5c-0.1,0-0.1,0-0.2-0.1L9,43.9
			l-0.2,0.3l0.3,0.1c0.1,0.1,0.3,0.1,0.4,0.2v0.8l-0.7-0.4c0.1-0.1,0.1-0.3,0.1-0.4v-0.2H8.5v0.2c0,0.1,0,0.2,0,0.2L8,44.4l-0.2,0.3
			L8.3,45c-0.1,0-0.1,0.1-0.2,0.1l-0.2,0.1l0.2,0.3l0.2-0.1c0.1-0.1,0.2-0.2,0.3-0.3l0.7,0.4l-0.7,0.4c-0.1-0.1-0.2-0.2-0.3-0.3
			l-0.2-0.1l-0.2,0.3l0.2,0.1c0.1,0,0.1,0.1,0.2,0.1l-0.5,0.5L8,46.8l0.5-0.3c0,0.1,0,0.2,0,0.2v0.2h0.4v-0.2c0-0.1,0-0.3-0.1-0.4
			l0.7-0.4v0.8c-0.1,0-0.3,0.1-0.4,0.2L8.9,47l0.2,0.3l0.2-0.1c0.1,0,0.1-0.1,0.2-0.1v0.5h0.4v-0.5c0.1,0,0.1,0,0.2,0.1l0.2,0.1
			l0.2-0.3l-0.2-0.1c-0.1-0.1-0.3-0.1-0.4-0.2v-0.8l0.7,0.4c-0.1,0.1-0.1,0.3-0.1,0.4v0.2h0.4v-0.2c0-0.1,0-0.2,0-0.2l0.5,0.3
			l0.2-0.3l-0.5-0.3C11,46.1,11.1,46.1,11.2,46z"/>
	</g>
	
		<linearGradient id="SVGID_6_" gradientUnits="userSpaceOnUse" x1="-4.9814" y1="24.2546" x2="-13.0022" y2="18.4278" gradientTransform="matrix(1.0578 -0.174 0.1623 0.9867 -4.5169 8.078986e-002)">
		<stop  offset="0" style="stop-color:#D300FF"/>
		<stop  offset="0.8565" style="stop-color:#42FFFF"/>
	</linearGradient>
	<path class="st6" d="M-10.5,23.4c-0.3-2.1,0.9-4.1,2.8-4.9c-0.7-0.1-1.4-0.1-2.1,0.1c-2.7,0.6-4.5,3.1-4.2,5.7
		c0.4,2.8,3.2,4.7,6.1,4.2c1.1-0.2,2-0.6,2.8-1.3C-7.7,27.5-10.1,25.9-10.5,23.4z"/>
</g>
</svg>
