<?xml version="1.0" encoding="utf-8"?>
<!-- Generator: Adobe Illustrator 19.0.0, SVG Export Plug-In . SVG Version: 6.00 Build 0)  -->
<svg version="1.1" id="Capa_1" xmlns="http://www.w3.org/2000/svg" xmlns:xlink="http://www.w3.org/1999/xlink" x="0px" y="0px"
	 viewBox="-15 17 32 32" style="enable-background:new -15 17 32 32;" xml:space="preserve">
<style type="text/css">
	.st0{fill:#193372;stroke:url(#SVGID_1_);stroke-width:0.5;stroke-miterlimit:10;}
	.st1{fill:url(#SVGID_2_);stroke:url(#SVGID_3_);stroke-width:0.25;stroke-miterlimit:10;}
</style>
<g>
	
		<linearGradient id="SVGID_1_" gradientUnits="userSpaceOnUse" x1="10.226" y1="39.69" x2="-6.0247" y2="23.1663" gradientTransform="matrix(0.9997 -2.626982e-002 2.626982e-002 0.9997 -0.9443 2.4342)">
		<stop  offset="0" style="stop-color:#D300FF"/>
		<stop  offset="0.8565" style="stop-color:#42FFFF"/>
	</linearGradient>
	<path class="st0" d="M15,35.1c0.1-2.4-1.8-4.5-4.3-4.5c-0.1,0-0.2,0-0.4,0c0.5-0.9,0.7-1.8,0.8-2.9c0.1-3.6-2.7-6.6-6.3-6.7
		c-3.2-0.1-5.9,2.1-6.5,5.1c-4.5-1.6-7.7,2.4-7.3,5.5c-2.3-0.2-3.8,1.6-3.9,3.6c-0.1,1.8,1,3.4,2.5,4.1l0,0l0,0
		c0.5,0.2,1.1,0.4,1.7,0.4l20.4-0.5C13.5,38.7,14.9,37.1,15,35.1z"/>
	
		<linearGradient id="SVGID_2_" gradientUnits="userSpaceOnUse" x1="-7.4499" y1="14.7702" x2="-3.0941" y2="14.7702" gradientTransform="matrix(0.9386 0.3451 -0.3451 0.9386 10.999 27.7953)">
		<stop  offset="0" style="stop-color:#D300FF"/>
		<stop  offset="0.8565" style="stop-color:#42FFFF"/>
	</linearGradient>
	
		<linearGradient id="SVGID_3_" gradientUnits="userSpaceOnUse" x1="-7.6832" y1="14.7926" x2="-2.8625" y2="14.7926" gradientTransform="matrix(0.9386 0.3451 -0.3451 0.9386 10.999 27.7953)">
		<stop  offset="0" style="stop-color:#D300FF"/>
		<stop  offset="0.8565" style="stop-color:#42FFFF"/>
	</linearGradient>
	<polygon class="st1" points="3.2,34.3 4.9,34.9 2.1,37.6 4,38 0.9,40.6 2.6,41.1 -1.2,45 -3.1,44.7 -0.2,42 -1.9,41.4 0.9,38.9 
		-0.7,38.1 	"/>
</g>
</svg>
