<?xml version="1.0" encoding="utf-8"?>
<!-- Generator: Adobe Illustrator 19.0.0, SVG Export Plug-In . SVG Version: 6.00 Build 0)  -->
<svg version="1.1" id="Capa_1" xmlns="http://www.w3.org/2000/svg" xmlns:xlink="http://www.w3.org/1999/xlink" x="0px" y="0px"
	 viewBox="-15 17 32 32" style="enable-background:new -15 17 32 32;" xml:space="preserve">
<style type="text/css">
	.st0{fill:#193372;stroke:url(#SVGID_1_);stroke-width:0.5;stroke-miterlimit:10;}
	.st1{fill:url(#SVGID_2_);stroke:url(#SVGID_3_);stroke-width:0.25;stroke-miterlimit:10;}
	.st2{fill:none;stroke:url(#SVGID_4_);stroke-width:0.25;stroke-miterlimit:10;}
	.st3{fill:#0F234C;}
</style>
<g>
	
		<linearGradient id="SVGID_1_" gradientUnits="userSpaceOnUse" x1="10.226" y1="39.69" x2="-6.0247" y2="23.1663" gradientTransform="matrix(0.9997 -2.626982e-002 2.626982e-002 0.9997 -0.9443 2.4342)">
		<stop  offset="0" style="stop-color:#D300FF"/>
		<stop  offset="0.8565" style="stop-color:#42FFFF"/>
	</linearGradient>
	<path class="st0" d="M15,35.1c0.1-2.4-1.8-4.5-4.3-4.5c-0.1,0-0.2,0-0.4,0c0.5-0.9,0.7-1.8,0.8-2.9c0.1-3.6-2.7-6.6-6.3-6.7
		c-3.2-0.1-5.9,2.1-6.5,5.1c-4.5-1.6-7.7,2.4-7.3,5.5c-2.3-0.2-3.8,1.6-3.9,3.6c-0.1,1.8,1,3.4,2.5,4.1l0,0l0,0
		c0.5,0.2,1.1,0.4,1.7,0.4l20.4-0.5C13.5,38.7,14.9,37.1,15,35.1z"/>
	
		<linearGradient id="SVGID_2_" gradientUnits="userSpaceOnUse" x1="-3.6957" y1="13.3899" x2="0.6601" y2="13.3899" gradientTransform="matrix(0.9386 0.3451 -0.3451 0.9386 10.999 27.7953)">
		<stop  offset="0" style="stop-color:#D300FF"/>
		<stop  offset="0.8565" style="stop-color:#42FFFF"/>
	</linearGradient>
	
		<linearGradient id="SVGID_3_" gradientUnits="userSpaceOnUse" x1="-3.929" y1="13.4123" x2="0.8917" y2="13.4123" gradientTransform="matrix(0.9386 0.3451 -0.3451 0.9386 10.999 27.7953)">
		<stop  offset="0" style="stop-color:#D300FF"/>
		<stop  offset="0.8565" style="stop-color:#42FFFF"/>
	</linearGradient>
	<polygon class="st1" points="7.2,34.3 8.9,34.9 6.1,37.6 8,38 4.9,40.6 6.6,41.1 2.8,45 0.9,44.7 3.8,42 2.1,41.4 4.9,38.9 
		3.3,38.1 	"/>
	<g>
		
			<linearGradient id="SVGID_4_" gradientUnits="userSpaceOnUse" x1="-6.3021" y1="36.4016" x2="0.1198" y2="36.4016" gradientTransform="matrix(1 0 0 1 0 4)">
			<stop  offset="0" style="stop-color:#D300FF"/>
			<stop  offset="0.8565" style="stop-color:#42FFFF"/>
		</linearGradient>
		<path class="st2" d="M-0.4,41.1l0.2-0.1l-0.3-0.5l-0.2,0.1c-0.2,0.1-0.4,0.2-0.5,0.4l-1.2-0.6l1.2-0.6c0.1,0.2,0.3,0.3,0.5,0.4
			l0.2,0.1l0.3-0.5l-0.2-0.2c-0.1-0.1-0.2-0.1-0.3-0.2L0,39l-0.3-0.5l-0.8,0.4c0-0.1,0-0.2,0-0.3v-0.3h-0.6v0.3c0,0.2,0,0.4,0.1,0.6
			l-1.2,0.7v-1.4c0.2,0,0.4-0.1,0.6-0.2l0.2-0.1l-0.3-0.5l-0.2,0.1c-0.1,0.1-0.2,0.1-0.3,0.1v-0.7h-0.5v0.7c-0.1,0-0.2-0.1-0.3-0.1
			l-0.2-0.1l-0.3,0.5l0.2,0.1c0.2,0.1,0.4,0.2,0.6,0.2v1.4l-1.2-0.6c0.1-0.3,0.1-0.5,0.1-0.7v-0.3H-5v0.3c0,0.1,0,0.2,0,0.3
			l-0.7-0.4L-6,39l0.7,0.4c-0.1,0.1-0.2,0.1-0.3,0.2l-0.2,0.1l0.3,0.5l0.2-0.2c0.2-0.1,0.4-0.2,0.5-0.4l1.2,0.6l-1.2,0.7
			c-0.1-0.2-0.3-0.3-0.5-0.4l-0.2-0.1l-0.4,0.5l0.2,0.2c0.1,0.1,0.2,0.1,0.3,0.2l-0.7,0.4l0.3,0.5l0.7-0.4c0,0.1,0,0.2,0,0.3v0.3
			h0.7v-0.3c0-0.2,0-0.4-0.1-0.6l1.2-0.6v1.3c-0.2,0-0.4,0.1-0.6,0.2l-0.2,0.1l0.3,0.5l0.2-0.1c0.1,0,0.2,0,0.3,0v0.7h0.5v-0.7
			c0.1,0,0.2,0.1,0.3,0.1l0.2,0.1l0.3-0.5l-0.2-0.1c-0.1-0.1-0.3-0.1-0.6-0.2v-1.4l1.2,0.6c0,0.3-0.1,0.5,0,0.7v0.3H-1v-0.3
			c0-0.1,0-0.2,0-0.3l0.6,0.3l0.3-0.5l-0.7-0.4C-0.6,41.2-0.5,41.1-0.4,41.1z"/>
		<path class="st3" d="M-0.4,41.1l0.2-0.1l-0.3-0.5l-0.2,0.1c-0.2,0.1-0.4,0.2-0.5,0.4l-1.2-0.6l1.2-0.6c0.1,0.2,0.3,0.3,0.5,0.4
			l0.2,0.1l0.3-0.5l-0.2-0.2c-0.1-0.1-0.2-0.1-0.3-0.2L0,39l-0.3-0.5l-0.8,0.4c0-0.1,0-0.2,0-0.3v-0.3h-0.6v0.3c0,0.2,0,0.4,0.1,0.6
			l-1.2,0.7v-1.4c0.2,0,0.4-0.1,0.6-0.2l0.2-0.1l-0.3-0.5l-0.2,0.1c-0.1,0.1-0.2,0.1-0.3,0.1v-0.7h-0.5v0.7c-0.1,0-0.2-0.1-0.3-0.1
			l-0.2-0.1l-0.3,0.5l0.2,0.1c0.2,0.1,0.4,0.2,0.6,0.2v1.4l-1.2-0.6c0.1-0.3,0.1-0.5,0.1-0.7v-0.3H-5v0.3c0,0.1,0,0.2,0,0.3
			l-0.7-0.4L-6,39l0.7,0.4c-0.1,0.1-0.2,0.1-0.3,0.2l-0.2,0.1l0.3,0.5l0.2-0.2c0.2-0.1,0.4-0.2,0.5-0.4l1.2,0.6l-1.2,0.7
			c-0.1-0.2-0.3-0.3-0.5-0.4l-0.2-0.1l-0.4,0.5l0.2,0.2c0.1,0.1,0.2,0.1,0.3,0.2l-0.7,0.4l0.3,0.5l0.7-0.4c0,0.1,0,0.2,0,0.3v0.3
			h0.7v-0.3c0-0.2,0-0.4-0.1-0.6l1.2-0.6v1.3c-0.2,0-0.4,0.1-0.6,0.2l-0.2,0.1l0.3,0.5l0.2-0.1c0.1,0,0.2,0,0.3,0v0.7h0.5v-0.7
			c0.1,0,0.2,0.1,0.3,0.1l0.2,0.1l0.3-0.5l-0.2-0.1c-0.1-0.1-0.3-0.1-0.6-0.2v-1.4l1.2,0.6c0,0.3-0.1,0.5,0,0.7v0.3H-1v-0.3
			c0-0.1,0-0.2,0-0.3l0.6,0.3l0.3-0.5l-0.7-0.4C-0.6,41.2-0.5,41.1-0.4,41.1z"/>
	</g>
</g>
</svg>
