<?xml version="1.0" encoding="utf-8"?>
<!-- Generator: Adobe Illustrator 19.0.0, SVG Export Plug-In . SVG Version: 6.00 Build 0)  -->
<svg version="1.1" id="Capa_1" xmlns="http://www.w3.org/2000/svg" xmlns:xlink="http://www.w3.org/1999/xlink" x="0px" y="0px"
	 viewBox="-17 17 32 32" style="enable-background:new -17 17 32 32;" xml:space="preserve">
<style type="text/css">
	.st0{fill:url(#XMLID_3_);}
	.st1{fill:url(#XMLID_4_);}
	.st2{fill:url(#XMLID_8_);}
	.st3{fill:url(#XMLID_9_);}
	.st4{fill:url(#XMLID_12_);}
	.st5{fill:url(#XMLID_13_);}
	.st6{fill:url(#XMLID_14_);}
	.st7{fill:url(#XMLID_17_);}
	.st8{fill:url(#XMLID_20_);}
	.st9{fill:url(#XMLID_21_);}
	.st10{fill:url(#XMLID_24_);}
	.st11{fill:url(#XMLID_27_);}
	.st12{fill:url(#XMLID_28_);}
	.st13{fill:#3F5889;stroke:url(#SVGID_1_);stroke-width:0.5;stroke-miterlimit:10;}
	.st14{fill:none;stroke:url(#SVGID_2_);stroke-width:0.25;stroke-miterlimit:10;}
	.st15{fill:#193372;}
	.st16{fill:none;stroke:url(#SVGID_3_);stroke-width:0.25;stroke-miterlimit:10;}
</style>
<g id="XMLID_6_">
	<linearGradient id="XMLID_3_" gradientUnits="userSpaceOnUse" x1="-1.0451" y1="35.633" x2="-15.3681" y2="18.3869">
		<stop  offset="0" style="stop-color:#D300FF"/>
		<stop  offset="0.8565" style="stop-color:#42FFFF"/>
	</linearGradient>
	<circle id="XMLID_2_" class="st0" cx="-6.6" cy="29" r="5.3"/>
	<linearGradient id="XMLID_4_" gradientUnits="userSpaceOnUse" x1="3.3179" y1="32.3955" x2="-11.4504" y2="14.6133">
		<stop  offset="0" style="stop-color:#D300FF"/>
		<stop  offset="0.8565" style="stop-color:#42FFFF"/>
	</linearGradient>
	<path id="XMLID_5_" class="st1" d="M-6.5,22.2h-0.2c-0.4,0-0.7-0.3-0.7-0.7v-2.1c0-0.4,0.3-0.7,0.7-0.7h0.2c0.4,0,0.7,0.3,0.7,0.7
		v2.1C-5.8,21.9-6.1,22.2-6.5,22.2z"/>
	<linearGradient id="XMLID_8_" gradientUnits="userSpaceOnUse" x1="-4.8738" y1="38.6963" x2="-19.6421" y2="20.914">
		<stop  offset="0" style="stop-color:#D300FF"/>
		<stop  offset="0.8565" style="stop-color:#42FFFF"/>
	</linearGradient>
	<path id="XMLID_7_" class="st2" d="M-6.5,38.3h-0.2c-0.4,0-0.7-0.3-0.7-0.7v-2.1c0-0.4,0.3-0.7,0.7-0.7h0.2c0.4,0,0.7,0.3,0.7,0.7
		v2.1C-5.8,38-6.1,38.3-6.5,38.3z"/>
	<linearGradient id="XMLID_9_" gradientUnits="userSpaceOnUse" x1="-5.4341" y1="39.6711" x2="-20.2414" y2="21.8418">
		<stop  offset="0" style="stop-color:#D300FF"/>
		<stop  offset="0.8565" style="stop-color:#42FFFF"/>
	</linearGradient>
	<path id="XMLID_11_" class="st3" d="M-13,28.4v0.2c0,0.4-0.3,0.7-0.7,0.7h-2.1c-0.4,0-0.7-0.3-0.7-0.7v-0.2c0-0.4,0.3-0.7,0.7-0.7
		h2.1C-13.3,27.8-13,28.1-13,28.4z"/>
	<linearGradient id="XMLID_12_" gradientUnits="userSpaceOnUse" x1="3.9089" y1="31.4577" x2="-10.8984" y2="13.6284">
		<stop  offset="0" style="stop-color:#D300FF"/>
		<stop  offset="0.8565" style="stop-color:#42FFFF"/>
	</linearGradient>
	<path id="XMLID_10_" class="st4" d="M3.2,28.4v0.2c0,0.4-0.3,0.7-0.7,0.7H0.5c-0.4,0-0.7-0.3-0.7-0.7v-0.2c0-0.4,0.3-0.7,0.7-0.7
		h2.1C2.9,27.8,3.2,28.1,3.2,28.4z"/>
	<linearGradient id="XMLID_13_" gradientUnits="userSpaceOnUse" x1="5.2752" y1="30.3288" x2="-9.2889" y2="12.7924">
		<stop  offset="0" style="stop-color:#D300FF"/>
		<stop  offset="0.8565" style="stop-color:#42FFFF"/>
	</linearGradient>
	<path id="XMLID_19_" class="st5" d="M-1.1,25.3l-0.1-0.2c-0.2-0.3-0.1-0.7,0.2-0.9l1.8-1.1c0.3-0.2,0.7-0.1,0.9,0.2l0.1,0.2
		c0.2,0.3,0.1,0.7-0.2,0.9l-1.8,1.1C-0.5,25.7-0.9,25.6-1.1,25.3z"/>
	<linearGradient id="XMLID_14_" gradientUnits="userSpaceOnUse" x1="-6.9981" y1="40.5741" x2="-21.5622" y2="23.0377">
		<stop  offset="0" style="stop-color:#D300FF"/>
		<stop  offset="0.8565" style="stop-color:#42FFFF"/>
	</linearGradient>
	<path id="XMLID_18_" class="st6" d="M-14.9,33.7l-0.1-0.2c-0.2-0.3-0.1-0.7,0.2-0.9l1.8-1.1c0.3-0.2,0.7-0.1,0.9,0.2L-12,32
		c0.2,0.3,0.1,0.7-0.2,0.9l-1.8,1.1C-14.3,34.1-14.7,34-14.9,33.7z"/>
	<linearGradient id="XMLID_17_" gradientUnits="userSpaceOnUse" x1="5.897687e-002" y1="34.6935" x2="-14.3947" y2="17.29">
		<stop  offset="0" style="stop-color:#D300FF"/>
		<stop  offset="0.8565" style="stop-color:#42FFFF"/>
	</linearGradient>
	<path id="XMLID_16_" class="st7" d="M-9.8,23l-0.2,0.1c-0.3,0.2-0.7,0.1-0.9-0.2l-1.1-1.8c-0.2-0.3-0.1-0.7,0.2-0.9l0.2-0.1
		c0.3-0.2,0.7-0.1,0.9,0.2l1.1,1.8C-9.4,22.4-9.5,22.8-9.8,23z"/>
	<linearGradient id="XMLID_20_" gradientUnits="userSpaceOnUse" x1="-1.8688" y1="36.1048" x2="-16.3225" y2="18.7013">
		<stop  offset="0" style="stop-color:#D300FF"/>
		<stop  offset="0.8565" style="stop-color:#42FFFF"/>
	</linearGradient>
	<path id="XMLID_15_" class="st8" d="M-1.4,36.8L-1.6,37c-0.3,0.2-0.7,0.1-0.9-0.2L-3.6,35c-0.2-0.3-0.1-0.7,0.2-0.9l0.2-0.1
		c0.3-0.2,0.7-0.1,0.9,0.2l1.1,1.8C-1,36.2-1.1,36.7-1.4,36.8z"/>
	<linearGradient id="XMLID_21_" gradientUnits="userSpaceOnUse" x1="1.308" y1="33.4907" x2="-13.3053" y2="15.8951">
		<stop  offset="0" style="stop-color:#D300FF"/>
		<stop  offset="0.8565" style="stop-color:#42FFFF"/>
	</linearGradient>
	<path id="XMLID_26_" class="st9" d="M-1.1,31.8l0.1-0.2c0.2-0.3,0.6-0.4,0.9-0.3l1.8,1c0.3,0.2,0.4,0.6,0.3,0.9l-0.1,0.2
		c-0.2,0.3-0.6,0.4-0.9,0.3l-1.8-1C-1.1,32.5-1.2,32.1-1.1,31.8z"/>
	<linearGradient id="XMLID_24_" gradientUnits="userSpaceOnUse" x1="-2.986" y1="37.454" x2="-17.5993" y2="19.8584">
		<stop  offset="0" style="stop-color:#D300FF"/>
		<stop  offset="0.8565" style="stop-color:#42FFFF"/>
	</linearGradient>
	<path id="XMLID_25_" class="st10" d="M-15.2,23.9l0.1-0.2c0.2-0.3,0.6-0.4,0.9-0.3l1.8,1c0.3,0.2,0.4,0.6,0.3,0.9l-0.1,0.2
		c-0.2,0.3-0.6,0.4-0.9,0.3l-1.8-1C-15.2,24.6-15.4,24.2-15.2,23.9z"/>
	<linearGradient id="XMLID_27_" gradientUnits="userSpaceOnUse" x1="5.0689" y1="30.7889" x2="-9.6816" y2="13.0282">
		<stop  offset="0" style="stop-color:#D300FF"/>
		<stop  offset="0.8565" style="stop-color:#42FFFF"/>
	</linearGradient>
	<path id="XMLID_23_" class="st11" d="M-3.4,23l-0.2-0.1C-3.9,22.7-4,22.3-3.8,22l1-1.8c0.2-0.3,0.6-0.4,0.9-0.3l0.2,0.1
		c0.3,0.2,0.4,0.6,0.3,0.9l-1,1.8C-2.7,23.1-3.1,23.2-3.4,23z"/>
	<linearGradient id="XMLID_28_" gradientUnits="userSpaceOnUse" x1="-6.6388" y1="40.2859" x2="-21.3893" y2="22.5251">
		<stop  offset="0" style="stop-color:#D300FF"/>
		<stop  offset="0.8565" style="stop-color:#42FFFF"/>
	</linearGradient>
	<path id="XMLID_22_" class="st12" d="M-11.3,37.1l-0.2-0.1c-0.3-0.2-0.4-0.6-0.3-0.9l1-1.8c0.2-0.3,0.6-0.4,0.9-0.3l0.2,0.1
		c0.3,0.2,0.4,0.6,0.3,0.9l-1,1.8C-10.5,37.2-10.9,37.3-11.3,37.1z"/>
</g>
<g>
	
		<linearGradient id="SVGID_1_" gradientUnits="userSpaceOnUse" x1="9.536" y1="44.3636" x2="-6.7146" y2="27.8399" gradientTransform="matrix(0.9997 -2.626982e-002 2.626982e-002 0.9997 -0.9263 1.037041e-002)">
		<stop  offset="0" style="stop-color:#D300FF"/>
		<stop  offset="0.8565" style="stop-color:#42FFFF"/>
	</linearGradient>
	<path class="st13" d="M14.4,37.4c0.1-2.4-1.8-4.5-4.3-4.5c-0.1,0-0.2,0-0.4,0c0.5-0.9,0.7-1.8,0.8-2.9c0.1-3.6-2.7-6.6-6.3-6.7
		c-3.2-0.1-5.9,2.1-6.5,5.1c-4.5-1.6-7.7,2.4-7.3,5.5c-2.3-0.2-3.8,1.6-3.9,3.6c-0.1,1.8,1,3.4,2.5,4.1l0,0l0,0
		c0.5,0.2,1.1,0.4,1.7,0.4l20.4-0.5C12.9,41,14.3,39.4,14.4,37.4z"/>
</g>
<g>
	<g>
		<linearGradient id="SVGID_2_" gradientUnits="userSpaceOnUse" x1="0.428" y1="45.1112" x2="4.7283" y2="45.1112">
			<stop  offset="0" style="stop-color:#D300FF"/>
			<stop  offset="0.8565" style="stop-color:#42FFFF"/>
		</linearGradient>
		<path class="st14" d="M4.3,45.6l0.2-0.1l-0.2-0.3l-0.2,0.1c-0.1,0.1-0.2,0.2-0.3,0.3L3,45.1l0.8-0.4c0.1,0.1,0.2,0.2,0.3,0.3
			L4.3,45l0.2-0.3l-0.2-0.1c-0.1,0-0.1-0.1-0.2-0.1l0.5-0.3l-0.2-0.3l-0.5,0.3c0-0.1,0-0.2,0-0.2l0-0.2l-0.4,0l0,0.2
			c0,0.1,0,0.3,0.1,0.4l-0.8,0.4v-0.9c0.1,0,0.3-0.1,0.4-0.2l0.2-0.1l-0.2-0.3L3,43.4c-0.1,0-0.1,0.1-0.2,0.1V43H2.4v0.5
			c-0.1,0-0.1,0-0.2-0.1L2,43.3l-0.2,0.3L2,43.7c0.1,0.1,0.3,0.1,0.4,0.2v0.9l-0.8-0.4c0.1-0.1,0.1-0.3,0.1-0.4l0-0.2l-0.4,0l0,0.2
			c0,0.1,0,0.2,0,0.2l-0.5-0.3l-0.2,0.3l0.5,0.3C1,44.5,1,44.6,0.9,44.6l-0.2,0.1L0.9,45l0.2-0.1c0.1-0.1,0.2-0.2,0.3-0.3l0.8,0.4
			l-0.8,0.4c-0.1-0.1-0.2-0.2-0.3-0.3l-0.2-0.1l-0.2,0.3l0.2,0.1c0.1,0,0.1,0.1,0.2,0.1L0.6,46l0.2,0.3l0.5-0.3c0,0.1,0,0.2,0,0.2
			l0,0.2l0.4,0l0-0.2c0-0.1,0-0.3-0.1-0.4l0.8-0.4v0.9c-0.1,0-0.3,0.1-0.4,0.2l-0.2,0.1L2,46.9l0.2-0.1c0.1,0,0.1-0.1,0.2-0.1v0.5
			h0.4v-0.5c0.1,0,0.1,0,0.2,0.1l0.2,0.1l0.2-0.3l-0.2-0.1c-0.1-0.1-0.3-0.1-0.4-0.2v-0.9l0.8,0.4c-0.1,0.1-0.1,0.3-0.1,0.4l0,0.2
			l0.4,0l0-0.2c0-0.1,0-0.2,0-0.2l0.5,0.3L4.6,46l-0.5-0.3C4.1,45.7,4.2,45.7,4.3,45.6z"/>
		<path class="st15" d="M4.3,45.6l0.2-0.1l-0.2-0.3l-0.2,0.1c-0.1,0.1-0.2,0.2-0.3,0.3L3,45.1l0.8-0.4c0.1,0.1,0.2,0.2,0.3,0.3
			L4.3,45l0.2-0.3l-0.2-0.1c-0.1,0-0.1-0.1-0.2-0.1l0.5-0.3l-0.2-0.3l-0.5,0.3c0-0.1,0-0.2,0-0.2l0-0.2l-0.4,0l0,0.2
			c0,0.1,0,0.3,0.1,0.4l-0.8,0.4v-0.9c0.1,0,0.3-0.1,0.4-0.2l0.2-0.1l-0.2-0.3L3,43.4c-0.1,0-0.1,0.1-0.2,0.1V43H2.4v0.5
			c-0.1,0-0.1,0-0.2-0.1L2,43.3l-0.2,0.3L2,43.7c0.1,0.1,0.3,0.1,0.4,0.2v0.9l-0.8-0.4c0.1-0.1,0.1-0.3,0.1-0.4l0-0.2l-0.4,0l0,0.2
			c0,0.1,0,0.2,0,0.2l-0.5-0.3l-0.2,0.3l0.5,0.3C1,44.5,1,44.6,0.9,44.6l-0.2,0.1L0.9,45l0.2-0.1c0.1-0.1,0.2-0.2,0.3-0.3l0.8,0.4
			l-0.8,0.4c-0.1-0.1-0.2-0.2-0.3-0.3l-0.2-0.1l-0.2,0.3l0.2,0.1c0.1,0,0.1,0.1,0.2,0.1L0.6,46l0.2,0.3l0.5-0.3c0,0.1,0,0.2,0,0.2
			l0,0.2l0.4,0l0-0.2c0-0.1,0-0.3-0.1-0.4l0.8-0.4v0.9c-0.1,0-0.3,0.1-0.4,0.2l-0.2,0.1L2,46.9l0.2-0.1c0.1,0,0.1-0.1,0.2-0.1v0.5
			h0.4v-0.5c0.1,0,0.1,0,0.2,0.1l0.2,0.1l0.2-0.3l-0.2-0.1c-0.1-0.1-0.3-0.1-0.4-0.2v-0.9l0.8,0.4c-0.1,0.1-0.1,0.3-0.1,0.4l0,0.2
			l0.4,0l0-0.2c0-0.1,0-0.2,0-0.2l0.5,0.3L4.6,46l-0.5-0.3C4.1,45.7,4.2,45.7,4.3,45.6z"/>
	</g>
	<g>
		<linearGradient id="SVGID_3_" gradientUnits="userSpaceOnUse" x1="-4.7283" y1="45.1112" x2="-0.428" y2="45.1112">
			<stop  offset="0" style="stop-color:#D300FF"/>
			<stop  offset="0.8565" style="stop-color:#42FFFF"/>
		</linearGradient>
		<path class="st16" d="M-0.9,45.6l0.2-0.1l-0.2-0.3l-0.2,0.1c-0.1,0.1-0.2,0.2-0.3,0.3l-0.8-0.4l0.8-0.4c0.1,0.1,0.2,0.2,0.3,0.3
			l0.2,0.1l0.2-0.3l-0.2-0.1c-0.1,0-0.1-0.1-0.2-0.1l0.5-0.3l-0.2-0.3l-0.5,0.3c0-0.1,0-0.2,0-0.2l0-0.2l-0.4,0l0,0.2
			c0,0.1,0,0.3,0.1,0.4l-0.8,0.4v-0.9c0.1,0,0.3-0.1,0.4-0.2l0.2-0.1L-2,43.3l-0.2,0.1c-0.1,0-0.1,0.1-0.2,0.1V43h-0.4v0.5
			c-0.1,0-0.1,0-0.2-0.1l-0.2-0.1l-0.2,0.3l0.2,0.1c0.1,0.1,0.3,0.1,0.4,0.2v0.9l-0.8-0.4c0.1-0.1,0.1-0.3,0.1-0.4l0-0.2l-0.4,0
			l0,0.2c0,0.1,0,0.2,0,0.2l-0.5-0.3l-0.2,0.3l0.5,0.3c-0.1,0.1-0.1,0.1-0.2,0.1l-0.2,0.1l0.2,0.3l0.2-0.1c0.1-0.1,0.2-0.2,0.3-0.3
			l0.8,0.4l-0.8,0.4c-0.1-0.1-0.2-0.2-0.3-0.3l-0.2-0.1l-0.2,0.3l0.2,0.1c0.1,0,0.1,0.1,0.2,0.1L-4.6,46l0.2,0.3l0.5-0.3
			c0,0.1,0,0.2,0,0.2l0,0.2l0.4,0l0-0.2c0-0.1,0-0.3-0.1-0.4l0.8-0.4v0.9c-0.1,0-0.3,0.1-0.4,0.2l-0.2,0.1l0.2,0.3l0.2-0.1
			c0.1,0,0.1-0.1,0.2-0.1v0.5h0.4v-0.5c0.1,0,0.1,0,0.2,0.1l0.2,0.1l0.2-0.3L-2,46.5c-0.1-0.1-0.3-0.1-0.4-0.2v-0.9l0.8,0.4
			c-0.1,0.1-0.1,0.3-0.1,0.4l0,0.2l0.4,0l0-0.2c0-0.1,0-0.2,0-0.2l0.5,0.3l0.2-0.3l-0.5-0.3C-1,45.7-1,45.7-0.9,45.6z"/>
		<path class="st15" d="M-0.9,45.6l0.2-0.1l-0.2-0.3l-0.2,0.1c-0.1,0.1-0.2,0.2-0.3,0.3l-0.8-0.4l0.8-0.4c0.1,0.1,0.2,0.2,0.3,0.3
			l0.2,0.1l0.2-0.3l-0.2-0.1c-0.1,0-0.1-0.1-0.2-0.1l0.5-0.3l-0.2-0.3l-0.5,0.3c0-0.1,0-0.2,0-0.2l0-0.2l-0.4,0l0,0.2
			c0,0.1,0,0.3,0.1,0.4l-0.8,0.4v-0.9c0.1,0,0.3-0.1,0.4-0.2l0.2-0.1L-2,43.3l-0.2,0.1c-0.1,0-0.1,0.1-0.2,0.1V43h-0.4v0.5
			c-0.1,0-0.1,0-0.2-0.1l-0.2-0.1l-0.2,0.3l0.2,0.1c0.1,0.1,0.3,0.1,0.4,0.2v0.9l-0.8-0.4c0.1-0.1,0.1-0.3,0.1-0.4l0-0.2l-0.4,0
			l0,0.2c0,0.1,0,0.2,0,0.2l-0.5-0.3l-0.2,0.3l0.5,0.3c-0.1,0.1-0.1,0.1-0.2,0.1l-0.2,0.1l0.2,0.3l0.2-0.1c0.1-0.1,0.2-0.2,0.3-0.3
			l0.8,0.4l-0.8,0.4c-0.1-0.1-0.2-0.2-0.3-0.3l-0.2-0.1l-0.2,0.3l0.2,0.1c0.1,0,0.1,0.1,0.2,0.1L-4.6,46l0.2,0.3l0.5-0.3
			c0,0.1,0,0.2,0,0.2l0,0.2l0.4,0l0-0.2c0-0.1,0-0.3-0.1-0.4l0.8-0.4v0.9c-0.1,0-0.3,0.1-0.4,0.2l-0.2,0.1l0.2,0.3l0.2-0.1
			c0.1,0,0.1-0.1,0.2-0.1v0.5h0.4v-0.5c0.1,0,0.1,0,0.2,0.1l0.2,0.1l0.2-0.3L-2,46.5c-0.1-0.1-0.3-0.1-0.4-0.2v-0.9l0.8,0.4
			c-0.1,0.1-0.1,0.3-0.1,0.4l0,0.2l0.4,0l0-0.2c0-0.1,0-0.2,0-0.2l0.5,0.3l0.2-0.3l-0.5-0.3C-1,45.7-1,45.7-0.9,45.6z"/>
	</g>
</g>
</svg>
