<?xml version="1.0" encoding="utf-8"?>
<!-- Generator: Adobe Illustrator 19.0.0, SVG Export Plug-In . SVG Version: 6.00 Build 0)  -->
<svg version="1.1" id="Capa_1" xmlns="http://www.w3.org/2000/svg" xmlns:xlink="http://www.w3.org/1999/xlink" x="0px" y="0px"
	 viewBox="-15 17 32 32" style="enable-background:new -15 17 32 32;" xml:space="preserve">
<style type="text/css">
	.st0{fill:url(#XMLID_3_);}
	.st1{fill:url(#XMLID_4_);}
	.st2{fill:url(#XMLID_8_);}
	.st3{fill:url(#XMLID_9_);}
	.st4{fill:url(#XMLID_12_);}
	.st5{fill:url(#XMLID_13_);}
	.st6{fill:url(#XMLID_14_);}
	.st7{fill:url(#XMLID_17_);}
	.st8{fill:url(#XMLID_20_);}
	.st9{fill:url(#XMLID_21_);}
	.st10{fill:url(#XMLID_24_);}
	.st11{fill:url(#XMLID_27_);}
	.st12{fill:url(#XMLID_28_);}
	.st13{fill:#3F5889;stroke:url(#SVGID_1_);stroke-width:0.5;stroke-miterlimit:10;}
	.st14{fill:none;stroke:url(#SVGID_2_);stroke-width:0.25;stroke-miterlimit:10;}
	.st15{fill:#193372;}
	.st16{fill:none;stroke:url(#SVGID_3_);stroke-width:0.25;stroke-miterlimit:10;}
</style>
<g>
	<g id="XMLID_6_">
		
			<linearGradient id="XMLID_3_" gradientUnits="userSpaceOnUse" x1="1.0199" y1="31.6589" x2="-13.3031" y2="14.4128" gradientTransform="matrix(1 0 0 1 0 4)">
			<stop  offset="0" style="stop-color:#D300FF"/>
			<stop  offset="0.8565" style="stop-color:#42FFFF"/>
		</linearGradient>
		<circle id="XMLID_2_" class="st0" cx="-4.6" cy="29" r="5.3"/>
		
			<linearGradient id="XMLID_4_" gradientUnits="userSpaceOnUse" x1="5.3628" y1="28.4381" x2="-9.4055" y2="10.6559" gradientTransform="matrix(1 0 0 1 0 4)">
			<stop  offset="0" style="stop-color:#D300FF"/>
			<stop  offset="0.8565" style="stop-color:#42FFFF"/>
		</linearGradient>
		<path id="XMLID_5_" class="st1" d="M-4.5,22.3h-0.2c-0.4,0-0.7-0.3-0.7-0.7v-2.1c0-0.4,0.3-0.7,0.7-0.7h0.2c0.4,0,0.7,0.3,0.7,0.7
			v2.1C-3.8,21.8-4.1,22.3-4.5,22.3z"/>
		
			<linearGradient id="XMLID_8_" gradientUnits="userSpaceOnUse" x1="-2.7482" y1="34.6718" x2="-17.5165" y2="16.8895" gradientTransform="matrix(1 0 0 1 0 4)">
			<stop  offset="0" style="stop-color:#D300FF"/>
			<stop  offset="0.8565" style="stop-color:#42FFFF"/>
		</linearGradient>
		<path id="XMLID_7_" class="st2" d="M-4.5,38.3h-0.2c-0.4,0-0.7-0.3-0.7-0.7v-2.1c0-0.4,0.3-0.7,0.7-0.7h0.2c0.4,0,0.7,0.3,0.7,0.7
			v2.1C-3.8,38-4.1,38.3-4.5,38.3z"/>
		
			<linearGradient id="XMLID_9_" gradientUnits="userSpaceOnUse" x1="-3.3825" y1="35.7082" x2="-18.1898" y2="17.8789" gradientTransform="matrix(1 0 0 1 0 4)">
			<stop  offset="0" style="stop-color:#D300FF"/>
			<stop  offset="0.8565" style="stop-color:#42FFFF"/>
		</linearGradient>
		<path id="XMLID_11_" class="st3" d="M-11,28.3v0.2c0,0.4-0.3,0.7-0.7,0.7h-2.1c-0.4,0-0.7-0.3-0.7-0.7v-0.2c0-0.4,0.3-0.7,0.7-0.7
			h2.1C-11.3,27.8-11,28-11,28.3z"/>
		
			<linearGradient id="XMLID_12_" gradientUnits="userSpaceOnUse" x1="6.0138" y1="27.4505" x2="-8.7935" y2="9.6212" gradientTransform="matrix(1 0 0 1 0 4)">
			<stop  offset="0" style="stop-color:#D300FF"/>
			<stop  offset="0.8565" style="stop-color:#42FFFF"/>
		</linearGradient>
		<path id="XMLID_10_" class="st4" d="M5.2,28.3v0.2c0,0.4-0.3,0.7-0.7,0.7h-2c-0.4,0-0.7-0.3-0.7-0.7v-0.2c0-0.4,0.3-0.7,0.7-0.7
			h2.1C4.9,27.8,5.2,28,5.2,28.3z"/>
		
			<linearGradient id="XMLID_13_" gradientUnits="userSpaceOnUse" x1="7.3859" y1="26.3168" x2="-7.1782" y2="8.7804" gradientTransform="matrix(1 0 0 1 0 4)">
			<stop  offset="0" style="stop-color:#D300FF"/>
			<stop  offset="0.8565" style="stop-color:#42FFFF"/>
		</linearGradient>
		<path id="XMLID_19_" class="st5" d="M0.9,25.3L0.8,25c-0.2-0.3-0.1-0.7,0.2-0.9L2.8,23c0.3-0.2,0.7-0.1,0.9,0.2l0.1,0.2
			c0.2,0.3,0.1,0.7-0.2,0.9l-1.8,1.1C1.5,25.8,1.1,25.5,0.9,25.3z"/>
		
			<linearGradient id="XMLID_14_" gradientUnits="userSpaceOnUse" x1="-4.9312" y1="36.5984" x2="-19.4955" y2="19.0619" gradientTransform="matrix(1 0 0 1 0 4)">
			<stop  offset="0" style="stop-color:#D300FF"/>
			<stop  offset="0.8565" style="stop-color:#42FFFF"/>
		</linearGradient>
		<path id="XMLID_18_" class="st6" d="M-12.9,33.8l-0.1-0.2c-0.2-0.3-0.1-0.7,0.2-0.9l1.8-1.1c0.3-0.2,0.7-0.1,0.9,0.2L-10,32
			c0.2,0.3,0.1,0.7-0.2,0.9L-12,34C-12.3,34-12.7,34-12.9,33.8z"/>
		
			<linearGradient id="XMLID_17_" gradientUnits="userSpaceOnUse" x1="2.1603" y1="30.6892" x2="-12.2934" y2="13.2857" gradientTransform="matrix(1 0 0 1 0 4)">
			<stop  offset="0" style="stop-color:#D300FF"/>
			<stop  offset="0.8565" style="stop-color:#42FFFF"/>
		</linearGradient>
		<path id="XMLID_16_" class="st7" d="M-7.8,23L-8,23c-0.3,0.2-0.7,0.1-0.9-0.2L-10,21c-0.2-0.3-0.1-0.7,0.2-0.9l0.2-0.1
			c0.3-0.2,0.7-0.1,0.9,0.2l1.1,1.8C-7.4,22.3-7.5,22.8-7.8,23z"/>
		
			<linearGradient id="XMLID_20_" gradientUnits="userSpaceOnUse" x1="0.2064" y1="32.1222" x2="-14.2473" y2="14.7187" gradientTransform="matrix(1 0 0 1 0 4)">
			<stop  offset="0" style="stop-color:#D300FF"/>
			<stop  offset="0.8565" style="stop-color:#42FFFF"/>
		</linearGradient>
		<path id="XMLID_15_" class="st8" d="M0.6,36.8L0.4,37c-0.3,0.2-0.7,0.1-0.9-0.2L-1.6,35c-0.2-0.3-0.1-0.7,0.2-0.9l0.2-0.1
			c0.3-0.2,0.7-0.1,0.9,0.2L0.8,36C1,36.3,0.9,36.8,0.6,36.8z"/>
		
			<linearGradient id="XMLID_21_" gradientUnits="userSpaceOnUse" x1="3.364" y1="29.5241" x2="-11.2493" y2="11.9285" gradientTransform="matrix(1 0 0 1 0 4)">
			<stop  offset="0" style="stop-color:#D300FF"/>
			<stop  offset="0.8565" style="stop-color:#42FFFF"/>
		</linearGradient>
		<path id="XMLID_26_" class="st9" d="M0.9,31.8L1,31.5c0.2-0.3,0.6-0.4,0.9-0.3l1.8,1c0.3,0.2,0.4,0.6,0.3,1l-0.1,0.2
			c-0.2,0.3-0.6,0.4-0.9,0.3l-1.8-1C0.9,32.5,0.8,32,0.9,31.8z"/>
		
			<linearGradient id="XMLID_24_" gradientUnits="userSpaceOnUse" x1="-0.8942" y1="33.4577" x2="-15.5075" y2="15.8621" gradientTransform="matrix(1 0 0 1 0 4)">
			<stop  offset="0" style="stop-color:#D300FF"/>
			<stop  offset="0.8565" style="stop-color:#42FFFF"/>
		</linearGradient>
		<path id="XMLID_25_" class="st10" d="M-13.2,23.8l0.1-0.2c0.2-0.3,0.6-0.4,0.9-0.3l1.8,1c0.3,0.2,0.4,0.6,0.3,0.9l-0.1,0.2
			c-0.2,0.3-0.6,0.4-0.9,0.3l-1.8-1C-13.2,24.5-13.4,24.3-13.2,23.8z"/>
		
			<linearGradient id="XMLID_27_" gradientUnits="userSpaceOnUse" x1="7.1738" y1="26.7816" x2="-7.5767" y2="9.0209" gradientTransform="matrix(1 0 0 1 0 4)">
			<stop  offset="0" style="stop-color:#D300FF"/>
			<stop  offset="0.8565" style="stop-color:#42FFFF"/>
		</linearGradient>
		<path id="XMLID_23_" class="st11" d="M-1.4,23l-0.2-0.1C-1.9,22.8-2,22.3-1.8,22l1-1.8c0.2-0.3,0.6-0.4,0.9-0.3L0.3,20
			c0.3,0.2,0.4,0.6,0.3,0.9l-1,1.8C-0.7,23-1.1,23.3-1.4,23z"/>
		
			<linearGradient id="XMLID_28_" gradientUnits="userSpaceOnUse" x1="-4.563" y1="36.3029" x2="-19.3135" y2="18.5421" gradientTransform="matrix(1 0 0 1 0 4)">
			<stop  offset="0" style="stop-color:#D300FF"/>
			<stop  offset="0.8565" style="stop-color:#42FFFF"/>
		</linearGradient>
		<path id="XMLID_22_" class="st12" d="M-9.3,37L-9.5,37c-0.3-0.2-0.4-0.6-0.3-0.9l1-1.8c0.2-0.3,0.6-0.4,0.9-0.3l0.2,0.1
			c0.3,0.2,0.4,0.6,0.3,0.9l-1,1.8C-8.5,37.3-8.9,37.3-9.3,37z"/>
	</g>
	<g>
		
			<linearGradient id="SVGID_1_" gradientUnits="userSpaceOnUse" x1="11.6605" y1="42.0767" x2="-4.5901" y2="25.553" gradientTransform="matrix(0.9997 -2.626982e-002 2.626982e-002 0.9997 -0.9443 2.4342)">
			<stop  offset="0" style="stop-color:#D300FF"/>
			<stop  offset="0.8565" style="stop-color:#42FFFF"/>
		</linearGradient>
		<path class="st13" d="M16.4,37.5c0.1-2.4-1.8-4.5-4.3-4.5c-0.1,0-0.2,0-0.4,0c0.5-0.9,0.7-1.8,0.8-2.9c0.1-3.6-2.7-6.6-6.3-6.7
			c-3.2-0.1-5.9,2.1-6.5,5.1C-4.8,26.8-8,30.8-7.6,34c-2.3-0.2-3.8,1.6-3.9,3.6c-0.1,1.8,1,3.4,2.5,4.1l0,0l0,0
			c0.5,0.2,1.1,0.4,1.7,0.4l20.4-0.5C14.9,41,16.3,39.5,16.4,37.5z"/>
	</g>
	<g>
		
			<linearGradient id="SVGID_2_" gradientUnits="userSpaceOnUse" x1="-2.2716" y1="41.05" x2="2.0287" y2="41.05" gradientTransform="matrix(1 0 0 1 0 4)">
			<stop  offset="0" style="stop-color:#D300FF"/>
			<stop  offset="0.8565" style="stop-color:#42FFFF"/>
		</linearGradient>
		<path class="st14" d="M1.6,45.5l0.2-0.1l-0.2-0.3l-0.2,0.1c-0.1,0.1-0.2,0.2-0.3,0.3L0.3,45l0.8-0.4c0.1,0.1,0.2,0.2,0.3,0.3h0.2
			l0.2-0.3l-0.2-0.1c-0.1,0-0.1-0.1-0.2-0.1l0.5-0.3L1.7,44l-0.5,0.3c0-0.1,0-0.2,0-0.2v-0.2H0.8V44c0,0.1,0,0.3,0.1,0.4l-0.8,0.4
			V44c0.1,0,0.3-0.1,0.4-0.2l0.2-0.1l-0.2-0.3l-0.2,0.1c-0.1,0-0.1,0.1-0.2,0.1V43h-0.4v0.5c-0.1,0-0.1,0-0.2-0.1l-0.2-0.1l-0.2,0.3
			l0.2,0.1c0.1,0.1,0.3,0.1,0.4,0.2v0.9l-0.8-0.4C-1,44.4-1,44.2-1,44v-0.2h-0.4V44c0,0.1,0,0.2,0,0.2L-1.9,44l-0.2,0.3l0.5,0.3
			c-0.1,0-0.1,0.1-0.2,0.1l-0.2,0l0.2,0.3l0.2-0.1c0.1-0.1,0.2-0.2,0.3-0.3l0.8,0.4l-0.8,0.4c-0.1-0.1-0.2-0.2-0.3-0.3L-1.8,45
			L-2,45.4l0.2,0.1c0.1,0,0.1,0.1,0.2,0.1L-2.1,46l0.2,0.3l0.5-0.3c0,0.1,0,0.2,0,0.2v0.2H-1v-0.2c0-0.1,0-0.3-0.1-0.4l0.8-0.4v0.9
			c-0.1,0-0.3,0.1-0.4,0.2l-0.2,0.1l0.2,0.3l0.2-0.1c0.1,0,0.1-0.1,0.2-0.1v0.5h0.4v-0.5c0.1,0,0.1,0,0.2,0.1L0.5,47l0.2-0.3
			l-0.2-0.1c-0.1-0.1-0.3-0.1-0.4-0.2v-0.9l0.8,0.4c-0.1,0.1-0.1,0.3-0.1,0.4v0.2h0.4v-0.2c0-0.1,0-0.2,0-0.2l0.5,0.3L1.9,46
			l-0.5-0.3C1.4,45.8,1.5,45.8,1.6,45.5z"/>
		<path class="st15" d="M1.6,45.5l0.2-0.1l-0.2-0.3l-0.2,0.1c-0.1,0.1-0.2,0.2-0.3,0.3L0.3,45l0.8-0.4c0.1,0.1,0.2,0.2,0.3,0.3h0.2
			l0.2-0.3l-0.2-0.1c-0.1,0-0.1-0.1-0.2-0.1l0.5-0.3L1.7,44l-0.5,0.3c0-0.1,0-0.2,0-0.2v-0.2H0.8V44c0,0.1,0,0.3,0.1,0.4l-0.8,0.4
			V44c0.1,0,0.3-0.1,0.4-0.2l0.2-0.1l-0.2-0.3l-0.2,0.1c-0.1,0-0.1,0.1-0.2,0.1V43h-0.4v0.5c-0.1,0-0.1,0-0.2-0.1l-0.2-0.1l-0.2,0.3
			l0.2,0.1c0.1,0.1,0.3,0.1,0.4,0.2v0.9l-0.8-0.4C-1,44.4-1,44.2-1,44v-0.2h-0.4V44c0,0.1,0,0.2,0,0.2L-1.9,44l-0.2,0.3l0.5,0.3
			c-0.1,0-0.1,0.1-0.2,0.1l-0.2,0l0.2,0.3l0.2-0.1c0.1-0.1,0.2-0.2,0.3-0.3l0.8,0.4l-0.8,0.4c-0.1-0.1-0.2-0.2-0.3-0.3L-1.8,45
			L-2,45.4l0.2,0.1c0.1,0,0.1,0.1,0.2,0.1L-2.1,46l0.2,0.3l0.5-0.3c0,0.1,0,0.2,0,0.2v0.2H-1v-0.2c0-0.1,0-0.3-0.1-0.4l0.8-0.4v0.9
			c-0.1,0-0.3,0.1-0.4,0.2l-0.2,0.1l0.2,0.3l0.2-0.1c0.1,0,0.1-0.1,0.2-0.1v0.5h0.4v-0.5c0.1,0,0.1,0,0.2,0.1L0.5,47l0.2-0.3
			l-0.2-0.1c-0.1-0.1-0.3-0.1-0.4-0.2v-0.9l0.8,0.4c-0.1,0.1-0.1,0.3-0.1,0.4v0.2h0.4v-0.2c0-0.1,0-0.2,0-0.2l0.5,0.3L1.9,46
			l-0.5-0.3C1.4,45.8,1.5,45.8,1.6,45.5z"/>
	</g>
	<g>
		
			<linearGradient id="SVGID_3_" gradientUnits="userSpaceOnUse" x1="3.02" y1="41.1" x2="7.3203" y2="41.1" gradientTransform="matrix(1 0 0 1 0 4)">
			<stop  offset="0" style="stop-color:#D300FF"/>
			<stop  offset="0.8565" style="stop-color:#42FFFF"/>
		</linearGradient>
		<path class="st16" d="M6.8,45.5L7,45.5l-0.2-0.3l-0.2,0.1c-0.1,0.1-0.2,0.2-0.3,0.3L5.5,45l0.8-0.4c0.1,0.1,0.2,0.2,0.3,0.3h0.2
			L7,44.8l-0.2-0.1c-0.1,0-0.1-0.1-0.2-0.1l0.5-0.3L6.9,44l-0.5,0.3c0-0.1,0-0.2,0-0.2v-0.2H6V44c0,0.1,0,0.3,0.1,0.4l-0.8,0.4V44
			c0.1,0,0.3-0.1,0.4-0.2l0.2-0.1l-0.2-0.3l-0.2,0.1c-0.1,0-0.1,0.1-0.2,0.1V43H4.9v0.5c-0.1,0-0.1,0-0.2-0.1l-0.2-0.1l-0.2,0.3
			l0.2,0.1c0.1,0.1,0.3,0.1,0.4,0.2v0.9l-0.8-0.4c0.1-0.1,0.1-0.3,0.1-0.4v-0.2H3.8V44c0,0.1,0,0.2,0,0.2L3.3,44l-0.2,0.3l0.5,0.3
			c-0.1,0-0.1,0.1-0.2,0.1l-0.2,0.1L3.4,45l0.2-0.1c0.1-0.1,0.2-0.2,0.3-0.3L4.7,45l-0.8,0.4c-0.1-0.1-0.2-0.2-0.3-0.3L3.4,45
			l-0.2,0.3l0.2,0.1c0.1,0,0.1,0.1,0.2,0.1L3.1,46l0.2,0.3L3.8,46c0,0.1,0,0.2,0,0.2v0.2h0.4v-0.2c0-0.1,0-0.3-0.1-0.4l0.8-0.4v0.9
			c-0.1,0-0.3,0.1-0.4,0.2l-0.2,0.1L4.5,47l0.2-0.1c0.1,0,0.1-0.1,0.2-0.1v0.5h0.4v-0.5c0.1,0,0.1,0,0.2,0.1L5.7,47l0.2-0.3
			l-0.2-0.1c-0.1-0.1-0.3-0.1-0.4-0.2v-0.9l0.8,0.4C6,46,6,46.2,6,46.3v0.2h0.4v-0.2c0-0.1,0-0.2,0-0.2l0.5,0.3L7.1,46l-0.5-0.3
			C6.6,45.8,6.7,45.8,6.8,45.5z"/>
		<path class="st15" d="M6.8,45.5L7,45.5l-0.2-0.3l-0.2,0.1c-0.1,0.1-0.2,0.2-0.3,0.3L5.5,45l0.8-0.4c0.1,0.1,0.2,0.2,0.3,0.3h0.2
			L7,44.8l-0.2-0.1c-0.1,0-0.1-0.1-0.2-0.1l0.5-0.3L6.9,44l-0.5,0.3c0-0.1,0-0.2,0-0.2v-0.2H6V44c0,0.1,0,0.3,0.1,0.4l-0.8,0.4V44
			c0.1,0,0.3-0.1,0.4-0.2l0.2-0.1l-0.2-0.3l-0.2,0.1c-0.1,0-0.1,0.1-0.2,0.1V43H4.9v0.5c-0.1,0-0.1,0-0.2-0.1l-0.2-0.1l-0.2,0.3
			l0.2,0.1c0.1,0.1,0.3,0.1,0.4,0.2v0.9l-0.8-0.4c0.1-0.1,0.1-0.3,0.1-0.4v-0.2H3.8V44c0,0.1,0,0.2,0,0.2L3.3,44l-0.2,0.3l0.5,0.3
			c-0.1,0-0.1,0.1-0.2,0.1l-0.2,0.1L3.4,45l0.2-0.1c0.1-0.1,0.2-0.2,0.3-0.3L4.7,45l-0.8,0.4c-0.1-0.1-0.2-0.2-0.3-0.3L3.4,45
			l-0.2,0.3l0.2,0.1c0.1,0,0.1,0.1,0.2,0.1L3.1,46l0.2,0.3L3.8,46c0,0.1,0,0.2,0,0.2v0.2h0.4v-0.2c0-0.1,0-0.3-0.1-0.4l0.8-0.4v0.9
			c-0.1,0-0.3,0.1-0.4,0.2l-0.2,0.1L4.5,47l0.2-0.1c0.1,0,0.1-0.1,0.2-0.1v0.5h0.4v-0.5c0.1,0,0.1,0,0.2,0.1L5.7,47l0.2-0.3
			l-0.2-0.1c-0.1-0.1-0.3-0.1-0.4-0.2v-0.9l0.8,0.4C6,46,6,46.2,6,46.3v0.2h0.4v-0.2c0-0.1,0-0.2,0-0.2l0.5,0.3L7.1,46l-0.5-0.3
			C6.6,45.8,6.7,45.8,6.8,45.5z"/>
	</g>
</g>
</svg>
