<?xml version="1.0" encoding="utf-8"?>
<!-- Generator: Adobe Illustrator 19.0.0, SVG Export Plug-In . SVG Version: 6.00 Build 0)  -->
<svg version="1.1" id="Capa_1" xmlns="http://www.w3.org/2000/svg" xmlns:xlink="http://www.w3.org/1999/xlink" x="0px" y="0px"
	 viewBox="-15 17 32 32" style="enable-background:new -15 17 32 32;" xml:space="preserve">
<style type="text/css">
	.st0{fill:#3F5889;stroke:url(#SVGID_1_);stroke-width:0.5;stroke-miterlimit:10;}
	.st1{fill:none;stroke:url(#SVGID_2_);stroke-width:0.25;stroke-miterlimit:10;}
	.st2{fill:#193372;}
	.st3{fill:none;stroke:url(#SVGID_3_);stroke-width:0.25;stroke-miterlimit:10;}
	.st4{fill:none;stroke:url(#SVGID_4_);stroke-width:0.25;stroke-miterlimit:10;}
</style>
<g>
	<g>
		
			<linearGradient id="SVGID_1_" gradientUnits="userSpaceOnUse" x1="10.1692" y1="27.5691" x2="-6.0814" y2="44.0928" gradientTransform="matrix(0.9997 -2.626982e-002 -2.626982e-002 -0.9997 0.7805 69.6263)">
			<stop  offset="0" style="stop-color:#D300FF"/>
			<stop  offset="0.8565" style="stop-color:#42FFFF"/>
		</linearGradient>
		<path class="st0" d="M15,35.2c0.1-2.4-1.8-4.5-4.3-4.5c-0.1,0-0.2,0-0.4,0c0.5-0.9,0.7-1.8,0.8-2.9c0.1-3.6-2.7-6.6-6.3-6.7
			c-3.2-0.1-5.9,2.1-6.5,5.1c-4.5-1.6-7.7,2.4-7.3,5.5c-2.3-0.2-3.8,1.6-3.9,3.6c-0.1,1.8,1,3.4,2.5,4.1l0,0l0,0
			c0.5,0.2,1.1,0.4,1.7,0.4l20.4-0.5C13.5,38.8,14.9,37.2,15,35.2z"/>
	</g>
	<g>
		
			<linearGradient id="SVGID_2_" gradientUnits="userSpaceOnUse" x1="-6.2579" y1="29.1484" x2="-1.9576" y2="29.1484" gradientTransform="matrix(1 0 0 -1 0 72)">
			<stop  offset="0" style="stop-color:#D300FF"/>
			<stop  offset="0.8565" style="stop-color:#42FFFF"/>
		</linearGradient>
		<path class="st1" d="M-2.3,43.4l0.2-0.1L-2.3,43l-0.2,0.1c-0.1,0.1-0.2,0.2-0.3,0.3l-0.8-0.5l0.8-0.4c0.1,0.1,0.2,0.2,0.3,0.3h0.2
			l0.2-0.3l-0.2-0.1c-0.1,0-0.1-0.1-0.2-0.1L-2,42l-0.2-0.3L-2.7,42c0-0.1,0-0.2,0-0.2v-0.2h-0.4v0.2c0,0.1,0,0.3,0.1,0.4l-0.8,0.4
			v-0.9c0.1,0,0.3-0.1,0.4-0.2l0.2-0.1l-0.2-0.3l-0.2,0.1c-0.1,0-0.1,0.1-0.2,0.1v-0.5h-0.4v0.5c-0.1,0-0.1,0-0.2-0.1l-0.2-0.1
			l-0.2,0.3l0.2,0.1c0.1,0.1,0.3,0.1,0.4,0.2v0.9L-5,42.2c0.1-0.1,0.1-0.3,0.1-0.4v-0.2h-0.4v0.2c0,0.1,0,0.2,0,0.2l-0.5-0.3L-6,42
			l0.5,0.3c-0.1,0-0.1,0.1-0.2,0.1l-0.2,0.1l0.2,0.3l0.2-0.1c0.1-0.1,0.2-0.2,0.3-0.3l0.8,0.4l-0.8,0.4c-0.1-0.1-0.2-0.2-0.3-0.3
			l-0.2-0.1l-0.2,0.3l0.2,0.1c0.1,0,0.1,0.1,0.2,0.1L-6,43.8l0.2,0.3l0.5-0.3c0,0.1,0,0.2,0,0.2v0.2h0.4V44c0-0.1,0-0.3-0.1-0.4
			l0.8-0.4v0.9c-0.1,0-0.3,0.1-0.4,0.2l-0.2,0.1l0.2,0.3l0.2-0.1c0.1,0,0.1-0.1,0.2-0.1V45h0.4v-0.5c0.1,0,0.1,0,0.2,0.1l0.2,0.1
			l0.2-0.3l-0.2-0.1c-0.1-0.1-0.3-0.1-0.4-0.2v-0.9l0.8,0.4c-0.1,0.1-0.1,0.3-0.1,0.4v0.2h0.4V44c0-0.1,0-0.2,0-0.2l0.5,0.3l0.2-0.3
			l-0.5-0.3C-2.5,43.5-2.4,43.5-2.3,43.4z"/>
		<path class="st2" d="M-2.3,43.4l0.2-0.1L-2.3,43l-0.2,0.1c-0.1,0.1-0.2,0.2-0.3,0.3l-0.8-0.5l0.8-0.4c0.1,0.1,0.2,0.2,0.3,0.3h0.2
			l0.2-0.3l-0.2-0.1c-0.1,0-0.1-0.1-0.2-0.1L-2,42l-0.2-0.3L-2.7,42c0-0.1,0-0.2,0-0.2v-0.2h-0.4v0.2c0,0.1,0,0.3,0.1,0.4l-0.8,0.4
			v-0.9c0.1,0,0.3-0.1,0.4-0.2l0.2-0.1l-0.2-0.3l-0.2,0.1c-0.1,0-0.1,0.1-0.2,0.1v-0.5h-0.4v0.5c-0.1,0-0.1,0-0.2-0.1l-0.2-0.1
			l-0.2,0.3l0.2,0.1c0.1,0.1,0.3,0.1,0.4,0.2v0.9L-5,42.2c0.1-0.1,0.1-0.3,0.1-0.4v-0.2h-0.4v0.2c0,0.1,0,0.2,0,0.2l-0.5-0.3L-6,42
			l0.5,0.3c-0.1,0-0.1,0.1-0.2,0.1l-0.2,0.1l0.2,0.3l0.2-0.1c0.1-0.1,0.2-0.2,0.3-0.3l0.8,0.4l-0.8,0.4c-0.1-0.1-0.2-0.2-0.3-0.3
			l-0.2-0.1l-0.2,0.3l0.2,0.1c0.1,0,0.1,0.1,0.2,0.1L-6,43.8l0.2,0.3l0.5-0.3c0,0.1,0,0.2,0,0.2v0.2h0.4V44c0-0.1,0-0.3-0.1-0.4
			l0.8-0.4v0.9c-0.1,0-0.3,0.1-0.4,0.2l-0.2,0.1l0.2,0.3l0.2-0.1c0.1,0,0.1-0.1,0.2-0.1V45h0.4v-0.5c0.1,0,0.1,0,0.2,0.1l0.2,0.1
			l0.2-0.3l-0.2-0.1c-0.1-0.1-0.3-0.1-0.4-0.2v-0.9l0.8,0.4c-0.1,0.1-0.1,0.3-0.1,0.4v0.2h0.4V44c0-0.1,0-0.2,0-0.2l0.5,0.3l0.2-0.3
			l-0.5-0.3C-2.5,43.5-2.4,43.5-2.3,43.4z"/>
	</g>
	<g>
		
			<linearGradient id="SVGID_3_" gradientUnits="userSpaceOnUse" x1="-0.9662" y1="29.1484" x2="3.3341" y2="29.1484" gradientTransform="matrix(1 0 0 -1 0 72)">
			<stop  offset="0" style="stop-color:#D300FF"/>
			<stop  offset="0.8565" style="stop-color:#42FFFF"/>
		</linearGradient>
		<path class="st3" d="M3,43.4l0.2-0.1L3,43l-0.2,0.1c-0.1,0.1-0.2,0.2-0.3,0.3l-0.8-0.5l0.8-0.4c0.1,0.1,0.2,0.2,0.3,0.3H3l0.2-0.3
			L3,42.4c-0.1,0-0.1-0.1-0.2-0.1L3.3,42l-0.2-0.3L2.6,42c0-0.1,0-0.2,0-0.2v-0.2H2.2v0.2c0,0.1,0,0.3,0.1,0.4l-0.8,0.4v-0.9
			c0.1,0,0.3-0.1,0.4-0.2l0.2-0.1l-0.2-0.3l-0.2,0.1c-0.1,0-0.1,0.1-0.2,0.1v-0.5H1.1v0.5c-0.1,0-0.1,0-0.2-0.1l-0.2-0.1l-0.2,0.3
			l0.2,0.1c0.1,0.1,0.3,0.1,0.4,0.2v0.9l-0.8-0.4c0.1-0.1,0.1-0.3,0.1-0.4v-0.2H0v0.2C0,41.9,0,42,0,42l-0.5-0.3L-0.7,42l0.5,0.3
			c-0.1,0-0.1,0.1-0.2,0.1l-0.2,0.1l0.2,0.3l0.2-0.1c0.1-0.1,0.2-0.2,0.3-0.3l0.8,0.4l-0.8,0.4C0,43.1-0.1,43-0.2,42.9l-0.2-0.1
			l-0.2,0.3l0.2,0.1c0.1,0,0.1,0.1,0.2,0.1l-0.5,0.5l0.2,0.3L0,43.8C0,43.9,0,44,0,44v0.2h0.4V44c0-0.1,0-0.3-0.1-0.4l0.8-0.4v0.9
			c-0.1,0-0.3,0.1-0.4,0.2l-0.2,0.1l0.2,0.3l0.2-0.1c0.1,0,0.1-0.1,0.2-0.1V45h0.4v-0.5c0.1,0,0.1,0,0.2,0.1l0.2,0.1l0.2-0.3
			l-0.2-0.1c-0.1-0.1-0.3-0.1-0.4-0.2v-0.9l0.8,0.4c-0.1,0.1-0.1,0.3-0.1,0.4v0.2h0.4V44c0-0.1,0-0.2,0-0.2l0.5,0.3l0.2-0.3
			l-0.5-0.3C2.8,43.5,2.9,43.5,3,43.4z"/>
		<path class="st2" d="M3,43.4l0.2-0.1L3,43l-0.2,0.1c-0.1,0.1-0.2,0.2-0.3,0.3l-0.8-0.5l0.8-0.4c0.1,0.1,0.2,0.2,0.3,0.3H3l0.2-0.3
			L3,42.4c-0.1,0-0.1-0.1-0.2-0.1L3.3,42l-0.2-0.3L2.6,42c0-0.1,0-0.2,0-0.2v-0.2H2.2v0.2c0,0.1,0,0.3,0.1,0.4l-0.8,0.4v-0.9
			c0.1,0,0.3-0.1,0.4-0.2l0.2-0.1l-0.2-0.3l-0.2,0.1c-0.1,0-0.1,0.1-0.2,0.1v-0.5H1.1v0.5c-0.1,0-0.1,0-0.2-0.1l-0.2-0.1l-0.2,0.3
			l0.2,0.1c0.1,0.1,0.3,0.1,0.4,0.2v0.9l-0.8-0.4c0.1-0.1,0.1-0.3,0.1-0.4v-0.2H0v0.2C0,41.9,0,42,0,42l-0.5-0.3L-0.7,42l0.5,0.3
			c-0.1,0-0.1,0.1-0.2,0.1l-0.2,0.1l0.2,0.3l0.2-0.1c0.1-0.1,0.2-0.2,0.3-0.3l0.8,0.4l-0.8,0.4C0,43.1-0.1,43-0.2,42.9l-0.2-0.1
			l-0.2,0.3l0.2,0.1c0.1,0,0.1,0.1,0.2,0.1l-0.5,0.5l0.2,0.3L0,43.8C0,43.9,0,44,0,44v0.2h0.4V44c0-0.1,0-0.3-0.1-0.4l0.8-0.4v0.9
			c-0.1,0-0.3,0.1-0.4,0.2l-0.2,0.1l0.2,0.3l0.2-0.1c0.1,0,0.1-0.1,0.2-0.1V45h0.4v-0.5c0.1,0,0.1,0,0.2,0.1l0.2,0.1l0.2-0.3
			l-0.2-0.1c-0.1-0.1-0.3-0.1-0.4-0.2v-0.9l0.8,0.4c-0.1,0.1-0.1,0.3-0.1,0.4v0.2h0.4V44c0-0.1,0-0.2,0-0.2l0.5,0.3l0.2-0.3
			l-0.5-0.3C2.8,43.5,2.9,43.5,3,43.4z"/>
	</g>
	<g>
		
			<linearGradient id="SVGID_4_" gradientUnits="userSpaceOnUse" x1="4.4086" y1="29.1484" x2="8.7089" y2="29.1484" gradientTransform="matrix(1 0 0 -1 0 72)">
			<stop  offset="0" style="stop-color:#D300FF"/>
			<stop  offset="0.8565" style="stop-color:#42FFFF"/>
		</linearGradient>
		<path class="st4" d="M8.4,43.4l0.2-0.1L8.4,43l-0.2,0.1c-0.1,0.1-0.2,0.2-0.3,0.3l-0.8-0.5l0.8-0.4c0.1,0.1,0.2,0.2,0.3,0.3h0.2
			l0.2-0.3l-0.2-0.1c-0.1,0-0.1-0.1-0.2-0.1L8.7,42l-0.2-0.3L8,42c0-0.1,0-0.2,0-0.2v-0.2H7.6v0.2c0,0.1,0,0.3,0.1,0.4l-0.8,0.4
			v-0.9c0.1,0,0.3-0.1,0.4-0.2l0.2-0.1l-0.2-0.3l-0.2,0.1c-0.1,0-0.1,0.1-0.2,0.1v-0.5H6.5v0.5c-0.1,0-0.1,0-0.2-0.1l-0.2-0.1
			l-0.2,0.3l0.2,0.1c0.1,0.1,0.3,0.1,0.4,0.2v0.9l-0.8-0.4c0.1-0.1,0.1-0.3,0.1-0.4v-0.2H5.4v0.2c0,0.1,0,0.2,0,0.2l-0.5-0.3L4.7,42
			l0.5,0.3c-0.1,0-0.1,0.1-0.2,0.1l-0.2,0.1L5,42.8l0.2-0.1c0.1-0.1,0.2-0.2,0.3-0.3l0.8,0.4l-0.8,0.4c-0.1-0.1-0.2-0.2-0.3-0.3
			L5,42.8l-0.2,0.3L5,43.2c0.1,0,0.1,0.1,0.2,0.1l-0.5,0.5l0.2,0.3l0.5-0.3c0,0.1,0,0.2,0,0.2v0.2h0.4V44c0-0.1,0-0.3-0.1-0.4
			l0.8-0.4v0.9c-0.1,0-0.3,0.1-0.4,0.2l-0.2,0.1l0.2,0.3l0.2-0.1c0.1,0,0.1-0.1,0.2-0.1V45h0.4v-0.5c0.1,0,0.1,0,0.2,0.1l0.2,0.1
			l0.2-0.3l-0.2-0.1c-0.1-0.1-0.3-0.1-0.4-0.2v-0.9l0.8,0.4c-0.1,0.1-0.1,0.3-0.1,0.4v0.2H8V44c0-0.1,0-0.2,0-0.2l0.5,0.3l0.2-0.3
			l-0.5-0.3C8.2,43.5,8.3,43.5,8.4,43.4z"/>
		<path class="st2" d="M8.4,43.4l0.2-0.1L8.4,43l-0.2,0.1c-0.1,0.1-0.2,0.2-0.3,0.3l-0.8-0.5l0.8-0.4c0.1,0.1,0.2,0.2,0.3,0.3h0.2
			l0.2-0.3l-0.2-0.1c-0.1,0-0.1-0.1-0.2-0.1L8.7,42l-0.2-0.3L8,42c0-0.1,0-0.2,0-0.2v-0.2H7.6v0.2c0,0.1,0,0.3,0.1,0.4l-0.8,0.4
			v-0.9c0.1,0,0.3-0.1,0.4-0.2l0.2-0.1l-0.2-0.3l-0.2,0.1c-0.1,0-0.1,0.1-0.2,0.1v-0.5H6.5v0.5c-0.1,0-0.1,0-0.2-0.1l-0.2-0.1
			l-0.2,0.3l0.2,0.1c0.1,0.1,0.3,0.1,0.4,0.2v0.9l-0.8-0.4c0.1-0.1,0.1-0.3,0.1-0.4v-0.2H5.4v0.2c0,0.1,0,0.2,0,0.2l-0.5-0.3L4.7,42
			l0.5,0.3c-0.1,0-0.1,0.1-0.2,0.1l-0.2,0.1L5,42.8l0.2-0.1c0.1-0.1,0.2-0.2,0.3-0.3l0.8,0.4l-0.8,0.4c-0.1-0.1-0.2-0.2-0.3-0.3
			L5,42.8l-0.2,0.3L5,43.2c0.1,0,0.1,0.1,0.2,0.1l-0.5,0.5l0.2,0.3l0.5-0.3c0,0.1,0,0.2,0,0.2v0.2h0.4V44c0-0.1,0-0.3-0.1-0.4
			l0.8-0.4v0.9c-0.1,0-0.3,0.1-0.4,0.2l-0.2,0.1l0.2,0.3l0.2-0.1c0.1,0,0.1-0.1,0.2-0.1V45h0.4v-0.5c0.1,0,0.1,0,0.2,0.1l0.2,0.1
			l0.2-0.3l-0.2-0.1c-0.1-0.1-0.3-0.1-0.4-0.2v-0.9l0.8,0.4c-0.1,0.1-0.1,0.3-0.1,0.4v0.2H8V44c0-0.1,0-0.2,0-0.2l0.5,0.3l0.2-0.3
			l-0.5-0.3C8.2,43.5,8.3,43.5,8.4,43.4z"/>
	</g>
</g>
</svg>
