<?xml version="1.0" encoding="utf-8"?>
<!-- Generator: Adobe Illustrator 19.0.0, SVG Export Plug-In . SVG Version: 6.00 Build 0)  -->
<svg version="1.1" id="Capa_1" xmlns="http://www.w3.org/2000/svg" xmlns:xlink="http://www.w3.org/1999/xlink" x="0px" y="0px"
	 viewBox="-15 17 32 32" style="enable-background:new -15 17 32 32;" xml:space="preserve">
<style type="text/css">
	.st0{fill:url(#XMLID_3_);}
	.st1{fill:url(#XMLID_4_);}
	.st2{fill:url(#XMLID_8_);}
	.st3{fill:url(#XMLID_9_);}
	.st4{fill:url(#XMLID_12_);}
	.st5{fill:url(#XMLID_13_);}
	.st6{fill:url(#XMLID_14_);}
	.st7{fill:url(#XMLID_17_);}
	.st8{fill:url(#XMLID_20_);}
	.st9{fill:url(#XMLID_21_);}
	.st10{fill:url(#XMLID_24_);}
	.st11{fill:url(#XMLID_27_);}
	.st12{fill:url(#XMLID_28_);}
	.st13{fill:#47C3C9;stroke:url(#SVGID_1_);stroke-width:0.5;stroke-miterlimit:10;}
	.st14{fill:none;stroke:url(#SVGID_2_);stroke-width:0.25;stroke-miterlimit:10;}
	.st15{fill:#193372;}
	.st16{fill:none;stroke:url(#SVGID_3_);stroke-width:0.25;stroke-miterlimit:10;}
	.st17{fill:none;stroke:url(#SVGID_4_);stroke-width:0.25;stroke-miterlimit:10;}
	.st18{fill:none;stroke:url(#SVGID_5_);stroke-width:0.25;stroke-miterlimit:10;}
</style>
<g>
	<g id="XMLID_6_">
		
			<linearGradient id="XMLID_3_" gradientUnits="userSpaceOnUse" x1="0.6106" y1="36.2126" x2="-13.7124" y2="53.4586" gradientTransform="matrix(1 0 0 -1 0 72)">
			<stop  offset="0" style="stop-color:#D300FF"/>
			<stop  offset="0.8565" style="stop-color:#42FFFF"/>
		</linearGradient>
		<circle id="XMLID_2_" class="st0" cx="-4.9" cy="29.2" r="5.3"/>
		
			<linearGradient id="XMLID_4_" gradientUnits="userSpaceOnUse" x1="5.0626" y1="39.3019" x2="-9.7057" y2="57.0843" gradientTransform="matrix(1 0 0 -1 0 72)">
			<stop  offset="0" style="stop-color:#D300FF"/>
			<stop  offset="0.8565" style="stop-color:#42FFFF"/>
		</linearGradient>
		<path id="XMLID_5_" class="st1" d="M-4.8,22.5H-5c-0.4,0-0.7-0.3-0.7-0.7v-2.1c0-0.4,0.3-0.7,0.7-0.7h0.2c0.4,0,0.7,0.3,0.7,0.7
			v2.2C-4.1,22.2-4.4,22.5-4.8,22.5z"/>
		
			<linearGradient id="XMLID_8_" gradientUnits="userSpaceOnUse" x1="-3.1467" y1="32.9867" x2="-17.915" y2="50.7689" gradientTransform="matrix(1 0 0 -1 0 72)">
			<stop  offset="0" style="stop-color:#D300FF"/>
			<stop  offset="0.8565" style="stop-color:#42FFFF"/>
		</linearGradient>
		<path id="XMLID_7_" class="st2" d="M-4.8,38.7H-5c-0.4,0-0.7-0.3-0.7-0.7v-2.1c0-0.4,0.3-0.7,0.7-0.7h0.2c0.4,0,0.7,0.3,0.7,0.7
			V38C-4.1,38.3-4.4,38.7-4.8,38.7z"/>
		
			<linearGradient id="XMLID_9_" gradientUnits="userSpaceOnUse" x1="-3.7488" y1="31.977" x2="-18.5562" y2="49.8063" gradientTransform="matrix(1 0 0 -1 0 72)">
			<stop  offset="0" style="stop-color:#D300FF"/>
			<stop  offset="0.8565" style="stop-color:#42FFFF"/>
		</linearGradient>
		<path id="XMLID_11_" class="st3" d="M-11.3,28.8V29c0,0.4-0.3,0.7-0.7,0.7h-2c-0.4,0-0.7-0.3-0.7-0.7v-0.2c0-0.4,0.3-0.7,0.7-0.7
			h2.1C-11.6,28.2-11.3,28.5-11.3,28.8z"/>
		
			<linearGradient id="XMLID_12_" gradientUnits="userSpaceOnUse" x1="5.6153" y1="40.2079" x2="-9.1921" y2="58.0372" gradientTransform="matrix(1 0 0 -1 0 72)">
			<stop  offset="0" style="stop-color:#D300FF"/>
			<stop  offset="0.8565" style="stop-color:#42FFFF"/>
		</linearGradient>
		<path id="XMLID_10_" class="st4" d="M4.9,28.8V29c0,0.4-0.3,0.7-0.7,0.7h-2c-0.4,0-0.7-0.3-0.7-0.7v-0.2c0-0.4,0.3-0.7,0.7-0.7
			h2.1C4.6,28.2,4.9,28.5,4.9,28.8z"/>
		
			<linearGradient id="XMLID_13_" gradientUnits="userSpaceOnUse" x1="6.9879" y1="41.342" x2="-7.5763" y2="58.8784" gradientTransform="matrix(1 0 0 -1 0 72)">
			<stop  offset="0" style="stop-color:#D300FF"/>
			<stop  offset="0.8565" style="stop-color:#42FFFF"/>
		</linearGradient>
		<path id="XMLID_19_" class="st5" d="M0.6,25.7l-0.1-0.2c-0.2-0.3-0.1-0.7,0.2-0.9l1.8-1.1c0.3-0.2,0.7-0.1,0.9,0.2l0.1,0.2
			c0.2,0.3,0.1,0.7-0.2,0.9l-1.8,1.1C1.2,26,0.8,26,0.6,25.7z"/>
		
			<linearGradient id="XMLID_14_" gradientUnits="userSpaceOnUse" x1="-5.282" y1="31.0995" x2="-19.8462" y2="48.636" gradientTransform="matrix(1 0 0 -1 0 72)">
			<stop  offset="0" style="stop-color:#D300FF"/>
			<stop  offset="0.8565" style="stop-color:#42FFFF"/>
		</linearGradient>
		<path id="XMLID_18_" class="st6" d="M-13.2,34l-0.1-0.2c-0.2-0.3-0.1-0.7,0.2-0.9l1.8-1.1c0.3-0.2,0.7-0.1,0.9,0.2l0.1,0.2
			c0.2,0.3,0.1,0.7-0.2,0.9l-1.8,1.1C-12.6,34.5-13,34.3-13.2,34z"/>
		
			<linearGradient id="XMLID_17_" gradientUnits="userSpaceOnUse" x1="1.7618" y1="36.9692" x2="-12.6919" y2="54.3726" gradientTransform="matrix(1 0 0 -1 0 72)">
			<stop  offset="0" style="stop-color:#D300FF"/>
			<stop  offset="0.8565" style="stop-color:#42FFFF"/>
		</linearGradient>
		<path id="XMLID_16_" class="st7" d="M-8.1,23.4l-0.2,0.1c-0.3,0.2-0.7,0.1-0.9-0.2l-1.1-1.8c-0.2-0.3-0.1-0.7,0.2-0.9l0.2-0.1
			c0.3-0.2,0.7-0.1,0.9,0.2l1.1,1.8C-7.7,22.8-7.8,23.2-8.1,23.4z"/>
		
			<linearGradient id="XMLID_20_" gradientUnits="userSpaceOnUse" x1="-0.1429" y1="35.577" x2="-14.5966" y2="52.9805" gradientTransform="matrix(1 0 0 -1 0 72)">
			<stop  offset="0" style="stop-color:#D300FF"/>
			<stop  offset="0.8565" style="stop-color:#42FFFF"/>
		</linearGradient>
		<path id="XMLID_15_" class="st8" d="M0.3,37.2l-0.2,0.1c-0.3,0.2-0.7,0.1-0.9-0.2l-1.1-1.8C-2.1,35-2,34.5-1.7,34.3l0.2-0.1
			c0.3-0.2,0.7-0.1,0.9,0.2l1.1,1.8C0.7,36.5,0.6,37,0.3,37.2z"/>
		
			<linearGradient id="XMLID_21_" gradientUnits="userSpaceOnUse" x1="3.0171" y1="38.1772" x2="-11.5962" y2="55.7728" gradientTransform="matrix(1 0 0 -1 0 72)">
			<stop  offset="0" style="stop-color:#D300FF"/>
			<stop  offset="0.8565" style="stop-color:#42FFFF"/>
		</linearGradient>
		<path id="XMLID_26_" class="st9" d="M0.6,32l0.1-0.2c0.2-0.3,0.6-0.4,0.9-0.3l1.8,1c0.3,0.2,0.4,0.6,0.3,0.9l-0.1,0.2
			C3.4,34,3,34.1,2.7,34l-1.8-1C0.6,32.8,0.5,32.5,0.6,32z"/>
		
			<linearGradient id="XMLID_24_" gradientUnits="userSpaceOnUse" x1="-1.2889" y1="34.2039" x2="-15.9021" y2="51.7995" gradientTransform="matrix(1 0 0 -1 0 72)">
			<stop  offset="0" style="stop-color:#D300FF"/>
			<stop  offset="0.8565" style="stop-color:#42FFFF"/>
		</linearGradient>
		<path id="XMLID_25_" class="st10" d="M-13.5,24.3l0.1-0.2c0.2-0.3,0.6-0.4,0.9-0.3l1.8,1c0.3,0.2,0.4,0.6,0.3,0.9l-0.1,0.2
			c-0.2,0.3-0.6,0.4-0.9,0.3l-1.8-1C-13.5,25-13.7,24.5-13.5,24.3z"/>
		
			<linearGradient id="XMLID_27_" gradientUnits="userSpaceOnUse" x1="6.7551" y1="40.8599" x2="-7.9954" y2="58.6207" gradientTransform="matrix(1 0 0 -1 0 72)">
			<stop  offset="0" style="stop-color:#D300FF"/>
			<stop  offset="0.8565" style="stop-color:#42FFFF"/>
		</linearGradient>
		<path id="XMLID_23_" class="st11" d="M-1.7,23.4l-0.2-0.1c-0.3-0.2-0.4-0.6-0.3-0.9l1-1.8c0.2-0.3,0.6-0.4,0.9-0.3l0.2,0.1
			c0.3,0.2,0.4,0.6,0.3,0.9l-1,1.8C-1,23.5-1.4,23.5-1.7,23.4z"/>
		
			<linearGradient id="XMLID_28_" gradientUnits="userSpaceOnUse" x1="-4.9024" y1="31.4047" x2="-19.6529" y2="49.1655" gradientTransform="matrix(1 0 0 -1 0 72)">
			<stop  offset="0" style="stop-color:#D300FF"/>
			<stop  offset="0.8565" style="stop-color:#42FFFF"/>
		</linearGradient>
		<path id="XMLID_22_" class="st12" d="M-9.5,37.5l-0.2-0.1c-0.3-0.2-0.4-0.6-0.3-0.9l1-1.8c0.2-0.3,0.6-0.4,0.9-0.3l0.2,0.1
			c0.3,0.2,0.4,0.6,0.3,0.9l-1,1.8C-8.8,37.5-9.2,37.7-9.5,37.5z"/>
	</g>
	<g>
		
			<linearGradient id="SVGID_1_" gradientUnits="userSpaceOnUse" x1="11.9618" y1="25.5277" x2="-4.2889" y2="42.0515" gradientTransform="matrix(0.9997 -2.626982e-002 -2.626982e-002 -0.9997 0.7805 69.6263)">
			<stop  offset="0" style="stop-color:#D300FF"/>
			<stop  offset="0.8565" style="stop-color:#42FFFF"/>
		</linearGradient>
		<path class="st13" d="M16.7,37c0.1-2.4-1.8-4.5-4.3-4.5c-0.1,0-0.2,0-0.4,0c0.5-0.9,0.7-1.8,0.8-2.9C12.9,26,10.1,23,6.5,23
			c-3.1-0.1-5.8,2.1-6.5,5.1c-4.5-1.6-7.7,2.4-7.3,5.5c-2.3-0.2-3.8,1.6-3.9,3.6c-0.1,1.8,1,3.4,2.5,4.1l0,0l0,0
			c0.5,0.2,1.1,0.4,1.7,0.4l20.4-0.5C15.2,40.7,16.6,39,16.7,37z"/>
	</g>
	<g>
		
			<linearGradient id="SVGID_2_" gradientUnits="userSpaceOnUse" x1="-5.6985" y1="41.05" x2="-1.7855" y2="41.05" gradientTransform="matrix(1 0 0 1 0 4)">
			<stop  offset="0" style="stop-color:#D300FF"/>
			<stop  offset="0.8565" style="stop-color:#42FFFF"/>
		</linearGradient>
		<path class="st14" d="M-2.2,45.5l0.2-0.1l-0.2-0.3l-0.2,0.1c-0.1,0.1-0.2,0.2-0.3,0.3L-3.4,45l0.7-0.4c0.1,0.1,0.2,0.2,0.3,0.3
			h0.2l0.2-0.3l-0.2-0.1c-0.1,0-0.1-0.1-0.2-0.1l0.5-0.3l-0.2-0.3l-0.5,0.3c0-0.1,0-0.2,0-0.2v-0.2H-3v0.2c0,0.1,0,0.3,0.1,0.4
			l-0.6,0.5V44c0.1,0,0.3-0.1,0.4-0.2l0.2-0.1l-0.2-0.3l-0.2,0.1c-0.1,0-0.1,0.1-0.2,0.1V43h-0.4v0.5c-0.1,0-0.1,0-0.2-0.1l-0.2-0.1
			l-0.2,0.3l0.2,0.1c0.1,0.1,0.3,0.1,0.4,0.2v0.8l-0.7-0.4c0.1-0.1,0.1-0.3,0.1-0.4v-0.2h-0.4v0.2c0,0.1,0,0.2,0,0.2l-0.5-0.3
			l-0.2,0.3l0.5,0.3c-0.1,0-0.1,0.1-0.2,0.1l-0.2,0.1l0.2,0.3l0.2-0.1c0.1-0.1,0.2-0.2,0.3-0.3l0.7,0.4l-0.7,0.4
			C-4.9,45.3-5,45.1-5.1,45L-5.3,45l-0.2,0.3l0.2,0.1c0.1,0,0.1,0.1,0.2,0.1l-0.5,0.5l0.2,0.3l0.5-0.3c0,0.1,0,0.2,0,0.2v0.2h0.4
			v-0.2c0-0.1,0-0.3-0.1-0.4l0.7-0.4v0.8c-0.1,0-0.3,0.1-0.4,0.2l-0.2,0.1l0.2,0.3l0.2-0.1c0.1,0,0.1-0.1,0.2-0.1V47h0.4v-0.5
			c0.1,0,0.1,0,0.2,0.1l0.2,0.1l0.2-0.3l-0.2-0.1c-0.1-0.1-0.3-0.1-0.4-0.2v-0.8l0.7,0.4c-0.1,0.1-0.1,0.3-0.1,0.4v0.2h0.4v-0.2
			c0-0.1,0-0.2,0-0.2l0.5,0.3l0.2-0.3l-0.5-0.3C-2.4,45.5-2.3,45.5-2.2,45.5z"/>
		<path class="st15" d="M-2.2,45.5l0.2-0.1l-0.2-0.3l-0.2,0.1c-0.1,0.1-0.2,0.2-0.3,0.3L-3.4,45l0.7-0.4c0.1,0.1,0.2,0.2,0.3,0.3
			h0.2l0.2-0.3l-0.2-0.1c-0.1,0-0.1-0.1-0.2-0.1l0.5-0.3l-0.2-0.3l-0.5,0.3c0-0.1,0-0.2,0-0.2v-0.2H-3v0.2c0,0.1,0,0.3,0.1,0.4
			l-0.6,0.5V44c0.1,0,0.3-0.1,0.4-0.2l0.2-0.1l-0.2-0.3l-0.2,0.1c-0.1,0-0.1,0.1-0.2,0.1V43h-0.4v0.5c-0.1,0-0.1,0-0.2-0.1l-0.2-0.1
			l-0.2,0.3l0.2,0.1c0.1,0.1,0.3,0.1,0.4,0.2v0.8l-0.7-0.4c0.1-0.1,0.1-0.3,0.1-0.4v-0.2h-0.4v0.2c0,0.1,0,0.2,0,0.2l-0.5-0.3
			l-0.2,0.3l0.5,0.3c-0.1,0-0.1,0.1-0.2,0.1l-0.2,0.1l0.2,0.3l0.2-0.1c0.1-0.1,0.2-0.2,0.3-0.3l0.7,0.4l-0.7,0.4
			C-4.9,45.3-5,45.1-5.1,45L-5.3,45l-0.2,0.3l0.2,0.1c0.1,0,0.1,0.1,0.2,0.1l-0.5,0.5l0.2,0.3l0.5-0.3c0,0.1,0,0.2,0,0.2v0.2h0.4
			v-0.2c0-0.1,0-0.3-0.1-0.4l0.7-0.4v0.8c-0.1,0-0.3,0.1-0.4,0.2l-0.2,0.1l0.2,0.3l0.2-0.1c0.1,0,0.1-0.1,0.2-0.1V47h0.4v-0.5
			c0.1,0,0.1,0,0.2,0.1l0.2,0.1l0.2-0.3l-0.2-0.1c-0.1-0.1-0.3-0.1-0.4-0.2v-0.8l0.7,0.4c-0.1,0.1-0.1,0.3-0.1,0.4v0.2h0.4v-0.2
			c0-0.1,0-0.2,0-0.2l0.5,0.3l0.2-0.3l-0.5-0.3C-2.4,45.5-2.3,45.5-2.2,45.5z"/>
	</g>
	<g>
		
			<linearGradient id="SVGID_3_" gradientUnits="userSpaceOnUse" x1="-0.8433" y1="41" x2="3.0697" y2="41" gradientTransform="matrix(1 0 0 1 0 4)">
			<stop  offset="0" style="stop-color:#D300FF"/>
			<stop  offset="0.8565" style="stop-color:#42FFFF"/>
		</linearGradient>
		<path class="st16" d="M2.7,45.5l0.2-0.1l-0.2-0.3l-0.2,0.1c-0.1,0.1-0.2,0.2-0.3,0.3L1.5,45l0.7-0.4c0.1,0.1,0.2,0.2,0.3,0.3h0.2
			l0.2-0.3l-0.2-0.1c-0.1,0-0.1-0.1-0.2-0.1L3,44.1l-0.2-0.3l-0.5,0.3c0-0.1,0-0.2,0-0.2v-0.2H1.9v0.2c0,0.1,0,0.3,0.1,0.4l-0.7,0.5
			V44c0.1,0,0.3-0.1,0.4-0.2l0.2-0.1l-0.2-0.3l-0.2,0.1c-0.1,0-0.1,0.1-0.2,0.1V43H1v0.5c-0.1,0-0.1,0-0.2-0.1l-0.2-0.1l-0.2,0.3
			l0.2,0.1C0.7,43.8,0.9,43.8,1,44v0.8l-0.7-0.4c0.1-0.1,0.1-0.3,0.1-0.4v-0.2H0v0.2c0,0.1,0,0.2,0,0.2l-0.5-0.3l-0.2,0.3l0.5,0.3
			c-0.1,0-0.1,0.1-0.2,0.1l-0.2,0.1l0.2,0.3l0.2-0.1c0.1-0.1,0.2-0.2,0.3-0.3l0.7,0.4l-0.7,0.4C0,45.3-0.1,45.1-0.2,45L-0.4,45
			l-0.2,0.3l0.2,0.1c0.1,0,0.1,0.1,0.2,0.1l-0.5,0.5l0.2,0.3L0,45.8C0,45.9,0,46,0,46v0.2h0.4V46c0-0.1,0-0.3-0.1-0.4L1,45.3V46
			c-0.1,0-0.3,0.1-0.4,0.2l-0.2,0.1l0.2,0.3l0.2-0.1c0.1,0,0.1-0.1,0.2-0.1V47h0.4v-0.5c0.1,0,0.1,0,0.2,0.1l0.2,0.1L2,46.3
			l-0.2-0.1c-0.1-0.1-0.3-0.1-0.4-0.2v-0.8L2,45.7c-0.1,0.1-0.1,0.3-0.1,0.4v0.2h0.4v-0.2c0-0.1,0-0.2,0-0.2l0.5,0.3L3,45.9
			l-0.5-0.3C2.5,45.5,2.6,45.5,2.7,45.5z"/>
		<path class="st15" d="M2.7,45.5l0.2-0.1l-0.2-0.3l-0.2,0.1c-0.1,0.1-0.2,0.2-0.3,0.3L1.5,45l0.7-0.4c0.1,0.1,0.2,0.2,0.3,0.3h0.2
			l0.2-0.3l-0.2-0.1c-0.1,0-0.1-0.1-0.2-0.1L3,44.1l-0.2-0.3l-0.5,0.3c0-0.1,0-0.2,0-0.2v-0.2H1.9v0.2c0,0.1,0,0.3,0.1,0.4l-0.7,0.5
			V44c0.1,0,0.3-0.1,0.4-0.2l0.2-0.1l-0.2-0.3l-0.2,0.1c-0.1,0-0.1,0.1-0.2,0.1V43H1v0.5c-0.1,0-0.1,0-0.2-0.1l-0.2-0.1l-0.2,0.3
			l0.2,0.1C0.7,43.8,0.9,43.8,1,44v0.8l-0.7-0.4c0.1-0.1,0.1-0.3,0.1-0.4v-0.2H0v0.2c0,0.1,0,0.2,0,0.2l-0.5-0.3l-0.2,0.3l0.5,0.3
			c-0.1,0-0.1,0.1-0.2,0.1l-0.2,0.1l0.2,0.3l0.2-0.1c0.1-0.1,0.2-0.2,0.3-0.3l0.7,0.4l-0.7,0.4C0,45.3-0.1,45.1-0.2,45L-0.4,45
			l-0.2,0.3l0.2,0.1c0.1,0,0.1,0.1,0.2,0.1l-0.5,0.5l0.2,0.3L0,45.8C0,45.9,0,46,0,46v0.2h0.4V46c0-0.1,0-0.3-0.1-0.4L1,45.3V46
			c-0.1,0-0.3,0.1-0.4,0.2l-0.2,0.1l0.2,0.3l0.2-0.1c0.1,0,0.1-0.1,0.2-0.1V47h0.4v-0.5c0.1,0,0.1,0,0.2,0.1l0.2,0.1L2,46.3
			l-0.2-0.1c-0.1-0.1-0.3-0.1-0.4-0.2v-0.8L2,45.7c-0.1,0.1-0.1,0.3-0.1,0.4v0.2h0.4v-0.2c0-0.1,0-0.2,0-0.2l0.5,0.3L3,45.9
			l-0.5-0.3C2.5,45.5,2.6,45.5,2.7,45.5z"/>
	</g>
	<g>
		
			<linearGradient id="SVGID_4_" gradientUnits="userSpaceOnUse" x1="3.5019" y1="41.05" x2="7.4149" y2="41.05" gradientTransform="matrix(1 0 0 1 0 4)">
			<stop  offset="0" style="stop-color:#D300FF"/>
			<stop  offset="0.8565" style="stop-color:#42FFFF"/>
		</linearGradient>
		<path class="st17" d="M7,45.5l0.2-0.1L7,45l-0.2,0.1c-0.1,0.1-0.2,0.2-0.3,0.3l-0.7-0.5l0.7-0.4c0.1,0.1,0.2,0.2,0.3,0.3H7
			l0.2-0.3l-0.2,0c-0.1,0-0.1-0.1-0.2-0.1l0.5-0.3l-0.2-0.3l-0.5,0.3c0-0.1,0-0.2,0-0.2v-0.2H6.3V44c0,0.1,0,0.3,0.1,0.4l-0.7,0.4
			V44c0.1,0,0.3-0.1,0.4-0.2l0.2-0.1L6,43.3l-0.2,0.1c-0.1,0-0.1,0.1-0.2,0.1V43H5.3v0.5c-0.1,0-0.1,0-0.2-0.1l-0.2-0.1l-0.2,0.3
			l0.2,0.1C5,43.8,5.2,43.8,5.3,44v0.8l-0.7-0.4c0.1-0.1,0.1-0.3,0.1-0.4v-0.2H4.3v0.2c0,0.1,0,0.2,0,0.2l-0.5-0.3l-0.2,0.3l0.5,0.3
			c-0.1,0-0.1,0.1-0.2,0.1l-0.2,0.1l0.2,0.3l0.2-0.1c0.1-0.1,0.2-0.2,0.3-0.3l0.7,0.4l-0.7,0.4c-0.1-0.1-0.2-0.2-0.3-0.3L3.9,45
			l-0.2,0.3l0.2,0.1c0.1,0,0.1,0.1,0.2,0.1l-0.5,0.5l0.2,0.3l0.5-0.3c0,0.1,0,0.2,0,0.2v0.2h0.4v-0.2c0-0.1,0-0.3-0.1-0.4l0.7-0.4
			v0.8c-0.1,0-0.3,0.1-0.4,0.2l-0.2,0.1l0.2,0.3l0.2-0.1c0.1,0,0.1-0.1,0.2-0.1V47h0.4v-0.5c0.1,0,0.1,0,0.2,0.1l0.1,0l0.2-0.3
			L6,46.3c-0.1-0.1-0.3-0.1-0.4-0.2v-0.8l0.7,0.4c-0.1,0.1-0.1,0.3-0.1,0.4v0.2h0.4v-0.2c0-0.1,0-0.2,0-0.2l0.5,0.3l0.2-0.3
			l-0.5-0.3C6.8,45.5,6.9,45.5,7,45.5z"/>
		<path class="st15" d="M7,45.5l0.2-0.1L7,45l-0.2,0.1c-0.1,0.1-0.2,0.2-0.3,0.3l-0.7-0.5l0.7-0.4c0.1,0.1,0.2,0.2,0.3,0.3H7
			l0.2-0.3l-0.2,0c-0.1,0-0.1-0.1-0.2-0.1l0.5-0.3l-0.2-0.3l-0.5,0.3c0-0.1,0-0.2,0-0.2v-0.2H6.3V44c0,0.1,0,0.3,0.1,0.4l-0.7,0.4
			V44c0.1,0,0.3-0.1,0.4-0.2l0.2-0.1L6,43.3l-0.2,0.1c-0.1,0-0.1,0.1-0.2,0.1V43H5.3v0.5c-0.1,0-0.1,0-0.2-0.1l-0.2-0.1l-0.2,0.3
			l0.2,0.1C5,43.8,5.2,43.8,5.3,44v0.8l-0.7-0.4c0.1-0.1,0.1-0.3,0.1-0.4v-0.2H4.3v0.2c0,0.1,0,0.2,0,0.2l-0.5-0.3l-0.2,0.3l0.5,0.3
			c-0.1,0-0.1,0.1-0.2,0.1l-0.2,0.1l0.2,0.3l0.2-0.1c0.1-0.1,0.2-0.2,0.3-0.3l0.7,0.4l-0.7,0.4c-0.1-0.1-0.2-0.2-0.3-0.3L3.9,45
			l-0.2,0.3l0.2,0.1c0.1,0,0.1,0.1,0.2,0.1l-0.5,0.5l0.2,0.3l0.5-0.3c0,0.1,0,0.2,0,0.2v0.2h0.4v-0.2c0-0.1,0-0.3-0.1-0.4l0.7-0.4
			v0.8c-0.1,0-0.3,0.1-0.4,0.2l-0.2,0.1l0.2,0.3l0.2-0.1c0.1,0,0.1-0.1,0.2-0.1V47h0.4v-0.5c0.1,0,0.1,0,0.2,0.1l0.1,0l0.2-0.3
			L6,46.3c-0.1-0.1-0.3-0.1-0.4-0.2v-0.8l0.7,0.4c-0.1,0.1-0.1,0.3-0.1,0.4v0.2h0.4v-0.2c0-0.1,0-0.2,0-0.2l0.5,0.3l0.2-0.3
			l-0.5-0.3C6.8,45.5,6.9,45.5,7,45.5z"/>
	</g>
	<g>
		
			<linearGradient id="SVGID_5_" gradientUnits="userSpaceOnUse" x1="8.3572" y1="41.05" x2="12.2701" y2="41.05" gradientTransform="matrix(1 0 0 1 0 4)">
			<stop  offset="0" style="stop-color:#D300FF"/>
			<stop  offset="0.8565" style="stop-color:#42FFFF"/>
		</linearGradient>
		<path class="st18" d="M11.9,45.5l0.2-0.1l-0.2-0.3l-0.2,0.1c-0.1,0.1-0.2,0.2-0.3,0.3L10.7,45l0.7-0.4c0.1,0.1,0.2,0.2,0.3,0.3
			h0.2l0.2-0.3l-0.2-0.1c-0.1,0-0.1-0.1-0.2-0.1l0.5-0.3L12,44l-0.5,0.3c0-0.1,0-0.2,0-0.2v-0.2h-0.4V44c0,0.1,0,0.3,0.1,0.4
			l-0.7,0.3V44c0.1,0,0.3-0.1,0.4-0.2l0.2-0.1l-0.2-0.3l-0.2,0.1c-0.1,0-0.1,0.1-0.2,0.1V43h-0.4v0.5c-0.1,0-0.1,0-0.2-0.1l-0.2-0.1
			l-0.2,0.3l0.3,0.1c0.1,0.1,0.3,0.1,0.4,0.2v0.8l-0.7-0.4c0.1-0.1,0.1-0.3,0.1-0.4v-0.2H9.2v0.2c0,0.1,0,0.2,0,0.2l-0.5-0.3
			l-0.2,0.3L9,44.5c-0.1,0-0.1,0.1-0.2,0.1l-0.2,0.1l0.2,0.3L9,44.8c0.1-0.1,0.2-0.2,0.3-0.3L10,45l-0.7,0.4
			c-0.1-0.1-0.2-0.2-0.3-0.3L8.8,45l-0.2,0.3l0.2,0.1c0.1,0,0.1,0.1,0.2,0.1L8.5,46l0.2,0.3L9.2,46c0,0.1,0,0.2,0,0.2v0.2h0.4v-0.2
			c0-0.1,0-0.3-0.1-0.4l0.7-0.4v0.8c-0.1,0-0.3,0.1-0.4,0.2l-0.2,0.1l0.2,0.3l0.2-0.1c0.1,0,0.1-0.1,0.2-0.1V47h0.4v-0.5
			c0.1,0,0.1,0,0.2,0.1l0.2,0.1l0.2-0.3L11,46.3c-0.1-0.1-0.3-0.1-0.4-0.2v-0.8l0.7,0.4c-0.1,0.1-0.1,0.3-0.1,0.4v0.2h0.4v-0.2
			c0-0.1,0-0.2,0-0.2l0.5,0.3l0.2-0.3l-0.5-0.3C11.7,45.5,11.8,45.5,11.9,45.5z"/>
		<path class="st15" d="M11.9,45.5l0.2-0.1l-0.2-0.3l-0.2,0.1c-0.1,0.1-0.2,0.2-0.3,0.3L10.7,45l0.7-0.4c0.1,0.1,0.2,0.2,0.3,0.3
			h0.2l0.2-0.3l-0.2-0.1c-0.1,0-0.1-0.1-0.2-0.1l0.5-0.3L12,44l-0.5,0.3c0-0.1,0-0.2,0-0.2v-0.2h-0.4V44c0,0.1,0,0.3,0.1,0.4
			l-0.7,0.3V44c0.1,0,0.3-0.1,0.4-0.2l0.2-0.1l-0.2-0.3l-0.2,0.1c-0.1,0-0.1,0.1-0.2,0.1V43h-0.4v0.5c-0.1,0-0.1,0-0.2-0.1l-0.2-0.1
			l-0.2,0.3l0.3,0.1c0.1,0.1,0.3,0.1,0.4,0.2v0.8l-0.7-0.4c0.1-0.1,0.1-0.3,0.1-0.4v-0.2H9.2v0.2c0,0.1,0,0.2,0,0.2l-0.5-0.3
			l-0.2,0.3L9,44.5c-0.1,0-0.1,0.1-0.2,0.1l-0.2,0.1l0.2,0.3L9,44.8c0.1-0.1,0.2-0.2,0.3-0.3L10,45l-0.7,0.4
			c-0.1-0.1-0.2-0.2-0.3-0.3L8.8,45l-0.2,0.3l0.2,0.1c0.1,0,0.1,0.1,0.2,0.1L8.5,46l0.2,0.3L9.2,46c0,0.1,0,0.2,0,0.2v0.2h0.4v-0.2
			c0-0.1,0-0.3-0.1-0.4l0.7-0.4v0.8c-0.1,0-0.3,0.1-0.4,0.2l-0.2,0.1l0.2,0.3l0.2-0.1c0.1,0,0.1-0.1,0.2-0.1V47h0.4v-0.5
			c0.1,0,0.1,0,0.2,0.1l0.2,0.1l0.2-0.3L11,46.3c-0.1-0.1-0.3-0.1-0.4-0.2v-0.8l0.7,0.4c-0.1,0.1-0.1,0.3-0.1,0.4v0.2h0.4v-0.2
			c0-0.1,0-0.2,0-0.2l0.5,0.3l0.2-0.3l-0.5-0.3C11.7,45.5,11.8,45.5,11.9,45.5z"/>
	</g>
</g>
</svg>
