<?xml version="1.0" encoding="utf-8"?>
<!-- Generator: Adobe Illustrator 19.0.0, SVG Export Plug-In . SVG Version: 6.00 Build 0)  -->
<svg version="1.1" id="Capa_1" xmlns="http://www.w3.org/2000/svg" xmlns:xlink="http://www.w3.org/1999/xlink" x="0px" y="0px"
	 viewBox="-15 17 32 32" style="enable-background:new -15 17 32 32;" xml:space="preserve">
<style type="text/css">
	.st0{fill:url(#XMLID_3_);}
	.st1{fill:url(#XMLID_4_);}
	.st2{fill:url(#XMLID_8_);}
	.st3{fill:url(#XMLID_9_);}
	.st4{fill:url(#XMLID_12_);}
	.st5{fill:url(#XMLID_13_);}
	.st6{fill:url(#XMLID_14_);}
	.st7{fill:url(#XMLID_17_);}
	.st8{fill:url(#XMLID_20_);}
	.st9{fill:url(#XMLID_21_);}
	.st10{fill:url(#XMLID_24_);}
	.st11{fill:url(#XMLID_27_);}
	.st12{fill:url(#XMLID_28_);}
	.st13{fill:#193372;stroke:url(#SVGID_1_);stroke-width:0.5;stroke-miterlimit:10;}
	.st14{fill:#47C3C9;}
</style>
<g>
	<g id="XMLID_6_">
		
			<linearGradient id="XMLID_3_" gradientUnits="userSpaceOnUse" x1="0.6106" y1="36.2626" x2="-13.7124" y2="53.5086" gradientTransform="matrix(1 0 0 -1 0 72)">
			<stop  offset="0" style="stop-color:#D300FF"/>
			<stop  offset="0.8565" style="stop-color:#42FFFF"/>
		</linearGradient>
		<circle id="XMLID_2_" class="st0" cx="-4.9" cy="29.1" r="5.3"/>
		
			<linearGradient id="XMLID_4_" gradientUnits="userSpaceOnUse" x1="5.0626" y1="39.3519" x2="-9.7057" y2="57.1343" gradientTransform="matrix(1 0 0 -1 0 72)">
			<stop  offset="0" style="stop-color:#D300FF"/>
			<stop  offset="0.8565" style="stop-color:#42FFFF"/>
		</linearGradient>
		<path id="XMLID_5_" class="st1" d="M-4.8,22.4H-5c-0.4,0-0.7-0.3-0.7-0.7v-2.1c0-0.4,0.3-0.7,0.7-0.7h0.2c0.4,0,0.7,0.3,0.7,0.7
			v2.2C-4.1,22.1-4.4,22.4-4.8,22.4z"/>
		
			<linearGradient id="XMLID_8_" gradientUnits="userSpaceOnUse" x1="-3.1467" y1="33.0367" x2="-17.915" y2="50.8189" gradientTransform="matrix(1 0 0 -1 0 72)">
			<stop  offset="0" style="stop-color:#D300FF"/>
			<stop  offset="0.8565" style="stop-color:#42FFFF"/>
		</linearGradient>
		<path id="XMLID_7_" class="st2" d="M-4.8,38.6H-5c-0.4,0-0.7-0.3-0.7-0.7v-2.1c0-0.4,0.3-0.7,0.7-0.7h0.2c0.4,0,0.7,0.3,0.7,0.7
			v2.1C-4.1,38.3-4.4,38.6-4.8,38.6z"/>
		
			<linearGradient id="XMLID_9_" gradientUnits="userSpaceOnUse" x1="-3.7488" y1="32.027" x2="-18.5562" y2="49.8563" gradientTransform="matrix(1 0 0 -1 0 72)">
			<stop  offset="0" style="stop-color:#D300FF"/>
			<stop  offset="0.8565" style="stop-color:#42FFFF"/>
		</linearGradient>
		<path id="XMLID_11_" class="st3" d="M-11.3,28.7v0.2c0,0.4-0.3,0.7-0.7,0.7h-2c-0.4,0-0.7-0.3-0.7-0.7v-0.2c0-0.4,0.3-0.7,0.7-0.7
			h2.1C-11.6,28.1-11.3,28.4-11.3,28.7z"/>
		
			<linearGradient id="XMLID_12_" gradientUnits="userSpaceOnUse" x1="5.6153" y1="40.2579" x2="-9.1921" y2="58.0872" gradientTransform="matrix(1 0 0 -1 0 72)">
			<stop  offset="0" style="stop-color:#D300FF"/>
			<stop  offset="0.8565" style="stop-color:#42FFFF"/>
		</linearGradient>
		<path id="XMLID_10_" class="st4" d="M4.9,28.7v0.2c0,0.4-0.3,0.7-0.7,0.7h-2c-0.4,0-0.7-0.3-0.7-0.7v-0.2c0-0.4,0.3-0.7,0.7-0.7
			h2.1C4.6,28.1,4.9,28.4,4.9,28.7z"/>
		
			<linearGradient id="XMLID_13_" gradientUnits="userSpaceOnUse" x1="6.9879" y1="41.392" x2="-7.5763" y2="58.9284" gradientTransform="matrix(1 0 0 -1 0 72)">
			<stop  offset="0" style="stop-color:#D300FF"/>
			<stop  offset="0.8565" style="stop-color:#42FFFF"/>
		</linearGradient>
		<path id="XMLID_19_" class="st5" d="M0.6,25.6l-0.1-0.2c-0.2-0.3-0.1-0.7,0.2-0.9l1.8-1.1c0.3-0.2,0.7-0.1,0.9,0.2l0.1,0.2
			c0.2,0.3,0.1,0.7-0.2,0.9l-1.8,1.1C1.2,26,0.8,25.9,0.6,25.6z"/>
		
			<linearGradient id="XMLID_14_" gradientUnits="userSpaceOnUse" x1="-5.282" y1="31.1495" x2="-19.8462" y2="48.686" gradientTransform="matrix(1 0 0 -1 0 72)">
			<stop  offset="0" style="stop-color:#D300FF"/>
			<stop  offset="0.8565" style="stop-color:#42FFFF"/>
		</linearGradient>
		<path id="XMLID_18_" class="st6" d="M-13.2,34l-0.1-0.2c-0.2-0.3-0.1-0.7,0.2-0.9l1.8-1.1c0.3-0.2,0.7-0.1,0.9,0.2l0.1,0.2
			c0.2,0.3,0.1,0.7-0.2,0.9l-1.8,1.1C-12.6,34.4-13,34.3-13.2,34z"/>
		
			<linearGradient id="XMLID_17_" gradientUnits="userSpaceOnUse" x1="1.7618" y1="37.0192" x2="-12.6919" y2="54.4226" gradientTransform="matrix(1 0 0 -1 0 72)">
			<stop  offset="0" style="stop-color:#D300FF"/>
			<stop  offset="0.8565" style="stop-color:#42FFFF"/>
		</linearGradient>
		<path id="XMLID_16_" class="st7" d="M-8.1,23.3l-0.2,0.1c-0.3,0.2-0.7,0.1-0.9-0.2l-1.1-1.8c-0.2-0.3-0.1-0.7,0.2-0.9l0.2-0.1
			c0.3-0.2,0.7-0.1,0.9,0.2l1.1,1.8C-7.7,22.7-7.8,23.1-8.1,23.3z"/>
		
			<linearGradient id="XMLID_20_" gradientUnits="userSpaceOnUse" x1="-0.1429" y1="35.627" x2="-14.5966" y2="53.0305" gradientTransform="matrix(1 0 0 -1 0 72)">
			<stop  offset="0" style="stop-color:#D300FF"/>
			<stop  offset="0.8565" style="stop-color:#42FFFF"/>
		</linearGradient>
		<path id="XMLID_15_" class="st8" d="M0.3,37.1l-0.2,0.1c-0.3,0.2-0.7,0.1-0.9-0.2l-1.1-1.8c-0.2-0.3-0.1-0.7,0.2-0.9l0.2-0.1
			c0.3-0.2,0.7-0.1,0.9,0.2l1.1,1.8C0.7,36.5,0.6,36.9,0.3,37.1z"/>
		
			<linearGradient id="XMLID_21_" gradientUnits="userSpaceOnUse" x1="3.0171" y1="38.2272" x2="-11.5962" y2="55.8228" gradientTransform="matrix(1 0 0 -1 0 72)">
			<stop  offset="0" style="stop-color:#D300FF"/>
			<stop  offset="0.8565" style="stop-color:#42FFFF"/>
		</linearGradient>
		<path id="XMLID_26_" class="st9" d="M0.6,32l0.1-0.2c0.2-0.3,0.6-0.4,0.9-0.3l1.8,1c0.3,0.2,0.4,0.6,0.3,0.9l-0.1,0.2
			C3.4,33.9,3,34,2.7,33.9l-1.8-1C0.6,32.8,0.5,32.4,0.6,32z"/>
		
			<linearGradient id="XMLID_24_" gradientUnits="userSpaceOnUse" x1="-1.2889" y1="34.2539" x2="-15.9021" y2="51.8495" gradientTransform="matrix(1 0 0 -1 0 72)">
			<stop  offset="0" style="stop-color:#D300FF"/>
			<stop  offset="0.8565" style="stop-color:#42FFFF"/>
		</linearGradient>
		<path id="XMLID_25_" class="st10" d="M-13.5,24.2l0.1-0.2c0.2-0.3,0.6-0.4,0.9-0.3l1.8,1c0.3,0.2,0.4,0.6,0.3,0.9l-0.1,0.2
			c-0.2,0.3-0.6,0.4-0.9,0.3l-1.8-1C-13.5,24.9-13.7,24.5-13.5,24.2z"/>
		
			<linearGradient id="XMLID_27_" gradientUnits="userSpaceOnUse" x1="6.7551" y1="40.9099" x2="-7.9954" y2="58.6707" gradientTransform="matrix(1 0 0 -1 0 72)">
			<stop  offset="0" style="stop-color:#D300FF"/>
			<stop  offset="0.8565" style="stop-color:#42FFFF"/>
		</linearGradient>
		<path id="XMLID_23_" class="st11" d="M-1.7,23.3l-0.2-0.1c-0.3-0.2-0.4-0.6-0.3-0.9l1-1.8c0.2-0.3,0.6-0.4,0.9-0.3l0.2,0.1
			c0.3,0.2,0.4,0.6,0.3,0.9l-1,1.8C-1,23.4-1.4,23.5-1.7,23.3z"/>
		
			<linearGradient id="XMLID_28_" gradientUnits="userSpaceOnUse" x1="-4.9024" y1="31.4547" x2="-19.6529" y2="49.2155" gradientTransform="matrix(1 0 0 -1 0 72)">
			<stop  offset="0" style="stop-color:#D300FF"/>
			<stop  offset="0.8565" style="stop-color:#42FFFF"/>
		</linearGradient>
		<path id="XMLID_22_" class="st12" d="M-9.5,37.4l-0.2-0.1c-0.3-0.2-0.4-0.6-0.3-0.9l1-1.8c0.2-0.3,0.6-0.4,0.9-0.3l0.2,0.1
			c0.3,0.2,0.4,0.6,0.3,0.9l-1,1.8C-8.8,37.5-9.2,37.6-9.5,37.4z"/>
	</g>
	<g>
		
			<linearGradient id="SVGID_1_" gradientUnits="userSpaceOnUse" x1="11.9631" y1="25.5777" x2="-4.2876" y2="42.1015" gradientTransform="matrix(0.9997 -2.626982e-002 -2.626982e-002 -0.9997 0.7805 69.6263)">
			<stop  offset="0" style="stop-color:#D300FF"/>
			<stop  offset="0.8565" style="stop-color:#42FFFF"/>
		</linearGradient>
		<path class="st13" d="M16.7,37c0.1-2.4-1.8-4.5-4.3-4.5c-0.1,0-0.2,0-0.4,0c0.5-0.9,0.7-1.8,0.8-2.9c0.1-3.6-2.7-6.6-6.3-6.7
			C3.4,22.8,0.7,25,0,28c-4.5-1.6-7.7,2.4-7.3,5.5c-2.3-0.2-3.8,1.6-3.9,3.6c-0.1,1.8,1,3.4,2.5,4.1l0,0l0,0
			c0.5,0.2,1.1,0.4,1.7,0.4l20.4-0.5C15.2,40.6,16.6,39,16.7,37z"/>
	</g>
	<circle class="st14" cx="0.1" cy="45" r="2.1"/>
	<circle class="st14" cx="4.9" cy="45" r="2.1"/>
</g>
</svg>
