<?xml version="1.0" encoding="utf-8"?>
<!-- Generator: Adobe Illustrator 19.0.0, SVG Export Plug-In . SVG Version: 6.00 Build 0)  -->
<svg version="1.1" id="Capa_1" xmlns="http://www.w3.org/2000/svg" xmlns:xlink="http://www.w3.org/1999/xlink" x="0px" y="0px"
	 viewBox="-15 17 32 32" style="enable-background:new -15 17 32 32;" xml:space="preserve">
<style type="text/css">
	.st0{fill:url(#XMLID_3_);}
	.st1{fill:url(#XMLID_4_);}
	.st2{fill:url(#XMLID_8_);}
	.st3{fill:url(#XMLID_9_);}
	.st4{fill:url(#XMLID_12_);}
	.st5{fill:url(#XMLID_13_);}
	.st6{fill:url(#XMLID_14_);}
	.st7{fill:url(#XMLID_17_);}
	.st8{fill:url(#XMLID_20_);}
	.st9{fill:url(#XMLID_21_);}
	.st10{fill:url(#XMLID_24_);}
	.st11{fill:url(#XMLID_27_);}
	.st12{fill:url(#XMLID_28_);}
	.st13{fill:#193372;stroke:url(#SVGID_1_);stroke-width:0.5;stroke-miterlimit:10;}
	.st14{fill:url(#SVGID_2_);stroke:url(#SVGID_3_);stroke-width:0.25;stroke-miterlimit:10;}
	.st15{fill:none;stroke:url(#SVGID_4_);stroke-width:0.25;stroke-miterlimit:10;}
	.st16{fill:#0F234C;}
</style>
<g>
	<g id="XMLID_6_">
		
			<linearGradient id="XMLID_3_" gradientUnits="userSpaceOnUse" x1="0.9759" y1="31.4559" x2="-13.3471" y2="14.2099" gradientTransform="matrix(1 0 0 1 0 4)">
			<stop  offset="0" style="stop-color:#D300FF"/>
			<stop  offset="0.8565" style="stop-color:#42FFFF"/>
		</linearGradient>
		<circle id="XMLID_2_" class="st0" cx="-4.6" cy="28.8" r="5.3"/>
		
			<linearGradient id="XMLID_4_" gradientUnits="userSpaceOnUse" x1="5.3789" y1="28.4075" x2="-9.3894" y2="10.6252" gradientTransform="matrix(1 0 0 1 0 4)">
			<stop  offset="0" style="stop-color:#D300FF"/>
			<stop  offset="0.8565" style="stop-color:#42FFFF"/>
		</linearGradient>
		<path id="XMLID_5_" class="st1" d="M-4.5,22.2h-0.2c-0.4,0-0.7-0.3-0.7-0.7v-2.1c0-0.4,0.3-0.7,0.7-0.7h0.2c0.4,0,0.7,0.3,0.7,0.7
			v2.1C-3.8,21.9-4.1,22.2-4.5,22.2z"/>
		
			<linearGradient id="XMLID_8_" gradientUnits="userSpaceOnUse" x1="-2.7813" y1="34.6819" x2="-17.5496" y2="16.8997" gradientTransform="matrix(1 0 0 1 0 4)">
			<stop  offset="0" style="stop-color:#D300FF"/>
			<stop  offset="0.8565" style="stop-color:#42FFFF"/>
		</linearGradient>
		<path id="XMLID_7_" class="st2" d="M-4.5,38.3h-0.2c-0.4,0-0.7-0.3-0.7-0.7v-2.1c0-0.4,0.3-0.7,0.7-0.7h0.2c0.4,0,0.7,0.3,0.7,0.7
			v2.1C-3.8,38-4.1,38.3-4.5,38.3z"/>
		
			<linearGradient id="XMLID_9_" gradientUnits="userSpaceOnUse" x1="-3.4467" y1="35.744" x2="-18.254" y2="17.9147" gradientTransform="matrix(1 0 0 1 0 4)">
			<stop  offset="0" style="stop-color:#D300FF"/>
			<stop  offset="0.8565" style="stop-color:#42FFFF"/>
		</linearGradient>
		<path id="XMLID_11_" class="st3" d="M-11,28.5v0.2c0,0.4-0.3,0.7-0.7,0.7h-2.1c-0.4,0-0.7-0.3-0.7-0.7v-0.2c0-0.4,0.3-0.7,0.7-0.7
			h2.1C-11.3,27.8-11,28.1-11,28.5z"/>
		
			<linearGradient id="XMLID_12_" gradientUnits="userSpaceOnUse" x1="5.9499" y1="27.4862" x2="-8.8574" y2="9.6569" gradientTransform="matrix(1 0 0 1 0 4)">
			<stop  offset="0" style="stop-color:#D300FF"/>
			<stop  offset="0.8565" style="stop-color:#42FFFF"/>
		</linearGradient>
		<path id="XMLID_10_" class="st4" d="M5.2,28.5v0.2c0,0.4-0.3,0.7-0.7,0.7h-2c-0.4,0-0.7-0.3-0.7-0.7v-0.2c0-0.4,0.3-0.7,0.7-0.7
			h2.1C4.9,27.8,5.2,28.1,5.2,28.5z"/>
		
			<linearGradient id="XMLID_13_" gradientUnits="userSpaceOnUse" x1="7.3041" y1="26.3674" x2="-7.26" y2="8.831" gradientTransform="matrix(1 0 0 1 0 4)">
			<stop  offset="0" style="stop-color:#D300FF"/>
			<stop  offset="0.8565" style="stop-color:#42FFFF"/>
		</linearGradient>
		<path id="XMLID_19_" class="st5" d="M0.9,25.4l-0.1-0.2c-0.2-0.3-0.1-0.8,0.2-0.9l1.8-1.1c0.3-0.2,0.7-0.1,0.9,0.2l0.1,0.2
			c0.2,0.3,0.1,0.7-0.2,0.9l-1.8,1.1C1.5,25.8,1.1,25.7,0.9,25.4z"/>
		
			<linearGradient id="XMLID_14_" gradientUnits="userSpaceOnUse" x1="-4.9171" y1="36.5694" x2="-19.4812" y2="19.0329" gradientTransform="matrix(1 0 0 1 0 4)">
			<stop  offset="0" style="stop-color:#D300FF"/>
			<stop  offset="0.8565" style="stop-color:#42FFFF"/>
		</linearGradient>
		<path id="XMLID_18_" class="st6" d="M-12.9,33.7l-0.1-0.2c-0.2-0.3-0.1-0.7,0.2-0.9l1.8-1.1c0.3-0.2,0.7-0.1,0.9,0.2l0.1,0.2
			c0.2,0.3,0.1,0.7-0.2,0.9l-1.8,1.1C-12.3,34.2-12.7,34-12.9,33.7z"/>
		
			<linearGradient id="XMLID_17_" gradientUnits="userSpaceOnUse" x1="2.078" y1="30.7401" x2="-12.3757" y2="13.3367" gradientTransform="matrix(1 0 0 1 0 4)">
			<stop  offset="0" style="stop-color:#D300FF"/>
			<stop  offset="0.8565" style="stop-color:#42FFFF"/>
		</linearGradient>
		<path id="XMLID_16_" class="st7" d="M-7.8,23.1L-8,23.2c-0.3,0.2-0.7,0.1-0.9-0.2l-1.1-1.8c-0.2-0.3-0.1-0.7,0.2-0.9l0.2-0.1
			c0.3-0.2,0.7-0.1,0.9,0.2l1.1,1.8C-7.4,22.5-7.5,22.9-7.8,23.1z"/>
		
			<linearGradient id="XMLID_20_" gradientUnits="userSpaceOnUse" x1="0.1732" y1="32.1323" x2="-14.2805" y2="14.7289" gradientTransform="matrix(1 0 0 1 0 4)">
			<stop  offset="0" style="stop-color:#D300FF"/>
			<stop  offset="0.8565" style="stop-color:#42FFFF"/>
		</linearGradient>
		<path id="XMLID_15_" class="st8" d="M0.6,36.9L0.4,37c-0.3,0.2-0.7,0.1-0.9-0.2L-1.6,35c-0.2-0.3-0.1-0.7,0.2-0.9l0.2-0.1
			c0.3-0.2,0.7-0.1,0.9,0.2L0.8,36C1,36.3,0.9,36.7,0.6,36.9z"/>
		
			<linearGradient id="XMLID_21_" gradientUnits="userSpaceOnUse" x1="3.3636" y1="29.5071" x2="-11.2497" y2="11.9115" gradientTransform="matrix(1 0 0 1 0 4)">
			<stop  offset="0" style="stop-color:#D300FF"/>
			<stop  offset="0.8565" style="stop-color:#42FFFF"/>
		</linearGradient>
		<path id="XMLID_26_" class="st9" d="M0.9,31.8L1,31.5c0.2-0.3,0.6-0.4,0.9-0.3l1.8,1c0.3,0.3,0.4,0.7,0.3,1l-0.1,0.2
			c-0.2,0.3-0.6,0.4-0.9,0.3l-1.8-1C0.9,32.5,0.8,32,0.9,31.8z"/>
		
			<linearGradient id="XMLID_24_" gradientUnits="userSpaceOnUse" x1="-0.9234" y1="33.4646" x2="-15.5367" y2="15.869" gradientTransform="matrix(1 0 0 1 0 4)">
			<stop  offset="0" style="stop-color:#D300FF"/>
			<stop  offset="0.8565" style="stop-color:#42FFFF"/>
		</linearGradient>
		<path id="XMLID_25_" class="st10" d="M-13.2,23.9l0.1-0.2c0.2-0.3,0.6-0.4,0.9-0.3l1.8,1c0.3,0.2,0.4,0.6,0.3,0.9l-0.1,0.2
			c-0.2,0.3-0.6,0.4-0.9,0.3l-1.8-1C-13.2,24.6-13.4,24.2-13.2,23.9z"/>
		
			<linearGradient id="XMLID_27_" gradientUnits="userSpaceOnUse" x1="7.1205" y1="26.8086" x2="-7.63" y2="9.0478" gradientTransform="matrix(1 0 0 1 0 4)">
			<stop  offset="0" style="stop-color:#D300FF"/>
			<stop  offset="0.8565" style="stop-color:#42FFFF"/>
		</linearGradient>
		<path id="XMLID_23_" class="st11" d="M-1.4,23l-0.2-0.1C-1.9,22.7-2,22.3-1.9,22l1-1.8c0.2-0.3,0.6-0.4,0.9-0.3L0.2,20
			c0.3,0.2,0.4,0.6,0.3,0.9l-1,1.8C-0.7,23.1-1.1,23.2-1.4,23z"/>
		
			<linearGradient id="XMLID_28_" gradientUnits="userSpaceOnUse" x1="-4.6453" y1="36.3538" x2="-19.3958" y2="18.593" gradientTransform="matrix(1 0 0 1 0 4)">
			<stop  offset="0" style="stop-color:#D300FF"/>
			<stop  offset="0.8565" style="stop-color:#42FFFF"/>
		</linearGradient>
		<path id="XMLID_22_" class="st12" d="M-9.3,37.2l-0.2-0.1c-0.3-0.2-0.4-0.6-0.3-0.9l1-1.8c0.2-0.3,0.6-0.4,0.9-0.3l0.2,0.1
			c0.3,0.2,0.4,0.6,0.3,0.9l-1,1.8C-8.5,37.2-8.9,37.3-9.3,37.2z"/>
	</g>
	
		<linearGradient id="SVGID_1_" gradientUnits="userSpaceOnUse" x1="11.6619" y1="42.0268" x2="-4.5888" y2="25.5031" gradientTransform="matrix(0.9997 -2.626982e-002 2.626982e-002 0.9997 -0.9443 2.4342)">
		<stop  offset="0" style="stop-color:#D300FF"/>
		<stop  offset="0.8565" style="stop-color:#42FFFF"/>
	</linearGradient>
	<path class="st13" d="M16.4,37.4c0.1-2.4-1.8-4.5-4.3-4.5c-0.1,0-0.2,0-0.4,0c0.5-0.9,0.7-1.8,0.8-2.9c0.1-3.6-2.7-6.6-6.3-6.7
		c-3.2-0.1-5.9,2.1-6.5,5.1c-4.5-1.6-7.7,2.4-7.3,5.5c-2.3-0.2-3.8,1.6-3.9,3.6c-0.1,1.8,1,3.4,2.5,4.1l0,0l0,0
		c0.5,0.2,1.1,0.4,1.7,0.4l20.4-0.5C14.9,41,16.3,39.4,16.4,37.4z"/>
	
		<linearGradient id="SVGID_2_" gradientUnits="userSpaceOnUse" x1="-1.4978" y1="15.0305" x2="2.858" y2="15.0305" gradientTransform="matrix(0.9386 0.3451 -0.3451 0.9386 10.999 27.7953)">
		<stop  offset="0" style="stop-color:#D300FF"/>
		<stop  offset="0.8565" style="stop-color:#42FFFF"/>
	</linearGradient>
	
		<linearGradient id="SVGID_3_" gradientUnits="userSpaceOnUse" x1="-1.7311" y1="15.0529" x2="3.0896" y2="15.0529" gradientTransform="matrix(0.9386 0.3451 -0.3451 0.9386 10.999 27.7953)">
		<stop  offset="0" style="stop-color:#D300FF"/>
		<stop  offset="0.8565" style="stop-color:#42FFFF"/>
	</linearGradient>
	<polygon class="st14" points="8.6,36.6 10.3,37.2 7.5,39.9 9.4,40.3 6.3,42.9 8,43.4 4.2,47.3 2.3,47 5.2,44.3 3.5,43.7 6.3,41.2 
		4.7,40.4 	"/>
	<g>
		
			<linearGradient id="SVGID_4_" gradientUnits="userSpaceOnUse" x1="-4.8053" y1="38.7" x2="1.6166" y2="38.7" gradientTransform="matrix(1 0 0 1 0 4)">
			<stop  offset="0" style="stop-color:#D300FF"/>
			<stop  offset="0.8565" style="stop-color:#42FFFF"/>
		</linearGradient>
		<path class="st15" d="M1,43.4l0.2-0.1l-0.3-0.5l-0.2,0.1c-0.2,0.1-0.4,0.2-0.5,0.4L-1,42.7l1.2-0.6c0.1,0.2,0.3,0.3,0.5,0.4
			l0.2,0.1l0.3-0.5L1,41.9c-0.1-0.1-0.2-0.1-0.3-0.2l0.7-0.4l-0.3-0.5l-0.8,0.4c0-0.1,0-0.2,0-0.3v-0.3h-0.6v0.3
			c0,0.2,0,0.4,0.1,0.6l-1.2,0.7v-1.4c0.2,0,0.4-0.1,0.6-0.2l0.2-0.1L-0.9,40l-0.2,0.1c-0.1,0.1-0.2,0.1-0.3,0.1v-0.7h-0.5v0.7
			c-0.1,0-0.2-0.1-0.3-0.1L-2.4,40l-0.3,0.5l0.2,0.1c0.2,0.1,0.4,0.2,0.6,0.2v1.4l-1.2-0.6C-3,41.3-3,41.1-3,40.9v-0.3h-0.6v0.3
			c0,0.1,0,0.2,0,0.3l-0.7-0.4l-0.3,0.5l0.7,0.4c-0.1,0.1-0.2,0.1-0.3,0.2L-4.4,42l0.3,0.5l0.2-0.2c0.2-0.1,0.4-0.2,0.5-0.4l1.2,0.6
			l-1.2,0.7c-0.1-0.2-0.3-0.3-0.5-0.4l-0.2-0.1l-0.4,0.5l0.2,0.2c0.1,0.1,0.2,0.1,0.3,0.2L-4.7,44l0.3,0.5l0.7-0.4
			c0,0.1,0,0.2,0,0.3v0.3H-3v-0.3c0-0.2,0-0.4-0.1-0.6l1.2-0.6v1.3c-0.2,0-0.4,0.1-0.6,0.2l-0.2,0.1l0.3,0.5l0.2-0.1
			c0.1,0,0.2,0,0.3,0v0.7h0.5v-0.7c0.1,0,0.2,0.1,0.3,0.1l0.2,0.1l0.3-0.5l-0.2-0.1c-0.1-0.1-0.3-0.1-0.6-0.2v-1.4l1.2,0.6
			c0,0.3-0.1,0.5,0,0.7v0.3h0.6v-0.3c0-0.1,0-0.2,0-0.3L1,44.5L1.3,44l-0.7-0.4C0.8,43.5,0.9,43.4,1,43.4z"/>
		<path class="st16" d="M1,43.4l0.2-0.1l-0.3-0.5l-0.2,0.1c-0.2,0.1-0.4,0.2-0.5,0.4L-1,42.7l1.2-0.6c0.1,0.2,0.3,0.3,0.5,0.4
			l0.2,0.1l0.3-0.5L1,41.9c-0.1-0.1-0.2-0.1-0.3-0.2l0.7-0.4l-0.3-0.5l-0.8,0.4c0-0.1,0-0.2,0-0.3v-0.3h-0.6v0.3
			c0,0.2,0,0.4,0.1,0.6l-1.2,0.7v-1.4c0.2,0,0.4-0.1,0.6-0.2l0.2-0.1L-0.9,40l-0.2,0.1c-0.1,0.1-0.2,0.1-0.3,0.1v-0.7h-0.5v0.7
			c-0.1,0-0.2-0.1-0.3-0.1L-2.4,40l-0.3,0.5l0.2,0.1c0.2,0.1,0.4,0.2,0.6,0.2v1.4l-1.2-0.6C-3,41.3-3,41.1-3,40.9v-0.3h-0.6v0.3
			c0,0.1,0,0.2,0,0.3l-0.7-0.4l-0.3,0.5l0.7,0.4c-0.1,0.1-0.2,0.1-0.3,0.2L-4.4,42l0.3,0.5l0.2-0.2c0.2-0.1,0.4-0.2,0.5-0.4l1.2,0.6
			l-1.2,0.7c-0.1-0.2-0.3-0.3-0.5-0.4l-0.2-0.1l-0.4,0.5l0.2,0.2c0.1,0.1,0.2,0.1,0.3,0.2L-4.7,44l0.3,0.5l0.7-0.4
			c0,0.1,0,0.2,0,0.3v0.3H-3v-0.3c0-0.2,0-0.4-0.1-0.6l1.2-0.6v1.3c-0.2,0-0.4,0.1-0.6,0.2l-0.2,0.1l0.3,0.5l0.2-0.1
			c0.1,0,0.2,0,0.3,0v0.7h0.5v-0.7c0.1,0,0.2,0.1,0.3,0.1l0.2,0.1l0.3-0.5l-0.2-0.1c-0.1-0.1-0.3-0.1-0.6-0.2v-1.4l1.2,0.6
			c0,0.3-0.1,0.5,0,0.7v0.3h0.6v-0.3c0-0.1,0-0.2,0-0.3L1,44.5L1.3,44l-0.7-0.4C0.8,43.5,0.9,43.4,1,43.4z"/>
	</g>
</g>
</svg>
