<?xml version="1.0" encoding="utf-8"?>
<!-- Generator: Adobe Illustrator 19.0.0, SVG Export Plug-In . SVG Version: 6.00 Build 0)  -->
<svg version="1.1" id="Capa_1" xmlns="http://www.w3.org/2000/svg" xmlns:xlink="http://www.w3.org/1999/xlink" x="0px" y="0px"
	 viewBox="-15 17 32 32" style="enable-background:new -15 17 32 32;" xml:space="preserve">
<style type="text/css">
	.st0{fill:url(#XMLID_3_);}
	.st1{fill:url(#XMLID_4_);}
	.st2{fill:url(#XMLID_8_);}
	.st3{fill:url(#XMLID_9_);}
	.st4{fill:url(#XMLID_12_);}
	.st5{fill:url(#XMLID_13_);}
	.st6{fill:url(#XMLID_14_);}
	.st7{fill:url(#XMLID_17_);}
	.st8{fill:url(#XMLID_20_);}
	.st9{fill:url(#XMLID_21_);}
	.st10{fill:url(#XMLID_24_);}
	.st11{fill:url(#XMLID_27_);}
	.st12{fill:url(#XMLID_28_);}
	.st13{fill:#193372;stroke:url(#SVGID_1_);stroke-width:0.5;stroke-miterlimit:10;}
	.st14{fill:url(#SVGID_2_);stroke:url(#SVGID_3_);stroke-width:0.25;stroke-miterlimit:10;}
</style>
<g>
	<g id="XMLID_6_">
		
			<linearGradient id="XMLID_3_" gradientUnits="userSpaceOnUse" x1="0.9759" y1="32.2059" x2="-13.3471" y2="14.9599" gradientTransform="matrix(1 0 0 1 0 4)">
			<stop  offset="0" style="stop-color:#D300FF"/>
			<stop  offset="0.8565" style="stop-color:#42FFFF"/>
		</linearGradient>
		<circle id="XMLID_2_" class="st0" cx="-4.6" cy="29.6" r="5.3"/>
		
			<linearGradient id="XMLID_4_" gradientUnits="userSpaceOnUse" x1="5.3789" y1="29.1575" x2="-9.3894" y2="11.3752" gradientTransform="matrix(1 0 0 1 0 4)">
			<stop  offset="0" style="stop-color:#D300FF"/>
			<stop  offset="0.8565" style="stop-color:#42FFFF"/>
		</linearGradient>
		<path id="XMLID_5_" class="st1" d="M-4.5,23h-0.2c-0.4,0-0.7-0.3-0.7-0.7v-2.1c0-0.4,0.3-0.7,0.7-0.7h0.2c0.4,0,0.7,0.3,0.7,0.7
			v2.1C-3.8,22.7-4.1,23-4.5,23z"/>
		
			<linearGradient id="XMLID_8_" gradientUnits="userSpaceOnUse" x1="-2.7813" y1="35.4319" x2="-17.5496" y2="17.6497" gradientTransform="matrix(1 0 0 1 0 4)">
			<stop  offset="0" style="stop-color:#D300FF"/>
			<stop  offset="0.8565" style="stop-color:#42FFFF"/>
		</linearGradient>
		<path id="XMLID_7_" class="st2" d="M-4.5,39h-0.2c-0.4,0-0.7-0.3-0.7-0.7v-2.1c0-0.4,0.3-0.7,0.7-0.7h0.2c0.4,0,0.7,0.3,0.7,0.7
			v2.1C-3.8,38.8-4.1,39-4.5,39z"/>
		
			<linearGradient id="XMLID_9_" gradientUnits="userSpaceOnUse" x1="-3.4467" y1="36.494" x2="-18.254" y2="18.6647" gradientTransform="matrix(1 0 0 1 0 4)">
			<stop  offset="0" style="stop-color:#D300FF"/>
			<stop  offset="0.8565" style="stop-color:#42FFFF"/>
		</linearGradient>
		<path id="XMLID_11_" class="st3" d="M-11,29.3v0.2c0,0.4-0.3,0.7-0.7,0.7h-2.1c-0.4,0-0.7-0.3-0.7-0.7v-0.2c0-0.4,0.3-0.7,0.7-0.7
			h2.1C-11.3,28.6-11,28.9-11,29.3z"/>
		
			<linearGradient id="XMLID_12_" gradientUnits="userSpaceOnUse" x1="5.9499" y1="28.2362" x2="-8.8574" y2="10.4069" gradientTransform="matrix(1 0 0 1 0 4)">
			<stop  offset="0" style="stop-color:#D300FF"/>
			<stop  offset="0.8565" style="stop-color:#42FFFF"/>
		</linearGradient>
		<path id="XMLID_10_" class="st4" d="M5.2,29.3v0.2c0,0.4-0.3,0.7-0.7,0.7h-2c-0.4,0-0.7-0.3-0.7-0.7v-0.2c0-0.4,0.3-0.7,0.7-0.7
			h2.1C4.9,28.6,5.2,28.9,5.2,29.3z"/>
		
			<linearGradient id="XMLID_13_" gradientUnits="userSpaceOnUse" x1="7.3041" y1="27.1174" x2="-7.26" y2="9.581" gradientTransform="matrix(1 0 0 1 0 4)">
			<stop  offset="0" style="stop-color:#D300FF"/>
			<stop  offset="0.8565" style="stop-color:#42FFFF"/>
		</linearGradient>
		<path id="XMLID_19_" class="st5" d="M0.9,26.2L0.8,26c-0.2-0.3-0.1-0.8,0.2-0.9L2.8,24c0.3-0.2,0.7-0.1,0.9,0.2l0.1,0.2
			c0.2,0.3,0.1,0.7-0.2,0.9l-1.8,1.1C1.5,26.6,1.1,26.5,0.9,26.2z"/>
		
			<linearGradient id="XMLID_14_" gradientUnits="userSpaceOnUse" x1="-4.9171" y1="37.3194" x2="-19.4812" y2="19.7829" gradientTransform="matrix(1 0 0 1 0 4)">
			<stop  offset="0" style="stop-color:#D300FF"/>
			<stop  offset="0.8565" style="stop-color:#42FFFF"/>
		</linearGradient>
		<path id="XMLID_18_" class="st6" d="M-12.9,34.5l-0.1-0.2c-0.2-0.3-0.1-0.7,0.2-0.9l1.8-1.1c0.3-0.2,0.7-0.1,0.9,0.2l0.1,0.2
			c0.2,0.3,0.1,0.7-0.2,0.9l-1.8,1.1C-12.3,35-12.7,34.8-12.9,34.5z"/>
		
			<linearGradient id="XMLID_17_" gradientUnits="userSpaceOnUse" x1="2.078" y1="31.4901" x2="-12.3757" y2="14.0867" gradientTransform="matrix(1 0 0 1 0 4)">
			<stop  offset="0" style="stop-color:#D300FF"/>
			<stop  offset="0.8565" style="stop-color:#42FFFF"/>
		</linearGradient>
		<path id="XMLID_16_" class="st7" d="M-7.8,23.9L-8,24c-0.3,0.2-0.7,0.1-0.9-0.2L-10,22c-0.2-0.3-0.1-0.7,0.2-0.9l0.2-0.1
			c0.3-0.2,0.7-0.1,0.9,0.2l1.1,1.8C-7.4,23.3-7.5,23.7-7.8,23.9z"/>
		
			<linearGradient id="XMLID_20_" gradientUnits="userSpaceOnUse" x1="0.1732" y1="32.8823" x2="-14.2805" y2="15.4789" gradientTransform="matrix(1 0 0 1 0 4)">
			<stop  offset="0" style="stop-color:#D300FF"/>
			<stop  offset="0.8565" style="stop-color:#42FFFF"/>
		</linearGradient>
		<path id="XMLID_15_" class="st8" d="M0.6,37.7l-0.2,0.1c-0.3,0.2-0.7,0.1-0.9-0.2l-1.1-1.8c-0.2-0.3-0.1-0.7,0.2-0.9l0.2-0.1
			c0.3-0.2,0.7-0.1,0.9,0.2l1.1,1.8C1,37,0.9,37.5,0.6,37.7z"/>
		
			<linearGradient id="XMLID_21_" gradientUnits="userSpaceOnUse" x1="3.3636" y1="30.2571" x2="-11.2497" y2="12.6615" gradientTransform="matrix(1 0 0 1 0 4)">
			<stop  offset="0" style="stop-color:#D300FF"/>
			<stop  offset="0.8565" style="stop-color:#42FFFF"/>
		</linearGradient>
		<path id="XMLID_26_" class="st9" d="M0.9,32.5L1,32.3C1.2,32,1.6,31.9,1.9,32l1.8,1C4,33.3,4.1,33.7,4,34l-0.1,0.2
			c-0.2,0.3-0.6,0.4-0.9,0.3l-1.8-1C0.9,33.3,0.8,32.8,0.9,32.5z"/>
		
			<linearGradient id="XMLID_24_" gradientUnits="userSpaceOnUse" x1="-0.9234" y1="34.2146" x2="-15.5367" y2="16.619" gradientTransform="matrix(1 0 0 1 0 4)">
			<stop  offset="0" style="stop-color:#D300FF"/>
			<stop  offset="0.8565" style="stop-color:#42FFFF"/>
		</linearGradient>
		<path id="XMLID_25_" class="st10" d="M-13.2,24.7l0.1-0.2c0.2-0.3,0.6-0.4,0.9-0.3l1.8,1c0.3,0.2,0.4,0.6,0.3,0.9l-0.1,0.2
			c-0.2,0.3-0.6,0.4-0.9,0.3l-1.8-1C-13.2,25.4-13.4,25-13.2,24.7z"/>
		
			<linearGradient id="XMLID_27_" gradientUnits="userSpaceOnUse" x1="7.1205" y1="27.5586" x2="-7.63" y2="9.7978" gradientTransform="matrix(1 0 0 1 0 4)">
			<stop  offset="0" style="stop-color:#D300FF"/>
			<stop  offset="0.8565" style="stop-color:#42FFFF"/>
		</linearGradient>
		<path id="XMLID_23_" class="st11" d="M-1.4,23.8l-0.2-0.1C-1.9,23.5-2,23-1.9,22.8l1-1.8c0.2-0.3,0.6-0.4,0.9-0.3l0.2,0.1
			c0.3,0.2,0.4,0.6,0.3,0.9l-1,1.8C-0.7,23.9-1.1,24-1.4,23.8z"/>
		
			<linearGradient id="XMLID_28_" gradientUnits="userSpaceOnUse" x1="-4.6453" y1="37.1038" x2="-19.3958" y2="19.343" gradientTransform="matrix(1 0 0 1 0 4)">
			<stop  offset="0" style="stop-color:#D300FF"/>
			<stop  offset="0.8565" style="stop-color:#42FFFF"/>
		</linearGradient>
		<path id="XMLID_22_" class="st12" d="M-9.3,38l-0.2-0.1c-0.3-0.2-0.4-0.6-0.3-0.9l1-1.8c0.2-0.3,0.6-0.4,0.9-0.3l0.2,0.1
			c0.3,0.2,0.4,0.6,0.3,0.9l-1,1.8C-8.5,38-8.9,38-9.3,38z"/>
	</g>
	
		<linearGradient id="SVGID_1_" gradientUnits="userSpaceOnUse" x1="11.6422" y1="42.7765" x2="-4.6085" y2="26.2528" gradientTransform="matrix(0.9997 -2.626982e-002 2.626982e-002 0.9997 -0.9443 2.4342)">
		<stop  offset="0" style="stop-color:#D300FF"/>
		<stop  offset="0.8565" style="stop-color:#42FFFF"/>
	</linearGradient>
	<path class="st13" d="M16.4,38.2c0.1-2.4-1.8-4.5-4.3-4.5c-0.1,0-0.2,0-0.4,0c0.5-0.9,0.7-1.8,0.8-2.9c0.1-3.6-2.7-6.6-6.3-6.7
		C3,24,0.3,26.2-0.3,29.2c-4.5-1.6-7.7,2.4-7.3,5.5c-2.3-0.2-3.8,1.6-3.9,3.6c-0.1,1.8,1,3.4,2.5,4.1l0,0l0,0
		c0.5,0.2,1.1,0.4,1.7,0.4l20.4-0.5C14.9,41.8,16.3,40.2,16.4,38.2z"/>
	
		<linearGradient id="SVGID_2_" gradientUnits="userSpaceOnUse" x1="-6.9379" y1="16.1893" x2="-2.582" y2="16.1893" gradientTransform="matrix(0.9386 0.3451 -0.3451 0.9386 10.999 27.7953)">
		<stop  offset="0" style="stop-color:#D300FF"/>
		<stop  offset="0.8565" style="stop-color:#42FFFF"/>
	</linearGradient>
	
		<linearGradient id="SVGID_3_" gradientUnits="userSpaceOnUse" x1="-7.1692" y1="16.2115" x2="-2.3485" y2="16.2115" gradientTransform="matrix(0.9386 0.3451 -0.3451 0.9386 10.999 27.7953)">
		<stop  offset="0" style="stop-color:#D300FF"/>
		<stop  offset="0.8565" style="stop-color:#42FFFF"/>
	</linearGradient>
	<polygon class="st14" points="3.1,35.8 4.8,36.5 2,39.2 3.9,39.5 0.8,42.2 2.5,42.7 -1.3,46.5 -3.2,46.3 -0.3,43.5 -2,43 0.8,40.5 
		-0.8,39.7 	"/>
</g>
</svg>
