<?xml version="1.0" encoding="utf-8"?>
<!-- Generator: Adobe Illustrator 19.0.0, SVG Export Plug-In . SVG Version: 6.00 Build 0)  -->
<svg version="1.1" id="Capa_1" xmlns="http://www.w3.org/2000/svg" xmlns:xlink="http://www.w3.org/1999/xlink" x="0px" y="0px"
	 viewBox="-15 17 32 32" style="enable-background:new -15 17 32 32;" xml:space="preserve">
<style type="text/css">
	.st0{fill:#3F5889;stroke:url(#SVGID_1_);stroke-width:0.5;stroke-miterlimit:10;}
	.st1{fill:none;stroke:url(#SVGID_2_);stroke-width:0.25;stroke-miterlimit:10;}
	.st2{fill:#193372;}
	.st3{fill:none;stroke:url(#SVGID_3_);stroke-width:0.25;stroke-miterlimit:10;}
	.st4{fill:#193372;stroke:url(#SVGID_4_);stroke-width:0.25;stroke-miterlimit:10;}
	.st5{fill:#193372;stroke:url(#SVGID_5_);stroke-width:0.25;stroke-miterlimit:10;}
</style>
<g>
	<g>
		
			<linearGradient id="SVGID_1_" gradientUnits="userSpaceOnUse" x1="10.1851" y1="25.0987" x2="-6.0655" y2="41.6225" gradientTransform="matrix(0.9997 -2.626982e-002 -2.626982e-002 -0.9997 0.7985 67.2025)">
			<stop  offset="0" style="stop-color:#D300FF"/>
			<stop  offset="0.8565" style="stop-color:#42FFFF"/>
		</linearGradient>
		<path class="st0" d="M15,35.1c0.1-2.4-1.8-4.5-4.3-4.5c-0.1,0-0.2,0-0.4,0c0.5-0.9,0.7-1.8,0.8-2.9c0.1-3.6-2.7-6.6-6.3-6.7
			c-3.2-0.1-5.9,2.1-6.5,5.1c-4.5-1.6-7.7,2.4-7.3,5.5c-2.3-0.2-3.8,1.6-3.9,3.6c-0.1,1.8,1,3.4,2.5,4.1l0,0l0,0
			c0.5,0.2,1.1,0.4,1.7,0.4l20.4-0.5C13.5,38.7,14.9,37.1,15,35.1z"/>
	</g>
	<g>
		
			<linearGradient id="SVGID_2_" gradientUnits="userSpaceOnUse" x1="-10.4703" y1="25.1484" x2="-6.17" y2="25.1484" gradientTransform="matrix(1 0 0 -1 0 68)">
			<stop  offset="0" style="stop-color:#D300FF"/>
			<stop  offset="0.8565" style="stop-color:#42FFFF"/>
		</linearGradient>
		<path class="st1" d="M-6.6,43.4l0.2-0.1L-6.6,43l-0.2,0c-0.1,0.1-0.2,0.2-0.3,0.3l-0.8-0.4l0.8-0.4c0.1,0.1,0.2,0.2,0.3,0.3
			l0.2,0.1l0.2-0.3l-0.2-0.1c-0.1,0-0.1-0.1-0.2-0.1l0.5-0.3l-0.2-0.3L-7,41.9c0-0.1,0-0.2,0-0.2v-0.2h-0.4v0.2c0,0.1,0,0.3,0.1,0.4
			l-0.8,0.4v-0.9c0.1,0,0.3-0.1,0.4-0.2l0.2-0.1L-7.7,41l-0.2,0.1c-0.1,0-0.1,0.1-0.2,0.1v-0.5h-0.4v0.5c-0.1,0-0.1,0-0.2-0.1
			L-8.9,41l-0.2,0.3l0.2,0.1c0.1,0.1,0.3,0.1,0.4,0.2v0.9l-0.8-0.4c0.1-0.1,0.1-0.3,0.1-0.4v-0.2h-0.4v0.2c0,0.1,0,0.2,0,0.2
			l-0.5-0.3l-0.2,0.3l0.5,0.3c-0.1,0.1-0.1,0.1-0.2,0.1l-0.2,0.1l0.2,0.3l0.2-0.1c0.1-0.1,0.2-0.2,0.3-0.3l0.8,0.4l-0.8,0.4
			c-0.1-0.1-0.2-0.2-0.3-0.3l-0.2-0.1l-0.2,0.3l0.2,0.1c0.1,0,0.1,0.1,0.2,0.1l-0.5,0.3l0.2,0.3l0.5-0.3c0,0.1,0,0.2,0,0.2v0.2h0.4
			v-0.2c0-0.1,0-0.3-0.1-0.4l0.8-0.4v0.9c-0.1,0-0.3,0.1-0.4,0.2l-0.2,0.1l0.2,0.3l0.2-0.1c0.1,0,0.1-0.1,0.2-0.1V45h0.4v-0.5
			c0.1,0,0.1,0,0.2,0.1l0.2,0.1l0.2-0.3l-0.2-0.1c-0.1-0.1-0.3-0.1-0.4-0.2v-0.9l0.8,0.4c-0.1,0.1-0.1,0.3-0.1,0.4v0.2H-7V44
			c0-0.1,0-0.2,0-0.2l0.5,0.3l0.2-0.3l-0.5-0.3C-6.7,43.5-6.6,43.4-6.6,43.4z"/>
		<path class="st2" d="M-6.6,43.4l0.2-0.1L-6.6,43l-0.2,0c-0.1,0.1-0.2,0.2-0.3,0.3l-0.8-0.4l0.8-0.4c0.1,0.1,0.2,0.2,0.3,0.3
			l0.2,0.1l0.2-0.3l-0.2-0.1c-0.1,0-0.1-0.1-0.2-0.1l0.5-0.3l-0.2-0.3L-7,41.9c0-0.1,0-0.2,0-0.2v-0.2h-0.4v0.2c0,0.1,0,0.3,0.1,0.4
			l-0.8,0.4v-0.9c0.1,0,0.3-0.1,0.4-0.2l0.2-0.1L-7.7,41l-0.2,0.1c-0.1,0-0.1,0.1-0.2,0.1v-0.5h-0.4v0.5c-0.1,0-0.1,0-0.2-0.1
			L-8.9,41l-0.2,0.3l0.2,0.1c0.1,0.1,0.3,0.1,0.4,0.2v0.9l-0.8-0.4c0.1-0.1,0.1-0.3,0.1-0.4v-0.2h-0.4v0.2c0,0.1,0,0.2,0,0.2
			l-0.5-0.3l-0.2,0.3l0.5,0.3c-0.1,0.1-0.1,0.1-0.2,0.1l-0.2,0.1l0.2,0.3l0.2-0.1c0.1-0.1,0.2-0.2,0.3-0.3l0.8,0.4l-0.8,0.4
			c-0.1-0.1-0.2-0.2-0.3-0.3l-0.2-0.1l-0.2,0.3l0.2,0.1c0.1,0,0.1,0.1,0.2,0.1l-0.5,0.3l0.2,0.3l0.5-0.3c0,0.1,0,0.2,0,0.2v0.2h0.4
			v-0.2c0-0.1,0-0.3-0.1-0.4l0.8-0.4v0.9c-0.1,0-0.3,0.1-0.4,0.2l-0.2,0.1l0.2,0.3l0.2-0.1c0.1,0,0.1-0.1,0.2-0.1V45h0.4v-0.5
			c0.1,0,0.1,0,0.2,0.1l0.2,0.1l0.2-0.3l-0.2-0.1c-0.1-0.1-0.3-0.1-0.4-0.2v-0.9l0.8,0.4c-0.1,0.1-0.1,0.3-0.1,0.4v0.2H-7V44
			c0-0.1,0-0.2,0-0.2l0.5,0.3l0.2-0.3l-0.5-0.3C-6.7,43.5-6.6,43.4-6.6,43.4z"/>
	</g>
	<g>
		
			<linearGradient id="SVGID_3_" gradientUnits="userSpaceOnUse" x1="-4.3794" y1="25.1484" x2="-7.913198e-002" y2="25.1484" gradientTransform="matrix(1 0 0 -1 0 68)">
			<stop  offset="0" style="stop-color:#D300FF"/>
			<stop  offset="0.8565" style="stop-color:#42FFFF"/>
		</linearGradient>
		<path class="st3" d="M-0.5,43.4l0.2-0.1L-0.5,43l-0.2,0c-0.1,0.1-0.2,0.2-0.3,0.3l-0.8-0.4l0.8-0.4c0.1,0.1,0.2,0.2,0.3,0.3
			l0.2,0.1l0.2-0.3l-0.2-0.1c-0.1,0-0.1-0.1-0.2-0.1l0.5-0.3l-0.2-0.3l-0.5,0.3c0-0.1,0-0.2,0-0.2v-0.2h-0.4v0.2
			c0,0.1,0,0.3,0.1,0.4L-2,42.5v-0.9c0.1,0,0.3-0.1,0.4-0.2l0.2-0.1L-1.6,41l-0.2,0.1c-0.1,0-0.1,0.1-0.2,0.1v-0.5h-0.4v0.5
			c-0.1,0-0.1,0-0.2-0.1L-2.8,41L-3,41.4l0.2,0.1c0.1,0.1,0.3,0.1,0.4,0.2v0.9l-0.8-0.4c0.1-0.1,0.1-0.3,0.1-0.4v-0.2h-0.4v0.2
			c0,0.1,0,0.2,0,0.2L-4,41.6L-4.2,42l0.5,0.3c-0.1,0.1-0.1,0.1-0.2,0.1L-4,42.5l0.2,0.3l0.2-0.1c0.1-0.1,0.2-0.2,0.3-0.3l0.8,0.4
			l-0.8,0.4c-0.1-0.1-0.2-0.2-0.3-0.3l-0.2-0.1L-4,43.3l0.2,0.1c0.1,0,0.1,0.1,0.2,0.1l-0.5,0.3l0.2,0.3l0.5-0.3c0,0.1,0,0.2,0,0.2
			v0.2H-3V44c0-0.1,0-0.3-0.1-0.4l0.8-0.4v0.9c-0.1,0-0.3,0.1-0.4,0.2L-3,44.4l0.2,0.3l0.2-0.1c0.1,0,0.1-0.1,0.2-0.1V45H-2v-0.5
			c0.1,0,0.1,0,0.2,0.1l0.2,0.1l0.2-0.3l-0.2-0.1c-0.1-0.1-0.3-0.1-0.4-0.2v-0.9l0.8,0.4c-0.1,0.1-0.1,0.3-0.1,0.4v0.2h0.4V44
			c0-0.1,0-0.2,0-0.2l0.5,0.3l0.2-0.3l-0.5-0.3C-0.6,43.5-0.6,43.4-0.5,43.4z"/>
		<path class="st2" d="M-0.5,43.4l0.2-0.1L-0.5,43l-0.2,0c-0.1,0.1-0.2,0.2-0.3,0.3l-0.8-0.4l0.8-0.4c0.1,0.1,0.2,0.2,0.3,0.3
			l0.2,0.1l0.2-0.3l-0.2-0.1c-0.1,0-0.1-0.1-0.2-0.1l0.5-0.3l-0.2-0.3l-0.5,0.3c0-0.1,0-0.2,0-0.2v-0.2h-0.4v0.2
			c0,0.1,0,0.3,0.1,0.4L-2,42.5v-0.9c0.1,0,0.3-0.1,0.4-0.2l0.2-0.1L-1.6,41l-0.2,0.1c-0.1,0-0.1,0.1-0.2,0.1v-0.5h-0.4v0.5
			c-0.1,0-0.1,0-0.2-0.1L-2.8,41L-3,41.4l0.2,0.1c0.1,0.1,0.3,0.1,0.4,0.2v0.9l-0.8-0.4c0.1-0.1,0.1-0.3,0.1-0.4v-0.2h-0.4v0.2
			c0,0.1,0,0.2,0,0.2L-4,41.6L-4.2,42l0.5,0.3c-0.1,0.1-0.1,0.1-0.2,0.1L-4,42.5l0.2,0.3l0.2-0.1c0.1-0.1,0.2-0.2,0.3-0.3l0.8,0.4
			l-0.8,0.4c-0.1-0.1-0.2-0.2-0.3-0.3l-0.2-0.1L-4,43.3l0.2,0.1c0.1,0,0.1,0.1,0.2,0.1l-0.5,0.3l0.2,0.3l0.5-0.3c0,0.1,0,0.2,0,0.2
			v0.2H-3V44c0-0.1,0-0.3-0.1-0.4l0.8-0.4v0.9c-0.1,0-0.3,0.1-0.4,0.2L-3,44.4l0.2,0.3l0.2-0.1c0.1,0,0.1-0.1,0.2-0.1V45H-2v-0.5
			c0.1,0,0.1,0,0.2,0.1l0.2,0.1l0.2-0.3l-0.2-0.1c-0.1-0.1-0.3-0.1-0.4-0.2v-0.9l0.8,0.4c-0.1,0.1-0.1,0.3-0.1,0.4v0.2h0.4V44
			c0-0.1,0-0.2,0-0.2l0.5,0.3l0.2-0.3l-0.5-0.3C-0.6,43.5-0.6,43.4-0.5,43.4z"/>
	</g>
	
		<linearGradient id="SVGID_4_" gradientUnits="userSpaceOnUse" x1="10.3044" y1="23.2459" x2="4.5844" y2="28.7641" gradientTransform="matrix(1 0 0 -1 0 68)">
		<stop  offset="0" style="stop-color:#D300FF"/>
		<stop  offset="0.8565" style="stop-color:#42FFFF"/>
	</linearGradient>
	<path class="st4" d="M12,42.6H3c-0.3,0-0.6-0.3-0.6-0.6l0,0c0-0.3,0.3-0.6,0.6-0.6h9c0.3,0,0.6,0.3,0.6,0.6l0,0
		C12.7,42.3,12.4,42.6,12,42.6z"/>
	
		<linearGradient id="SVGID_5_" gradientUnits="userSpaceOnUse" x1="7.0914" y1="22.5196" x2="3.6079" y2="25.8802" gradientTransform="matrix(1 0 0 -1 0 68)">
		<stop  offset="0" style="stop-color:#D300FF"/>
		<stop  offset="0.8565" style="stop-color:#42FFFF"/>
	</linearGradient>
	<path class="st5" d="M7.7,44.4H3.1c-0.3,0-0.6-0.3-0.6-0.6l0,0c0-0.3,0.3-0.6,0.6-0.6h4.6c0.3,0,0.6,0.3,0.6,0.6l0,0
		C8.3,44.2,8,44.4,7.7,44.4z"/>
</g>
</svg>
