<?xml version="1.0" encoding="utf-8"?>
<!-- Generator: Adobe Illustrator 19.0.0, SVG Export Plug-In . SVG Version: 6.00 Build 0)  -->
<svg version="1.1" id="Capa_1" xmlns="http://www.w3.org/2000/svg" xmlns:xlink="http://www.w3.org/1999/xlink" x="0px" y="0px"
	 viewBox="-15 17 32 32" style="enable-background:new -15 17 32 32;" xml:space="preserve">
<style type="text/css">
	.st0{fill:#69B0B7;stroke:url(#SVGID_1_);stroke-width:0.5;stroke-miterlimit:10;}
	.st1{fill:#193372;stroke:url(#SVGID_2_);stroke-width:0.25;stroke-miterlimit:10;}
	.st2{fill:#193372;stroke:url(#SVGID_3_);stroke-width:0.25;stroke-miterlimit:10;}
</style>
<g>
	<g>
		
			<linearGradient id="SVGID_1_" gradientUnits="userSpaceOnUse" x1="10.1772" y1="24.7989" x2="-6.0734" y2="41.3227" gradientTransform="matrix(0.9997 -2.626982e-002 -2.626982e-002 -0.9997 0.7985 67.2025)">
			<stop  offset="0" style="stop-color:#D300FF"/>
			<stop  offset="0.8565" style="stop-color:#42FFFF"/>
		</linearGradient>
		<path class="st0" d="M15,35.4c0.1-2.4-1.8-4.5-4.3-4.5c-0.1,0-0.2,0-0.4,0c0.5-0.9,0.7-1.8,0.8-2.9c0.1-3.6-2.7-6.6-6.3-6.7
			c-3.2-0.1-5.9,2.1-6.5,5.1c-4.5-1.6-7.7,2.4-7.3,5.5c-2.3-0.2-3.8,1.6-3.9,3.6c-0.1,1.8,1,3.4,2.5,4.1l0,0l0,0
			c0.5,0.2,1.1,0.4,1.7,0.4l20.4-0.5C13.5,39,14.9,37.4,15,35.4z"/>
	</g>
	
		<linearGradient id="SVGID_2_" gradientUnits="userSpaceOnUse" x1="7.171" y1="19.6979" x2="-5.3161" y2="31.7449" gradientTransform="matrix(1 0 0 -1 0 68)">
		<stop  offset="0" style="stop-color:#D300FF"/>
		<stop  offset="0.8565" style="stop-color:#42FFFF"/>
	</linearGradient>
	<path class="st1" d="M12,42.9h-22c-0.3,0-0.6-0.3-0.6-0.6l0,0c0-0.3,0.3-0.6,0.6-0.6h22c0.3,0,0.6,0.3,0.6,0.6l0,0
		C12.7,42.6,12.4,42.9,12,42.9z"/>
	
		<linearGradient id="SVGID_3_" gradientUnits="userSpaceOnUse" x1="7.2167" y1="17.8537" x2="-5.2704" y2="29.9007" gradientTransform="matrix(1 0 0 -1 0 68)">
		<stop  offset="0" style="stop-color:#D300FF"/>
		<stop  offset="0.8565" style="stop-color:#42FFFF"/>
	</linearGradient>
	<path class="st2" d="M12,44.7h-22c-0.3,0-0.6-0.3-0.6-0.6l0,0c0-0.3,0.3-0.6,0.6-0.6h22c0.3,0,0.6,0.3,0.6,0.6l0,0
		C12.7,44.5,12.4,44.7,12,44.7z"/>
</g>
</svg>
