<?xml version="1.0" encoding="utf-8"?>
<!-- Generator: Adobe Illustrator 19.0.0, SVG Export Plug-In . SVG Version: 6.00 Build 0)  -->
<svg version="1.1" id="Capa_1" xmlns="http://www.w3.org/2000/svg" xmlns:xlink="http://www.w3.org/1999/xlink" x="0px" y="0px"
	 viewBox="-15 17 32 32" style="enable-background:new -15 17 32 32;" xml:space="preserve">
<style type="text/css">
	.st0{fill:#3F5889;stroke:url(#SVGID_1_);stroke-width:0.5;stroke-miterlimit:10;}
	.st1{fill:#193372;stroke:url(#SVGID_2_);stroke-width:0.5;stroke-miterlimit:10;}
	.st2{fill:#193372;stroke:url(#SVGID_3_);stroke-width:0.5;stroke-miterlimit:10;}
	.st3{fill:#193372;stroke:url(#SVGID_4_);stroke-width:0.5;stroke-miterlimit:10;}
	.st4{fill:#193372;stroke:url(#SVGID_5_);stroke-width:0.5;stroke-miterlimit:10;}
	.st5{fill:#193372;stroke:url(#SVGID_6_);stroke-width:0.5;stroke-miterlimit:10;}
	.st6{fill:#193372;stroke:url(#SVGID_7_);stroke-width:0.5;stroke-miterlimit:10;}
</style>
<g>
	<g>
		
			<linearGradient id="SVGID_1_" gradientUnits="userSpaceOnUse" x1="10.1608" y1="24.9184" x2="-6.0899" y2="41.4421" gradientTransform="matrix(0.9997 -2.626982e-002 -2.626982e-002 -0.9997 0.7985 67.2025)">
			<stop  offset="0" style="stop-color:#D300FF"/>
			<stop  offset="0.8565" style="stop-color:#42FFFF"/>
		</linearGradient>
		<path class="st0" d="M15,35.2c0.1-2.4-1.8-4.5-4.3-4.5c-0.1,0-0.2,0-0.4,0c0.5-0.8,0.8-1.8,0.8-2.8c0.1-3.6-2.7-6.6-6.3-6.7
			c-3.2-0.1-5.9,2.1-6.5,5.1c-4.5-1.6-7.7,2.4-7.3,5.5c-2.3-0.2-3.8,1.6-3.9,3.6c-0.1,1.8,1,3.4,2.5,4.1l0,0l0,0
			c0.5,0.2,1.1,0.4,1.7,0.4l20.4-0.5C13.5,38.9,14.9,37.2,15,35.2z"/>
	</g>
	
		<linearGradient id="SVGID_2_" gradientUnits="userSpaceOnUse" x1="-6.323" y1="24.9484" x2="-2.18" y2="24.9484" gradientTransform="matrix(1 0 0 -1 0 68)">
		<stop  offset="0" style="stop-color:#D300FF"/>
		<stop  offset="0.8565" style="stop-color:#42FFFF"/>
	</linearGradient>
	<polygon class="st1" points="-4,44.7 -5.9,44.7 -4.4,41.4 -2.5,41.4 	"/>
	
		<linearGradient id="SVGID_3_" gradientUnits="userSpaceOnUse" x1="4.6048" y1="24.9484" x2="8.7478" y2="24.9484" gradientTransform="matrix(1 0 0 -1 0 68)">
		<stop  offset="0" style="stop-color:#D300FF"/>
		<stop  offset="0.8565" style="stop-color:#42FFFF"/>
	</linearGradient>
	<polygon class="st2" points="6.9,44.7 5,44.7 6.6,41.4 8.4,41.4 	"/>
	
		<linearGradient id="SVGID_4_" gradientUnits="userSpaceOnUse" x1="8.219" y1="24.9484" x2="12.3621" y2="24.9484" gradientTransform="matrix(1 0 0 -1 0 68)">
		<stop  offset="0" style="stop-color:#D300FF"/>
		<stop  offset="0.8565" style="stop-color:#42FFFF"/>
	</linearGradient>
	<polygon class="st3" points="10.5,44.7 8.7,44.7 10.2,41.4 12,41.4 	"/>
	
		<linearGradient id="SVGID_5_" gradientUnits="userSpaceOnUse" x1="-2.6452" y1="24.9484" x2="1.4978" y2="24.9484" gradientTransform="matrix(1 0 0 -1 0 68)">
		<stop  offset="0" style="stop-color:#D300FF"/>
		<stop  offset="0.8565" style="stop-color:#42FFFF"/>
	</linearGradient>
	<polygon class="st4" points="-0.4,44.7 -2.2,44.7 -0.7,41.4 1.2,41.4 	"/>
	
		<linearGradient id="SVGID_6_" gradientUnits="userSpaceOnUse" x1="0.969" y1="24.9484" x2="5.1121" y2="24.9484" gradientTransform="matrix(1 0 0 -1 0 68)">
		<stop  offset="0" style="stop-color:#D300FF"/>
		<stop  offset="0.8565" style="stop-color:#42FFFF"/>
	</linearGradient>
	<polygon class="st5" points="3.2,44.7 1.4,44.7 2.9,41.4 4.8,41.4 	"/>
	
		<linearGradient id="SVGID_7_" gradientUnits="userSpaceOnUse" x1="-9.7136" y1="24.7502" x2="-5.4879" y2="24.7502" gradientTransform="matrix(1 0 0 -1 0 68)">
		<stop  offset="0" style="stop-color:#D300FF"/>
		<stop  offset="0.8565" style="stop-color:#42FFFF"/>
	</linearGradient>
	<polygon class="st6" points="-7.6,44.8 -9.3,41.4 -5.8,41.4 	"/>
</g>
</svg>
