<?xml version="1.0" encoding="utf-8"?>
<!-- Generator: Adobe Illustrator 19.0.0, SVG Export Plug-In . SVG Version: 6.00 Build 0)  -->
<svg version="1.1" id="Capa_1" xmlns="http://www.w3.org/2000/svg" xmlns:xlink="http://www.w3.org/1999/xlink" x="0px" y="0px"
	 viewBox="-15 17 32 32" style="enable-background:new -15 17 32 32;" xml:space="preserve">
<style type="text/css">
	.st0{fill:#193372;stroke:url(#SVGID_1_);stroke-width:0.5;stroke-miterlimit:10;}
	.st1{fill:#0F234C;stroke:url(#SVGID_2_);stroke-width:0.5;stroke-miterlimit:10;}
	.st2{fill:#0F234C;stroke:url(#SVGID_3_);stroke-width:0.5;stroke-miterlimit:10;}
	.st3{fill:none;stroke:url(#SVGID_4_);stroke-width:0.25;stroke-miterlimit:10;}
	.st4{fill:#0F234C;}
</style>
<g>
	<g>
		
			<linearGradient id="SVGID_1_" gradientUnits="userSpaceOnUse" x1="10.289" y1="36.1197" x2="-5.9617" y2="19.5959" gradientTransform="matrix(0.9997 -2.626982e-002 2.626982e-002 0.9997 -0.9623 4.858)">
			<stop  offset="0" style="stop-color:#D300FF"/>
			<stop  offset="0.8565" style="stop-color:#42FFFF"/>
		</linearGradient>
		<path class="st0" d="M15,34c0.1-2.4-1.8-4.5-4.3-4.5c-0.1,0-0.2,0-0.4,0c0.5-0.9,0.7-1.8,0.8-2.9c0.1-3.6-2.7-6.6-6.3-6.7
			C1.7,19.8-1,22-1.7,25c-4.5-1.6-7.7,2.4-7.3,5.5c-2.3-0.2-3.8,1.6-3.9,3.6c-0.1,1.8,1,3.4,2.5,4.1l0,0l0,0
			c0.5,0.2,1.1,0.4,1.7,0.4l20.4-0.5C13.5,37.6,14.9,36,15,34z"/>
	</g>
	
		<linearGradient id="SVGID_2_" gradientUnits="userSpaceOnUse" x1="-6.2821" y1="34.9016" x2="-1.1992" y2="34.9016" gradientTransform="matrix(1 0 0 1 0 8)">
		<stop  offset="0" style="stop-color:#D300FF"/>
		<stop  offset="0.8565" style="stop-color:#42FFFF"/>
	</linearGradient>
	<polygon class="st1" points="-3.9,45.7 -5.8,45.7 -3.4,40.1 -1.5,40.1 	"/>
	
		<linearGradient id="SVGID_3_" gradientUnits="userSpaceOnUse" x1="-2.4997" y1="34.9016" x2="2.5763" y2="34.9016" gradientTransform="matrix(1 0 0 1 0 8)">
		<stop  offset="0" style="stop-color:#D300FF"/>
		<stop  offset="0.8565" style="stop-color:#42FFFF"/>
	</linearGradient>
	<polygon class="st2" points="-0.2,45.7 -2,45.7 0.4,40.1 2.3,40.1 	"/>
	<g>
		
			<linearGradient id="SVGID_4_" gradientUnits="userSpaceOnUse" x1="2.6536" y1="39.0516" x2="8.6769" y2="39.0516" gradientTransform="matrix(1 0 0 1 0 4)">
			<stop  offset="0" style="stop-color:#D300FF"/>
			<stop  offset="0.8565" style="stop-color:#42FFFF"/>
		</linearGradient>
		<path class="st3" d="M8.2,43.8l0.2-0.1l-0.3-0.5l-0.2,0.1c-0.2,0.1-0.4,0.2-0.5,0.4l-1.1-0.6l1.1-0.6c0.1,0.2,0.3,0.3,0.5,0.4
			L8.1,43l0.3-0.5l-0.2-0.1c-0.1-0.1-0.2-0.1-0.3-0.2l0.7-0.4l-0.3-0.5l-0.7,0.4c0-0.1,0-0.2,0-0.3v-0.3H7v0.3c0,0.2,0,0.4,0.1,0.6
			L6,42.6v-1.3c0.2,0,0.4-0.1,0.6-0.2L6.8,41l-0.3-0.5l-0.2,0.1c-0.1,0.1-0.2,0.1-0.3,0.1V40H5.5v0.7c-0.1,0-0.2-0.1-0.3-0.1L5,40.5
			L4.7,41l0.2,0.1c0.2,0.1,0.4,0.2,0.6,0.2v1.3L4.4,42c0.1-0.2,0.1-0.4,0.1-0.6v-0.3H3.9v0.3c0,0.1,0,0.2,0,0.3l-0.7-0.4l-0.3,0.5
			l0.7,0.4c-0.1,0.1-0.2,0.1-0.3,0.2l-0.2,0.1L3.4,43l0.2-0.2c0.2-0.1,0.4-0.2,0.5-0.4L5.2,43l-1.1,0.6c-0.1-0.2-0.3-0.3-0.5-0.4
			l-0.2-0.1l-0.3,0.5l0.2,0.2c0.1,0.1,0.2,0.1,0.3,0.2l-0.7,0.4l0.3,0.5l0.7-0.4c0,0.1,0,0.2,0,0.3v0.3h0.6v-0.3
			c0-0.2,0-0.4-0.1-0.6l1.1-0.6v1.2c-0.2,0-0.4,0.1-0.6,0.2l-0.2,0.1L5,45.6l0.2-0.1c0.1-0.1,0.2-0.1,0.3-0.1v0.7H6v-0.7
			c0.1,0,0.2,0.1,0.3,0.1l0.2,0.1l0.3-0.5L6.6,45c-0.1-0.1-0.3-0.1-0.6-0.2v-1.3l1.1,0.6c0,0.3-0.1,0.5,0,0.7v0.3h0.6v-0.3
			c0-0.1,0-0.2,0-0.3l0.6,0.3l0.3-0.5l-0.7-0.4C8,43.9,8.1,43.8,8.2,43.8z"/>
		<path class="st4" d="M8.2,43.8l0.2-0.1l-0.3-0.5l-0.2,0.1c-0.2,0.1-0.4,0.2-0.5,0.4l-1.1-0.6l1.1-0.6c0.1,0.2,0.3,0.3,0.5,0.4
			L8.1,43l0.3-0.5l-0.2-0.1c-0.1-0.1-0.2-0.1-0.3-0.2l0.7-0.4l-0.3-0.5l-0.7,0.4c0-0.1,0-0.2,0-0.3v-0.3H7v0.3c0,0.2,0,0.4,0.1,0.6
			L6,42.6v-1.3c0.2,0,0.4-0.1,0.6-0.2L6.8,41l-0.3-0.5l-0.2,0.1c-0.1,0.1-0.2,0.1-0.3,0.1V40H5.5v0.7c-0.1,0-0.2-0.1-0.3-0.1L5,40.5
			L4.7,41l0.2,0.1c0.2,0.1,0.4,0.2,0.6,0.2v1.3L4.4,42c0.1-0.2,0.1-0.4,0.1-0.6v-0.3H3.9v0.3c0,0.1,0,0.2,0,0.3l-0.7-0.4l-0.3,0.5
			l0.7,0.4c-0.1,0.1-0.2,0.1-0.3,0.2l-0.2,0.1L3.4,43l0.2-0.2c0.2-0.1,0.4-0.2,0.5-0.4L5.2,43l-1.1,0.6c-0.1-0.2-0.3-0.3-0.5-0.4
			l-0.2-0.1l-0.3,0.5l0.2,0.2c0.1,0.1,0.2,0.1,0.3,0.2l-0.7,0.4l0.3,0.5l0.7-0.4c0,0.1,0,0.2,0,0.3v0.3h0.6v-0.3
			c0-0.2,0-0.4-0.1-0.6l1.1-0.6v1.2c-0.2,0-0.4,0.1-0.6,0.2l-0.2,0.1L5,45.6l0.2-0.1c0.1-0.1,0.2-0.1,0.3-0.1v0.7H6v-0.7
			c0.1,0,0.2,0.1,0.3,0.1l0.2,0.1l0.3-0.5L6.6,45c-0.1-0.1-0.3-0.1-0.6-0.2v-1.3l1.1,0.6c0,0.3-0.1,0.5,0,0.7v0.3h0.6v-0.3
			c0-0.1,0-0.2,0-0.3l0.6,0.3l0.3-0.5l-0.7-0.4C8,43.9,8.1,43.8,8.2,43.8z"/>
	</g>
</g>
</svg>
