<?xml version="1.0" encoding="utf-8"?>
<!-- Generator: Adobe Illustrator 19.0.0, SVG Export Plug-In . SVG Version: 6.00 Build 0)  -->
<svg version="1.1" id="Capa_1" xmlns="http://www.w3.org/2000/svg" xmlns:xlink="http://www.w3.org/1999/xlink" x="0px" y="0px"
	 viewBox="-15 17 32 32" style="enable-background:new -15 17 32 32;" xml:space="preserve">
<style type="text/css">
	.st0{fill:url(#XMLID_3_);}
	.st1{fill:url(#XMLID_4_);}
	.st2{fill:url(#XMLID_8_);}
	.st3{fill:url(#XMLID_9_);}
	.st4{fill:url(#XMLID_12_);}
	.st5{fill:url(#XMLID_13_);}
	.st6{fill:url(#XMLID_14_);}
	.st7{fill:url(#XMLID_17_);}
	.st8{fill:url(#XMLID_20_);}
	.st9{fill:url(#XMLID_21_);}
	.st10{fill:url(#XMLID_24_);}
	.st11{fill:url(#XMLID_27_);}
	.st12{fill:url(#XMLID_28_);}
	.st13{fill:#47C3C9;stroke:url(#SVGID_1_);stroke-width:0.5;stroke-miterlimit:10;}
	.st14{fill:none;stroke:url(#SVGID_2_);stroke-width:0.25;stroke-miterlimit:10;}
	.st15{fill:#193372;}
	.st16{fill:none;stroke:url(#SVGID_3_);stroke-width:0.25;stroke-miterlimit:10;}
</style>
<g>
	<g id="XMLID_6_">
		
			<linearGradient id="XMLID_3_" gradientUnits="userSpaceOnUse" x1="0.6106" y1="36.1626" x2="-13.7124" y2="53.4086" gradientTransform="matrix(1 0 0 -1 0 72)">
			<stop  offset="0" style="stop-color:#D300FF"/>
			<stop  offset="0.8565" style="stop-color:#42FFFF"/>
		</linearGradient>
		<circle id="XMLID_2_" class="st0" cx="-4.9" cy="29.2" r="5.3"/>
		
			<linearGradient id="XMLID_4_" gradientUnits="userSpaceOnUse" x1="5.0626" y1="39.2519" x2="-9.7057" y2="57.0343" gradientTransform="matrix(1 0 0 -1 0 72)">
			<stop  offset="0" style="stop-color:#D300FF"/>
			<stop  offset="0.8565" style="stop-color:#42FFFF"/>
		</linearGradient>
		<path id="XMLID_5_" class="st1" d="M-4.8,22.5H-5c-0.4,0-0.7-0.3-0.7-0.7v-2.1c0-0.4,0.3-0.7,0.7-0.7h0.2c0.4,0,0.7,0.3,0.7,0.7
			v2.2C-4.1,22.2-4.4,22.5-4.8,22.5z"/>
		
			<linearGradient id="XMLID_8_" gradientUnits="userSpaceOnUse" x1="-3.1467" y1="32.9367" x2="-17.915" y2="50.7189" gradientTransform="matrix(1 0 0 -1 0 72)">
			<stop  offset="0" style="stop-color:#D300FF"/>
			<stop  offset="0.8565" style="stop-color:#42FFFF"/>
		</linearGradient>
		<path id="XMLID_7_" class="st2" d="M-4.8,38.7H-5c-0.4,0-0.7-0.3-0.7-0.7v-2.1c0-0.4,0.3-0.7,0.7-0.7h0.2c0.4,0,0.7,0.3,0.7,0.7
			V38C-4.1,38.4-4.4,38.7-4.8,38.7z"/>
		
			<linearGradient id="XMLID_9_" gradientUnits="userSpaceOnUse" x1="-3.7488" y1="31.927" x2="-18.5562" y2="49.7563" gradientTransform="matrix(1 0 0 -1 0 72)">
			<stop  offset="0" style="stop-color:#D300FF"/>
			<stop  offset="0.8565" style="stop-color:#42FFFF"/>
		</linearGradient>
		<path id="XMLID_11_" class="st3" d="M-11.3,28.8V29c0,0.4-0.3,0.7-0.7,0.7h-2c-0.4,0-0.7-0.3-0.7-0.7v-0.2c0-0.4,0.3-0.7,0.7-0.7
			h2.1C-11.6,28.2-11.3,28.5-11.3,28.8z"/>
		
			<linearGradient id="XMLID_12_" gradientUnits="userSpaceOnUse" x1="5.6153" y1="40.1579" x2="-9.1921" y2="57.9872" gradientTransform="matrix(1 0 0 -1 0 72)">
			<stop  offset="0" style="stop-color:#D300FF"/>
			<stop  offset="0.8565" style="stop-color:#42FFFF"/>
		</linearGradient>
		<path id="XMLID_10_" class="st4" d="M4.9,28.8V29c0,0.4-0.3,0.7-0.7,0.7h-2c-0.4,0-0.7-0.3-0.7-0.7v-0.2c0-0.4,0.3-0.7,0.7-0.7
			h2.1C4.6,28.2,4.9,28.5,4.9,28.8z"/>
		
			<linearGradient id="XMLID_13_" gradientUnits="userSpaceOnUse" x1="6.9879" y1="41.292" x2="-7.5763" y2="58.8284" gradientTransform="matrix(1 0 0 -1 0 72)">
			<stop  offset="0" style="stop-color:#D300FF"/>
			<stop  offset="0.8565" style="stop-color:#42FFFF"/>
		</linearGradient>
		<path id="XMLID_19_" class="st5" d="M0.6,25.7l-0.1-0.2c-0.2-0.3-0.1-0.7,0.2-0.9l1.8-1.1c0.3-0.2,0.7-0.1,0.9,0.2l0.1,0.2
			c0.2,0.3,0.1,0.7-0.2,0.9l-1.8,1.1C1.2,26.1,0.8,26,0.6,25.7z"/>
		
			<linearGradient id="XMLID_14_" gradientUnits="userSpaceOnUse" x1="-5.282" y1="31.0495" x2="-19.8462" y2="48.586" gradientTransform="matrix(1 0 0 -1 0 72)">
			<stop  offset="0" style="stop-color:#D300FF"/>
			<stop  offset="0.8565" style="stop-color:#42FFFF"/>
		</linearGradient>
		<path id="XMLID_18_" class="st6" d="M-13.2,34.1l-0.1-0.2c-0.2-0.3-0.1-0.7,0.2-0.9l1.8-1.1c0.3-0.2,0.7-0.1,0.9,0.2l0.1,0.2
			c0.2,0.3,0.1,0.7-0.2,0.9l-1.8,1.1C-12.6,34.5-13,34.4-13.2,34.1z"/>
		
			<linearGradient id="XMLID_17_" gradientUnits="userSpaceOnUse" x1="1.7618" y1="36.9192" x2="-12.6919" y2="54.3226" gradientTransform="matrix(1 0 0 -1 0 72)">
			<stop  offset="0" style="stop-color:#D300FF"/>
			<stop  offset="0.8565" style="stop-color:#42FFFF"/>
		</linearGradient>
		<path id="XMLID_16_" class="st7" d="M-8.1,23.4l-0.2,0.1c-0.3,0.2-0.7,0.1-0.9-0.2l-1.1-1.8c-0.2-0.3-0.1-0.7,0.2-0.9l0.2-0.1
			c0.3-0.2,0.7-0.1,0.9,0.2l1.1,1.8C-7.7,22.8-7.8,23.2-8.1,23.4z"/>
		
			<linearGradient id="XMLID_20_" gradientUnits="userSpaceOnUse" x1="-0.1429" y1="35.527" x2="-14.5966" y2="52.9305" gradientTransform="matrix(1 0 0 -1 0 72)">
			<stop  offset="0" style="stop-color:#D300FF"/>
			<stop  offset="0.8565" style="stop-color:#42FFFF"/>
		</linearGradient>
		<path id="XMLID_15_" class="st8" d="M0.3,37.2l-0.2,0.1c-0.3,0.2-0.7,0.1-0.9-0.2l-1.1-1.8C-2.1,35-2,34.6-1.7,34.4l0.2-0.1
			c0.3-0.2,0.7-0.1,0.9,0.2l1.1,1.8C0.7,36.6,0.6,37,0.3,37.2z"/>
		
			<linearGradient id="XMLID_21_" gradientUnits="userSpaceOnUse" x1="3.0171" y1="38.1272" x2="-11.5962" y2="55.7228" gradientTransform="matrix(1 0 0 -1 0 72)">
			<stop  offset="0" style="stop-color:#D300FF"/>
			<stop  offset="0.8565" style="stop-color:#42FFFF"/>
		</linearGradient>
		<path id="XMLID_26_" class="st9" d="M0.6,32.1l0.1-0.2c0.2-0.3,0.6-0.4,0.9-0.3l1.8,1c0.3,0.2,0.4,0.6,0.3,0.9l-0.1,0.2
			C3.4,34,3,34.1,2.7,34l-1.8-1C0.6,32.9,0.5,32.5,0.6,32.1z"/>
		
			<linearGradient id="XMLID_24_" gradientUnits="userSpaceOnUse" x1="-1.2889" y1="34.1539" x2="-15.9021" y2="51.7495" gradientTransform="matrix(1 0 0 -1 0 72)">
			<stop  offset="0" style="stop-color:#D300FF"/>
			<stop  offset="0.8565" style="stop-color:#42FFFF"/>
		</linearGradient>
		<path id="XMLID_25_" class="st10" d="M-13.5,24.3l0.1-0.2c0.2-0.3,0.6-0.4,0.9-0.3l1.8,1c0.3,0.2,0.4,0.6,0.3,0.9l-0.1,0.2
			c-0.2,0.3-0.6,0.4-0.9,0.3l-1.8-1C-13.5,25-13.7,24.6-13.5,24.3z"/>
		
			<linearGradient id="XMLID_27_" gradientUnits="userSpaceOnUse" x1="6.7551" y1="40.8099" x2="-7.9954" y2="58.5707" gradientTransform="matrix(1 0 0 -1 0 72)">
			<stop  offset="0" style="stop-color:#D300FF"/>
			<stop  offset="0.8565" style="stop-color:#42FFFF"/>
		</linearGradient>
		<path id="XMLID_23_" class="st11" d="M-1.7,23.4l-0.2-0.1c-0.3-0.2-0.4-0.6-0.3-0.9l1-1.8c0.2-0.3,0.6-0.4,0.9-0.3l0.2,0.1
			c0.3,0.2,0.4,0.6,0.3,0.9l-1,1.8C-1,23.5-1.4,23.6-1.7,23.4z"/>
		
			<linearGradient id="XMLID_28_" gradientUnits="userSpaceOnUse" x1="-4.9024" y1="31.3547" x2="-19.6529" y2="49.1155" gradientTransform="matrix(1 0 0 -1 0 72)">
			<stop  offset="0" style="stop-color:#D300FF"/>
			<stop  offset="0.8565" style="stop-color:#42FFFF"/>
		</linearGradient>
		<path id="XMLID_22_" class="st12" d="M-9.5,37.5l-0.2-0.1c-0.3-0.2-0.4-0.6-0.3-0.9l1-1.8c0.2-0.3,0.6-0.4,0.9-0.3l0.2,0.1
			c0.3,0.2,0.4,0.6,0.3,0.9l-1,1.8C-8.8,37.6-9.2,37.7-9.5,37.5z"/>
	</g>
	<g>
		
			<linearGradient id="SVGID_1_" gradientUnits="userSpaceOnUse" x1="11.9605" y1="25.4777" x2="-4.2902" y2="42.0015" gradientTransform="matrix(0.9997 -2.626982e-002 -2.626982e-002 -0.9997 0.7805 69.6263)">
			<stop  offset="0" style="stop-color:#D300FF"/>
			<stop  offset="0.8565" style="stop-color:#42FFFF"/>
		</linearGradient>
		<path class="st13" d="M16.7,37.1c0.1-2.4-1.8-4.5-4.3-4.5c-0.1,0-0.2,0-0.4,0c0.5-0.9,0.7-1.8,0.8-2.9c0.1-3.6-2.7-6.6-6.3-6.7
			c-3.1-0.1-5.8,2.1-6.5,5.1c-4.5-1.6-7.7,2.4-7.3,5.5c-2.3-0.2-3.8,1.6-3.9,3.6c-0.1,1.8,1,3.4,2.5,4.1l0,0l0,0
			c0.5,0.2,1.1,0.4,1.7,0.4l20.4-0.5C15.2,40.7,16.6,39.1,16.7,37.1z"/>
	</g>
	<g>
		
			<linearGradient id="SVGID_2_" gradientUnits="userSpaceOnUse" x1="-1.136" y1="41.05" x2="2.777" y2="41.05" gradientTransform="matrix(1 0 0 1 0 4)">
			<stop  offset="0" style="stop-color:#D300FF"/>
			<stop  offset="0.8565" style="stop-color:#42FFFF"/>
		</linearGradient>
		<path class="st14" d="M2.4,45.5l0.2-0.1l-0.2-0.3l-0.2,0.1c-0.1,0.1-0.2,0.2-0.3,0.3L1.2,45l0.7-0.4C2,44.8,2.1,44.9,2.2,45h0.2
			l0.2-0.3l-0.2-0.1c-0.1,0-0.1-0.1-0.2-0.1l0.5-0.3l-0.2-0.3L2,44.2C2,44.1,2,44,2,44v-0.2H1.7V44c0,0.1,0,0.3,0.1,0.4L1,44.8V44
			c0.1,0,0.3-0.1,0.4-0.2l0.2-0.1l-0.2-0.3l-0.2,0.1c-0.1,0-0.1,0.1-0.2,0.1v-0.5H0.7v0.5c-0.1,0-0.1,0-0.2-0.1l-0.2-0.1l-0.2,0.3
			l0.2,0.1c0.1,0.1,0.3,0.1,0.4,0.2v0.8L0,44.4c0-0.1,0-0.2,0-0.3v-0.2h-0.4v0.2c0,0.1,0,0.2,0,0.2L-0.9,44L-1,44.2l0.5,0.3
			c-0.1,0-0.1,0.1-0.2,0.1l-0.2,0.1l0.2,0.3l0.2-0.1c0.1-0.1,0.2-0.2,0.3-0.3L0.5,45l-0.7,0.4c-0.1-0.1-0.2-0.2-0.3-0.3L-0.7,45
			l-0.2,0.3l0.2,0.1c0.1,0,0.1,0.1,0.2,0.1L-1,45.9l0.2,0.3l0.5-0.3c0,0.1,0,0.2,0,0.2v0.2H0v-0.2c0-0.1,0-0.3-0.1-0.4l0.7-0.4v0.8
			c-0.1,0-0.3,0.1-0.4,0.2L0,46.4l0.2,0.3l0.2-0.1c0.1,0,0.1-0.1,0.2-0.1V47H1v-0.5c0.1,0,0.1,0,0.2,0.1l0.2,0.1l0.2-0.3l-0.2-0.1
			c-0.1-0.1-0.3-0.1-0.4-0.2v-0.8l0.7,0.4c-0.1,0.1-0.1,0.3-0.1,0.4v0.2H2v-0.2c0-0.1,0-0.2,0-0.2l0.5,0.3l0.2-0.3l-0.5-0.3
			C2.2,45.6,2.3,45.6,2.4,45.5z"/>
		<path class="st15" d="M2.4,45.5l0.2-0.1l-0.2-0.3l-0.2,0.1c-0.1,0.1-0.2,0.2-0.3,0.3L1.2,45l0.7-0.4C2,44.8,2.1,44.9,2.2,45h0.2
			l0.2-0.3l-0.2-0.1c-0.1,0-0.1-0.1-0.2-0.1l0.5-0.3l-0.2-0.3L2,44.2C2,44.1,2,44,2,44v-0.2H1.7V44c0,0.1,0,0.3,0.1,0.4L1,44.8V44
			c0.1,0,0.3-0.1,0.4-0.2l0.2-0.1l-0.2-0.3l-0.2,0.1c-0.1,0-0.1,0.1-0.2,0.1v-0.5H0.7v0.5c-0.1,0-0.1,0-0.2-0.1l-0.2-0.1l-0.2,0.3
			l0.2,0.1c0.1,0.1,0.3,0.1,0.4,0.2v0.8L0,44.4c0-0.1,0-0.2,0-0.3v-0.2h-0.4v0.2c0,0.1,0,0.2,0,0.2L-0.9,44L-1,44.2l0.5,0.3
			c-0.1,0-0.1,0.1-0.2,0.1l-0.2,0.1l0.2,0.3l0.2-0.1c0.1-0.1,0.2-0.2,0.3-0.3L0.5,45l-0.7,0.4c-0.1-0.1-0.2-0.2-0.3-0.3L-0.7,45
			l-0.2,0.3l0.2,0.1c0.1,0,0.1,0.1,0.2,0.1L-1,45.9l0.2,0.3l0.5-0.3c0,0.1,0,0.2,0,0.2v0.2H0v-0.2c0-0.1,0-0.3-0.1-0.4l0.7-0.4v0.8
			c-0.1,0-0.3,0.1-0.4,0.2L0,46.4l0.2,0.3l0.2-0.1c0.1,0,0.1-0.1,0.2-0.1V47H1v-0.5c0.1,0,0.1,0,0.2,0.1l0.2,0.1l0.2-0.3l-0.2-0.1
			c-0.1-0.1-0.3-0.1-0.4-0.2v-0.8l0.7,0.4c-0.1,0.1-0.1,0.3-0.1,0.4v0.2H2v-0.2c0-0.1,0-0.2,0-0.2l0.5,0.3l0.2-0.3l-0.5-0.3
			C2.2,45.6,2.3,45.6,2.4,45.5z"/>
	</g>
	<g>
		
			<linearGradient id="SVGID_3_" gradientUnits="userSpaceOnUse" x1="3.7192" y1="41.05" x2="7.6322" y2="41.05" gradientTransform="matrix(1 0 0 1 0 4)">
			<stop  offset="0" style="stop-color:#D300FF"/>
			<stop  offset="0.8565" style="stop-color:#42FFFF"/>
		</linearGradient>
		<path class="st16" d="M7.2,45.5l0.2-0.1l-0.2-0.3L7,45.2c-0.1,0.1-0.2,0.2-0.3,0.3L6,45l0.7-0.4C6.9,44.8,7,44.9,7.1,45h0.2
			l0.2-0.3l-0.2-0.1c-0.1,0-0.1-0.1-0.2-0.1l0.5-0.3l-0.2-0.3l-0.5,0.3c0-0.1,0-0.2,0-0.2v-0.2H6.5V44c0,0.1,0,0.3,0.1,0.4l-0.7,0.4
			V44c0.1,0,0.3-0.1,0.4-0.2l0.2-0.1l-0.2-0.3l-0.2,0.1c-0.1,0-0.1,0.1-0.2,0.1v-0.5H5.5v0.5c-0.1,0-0.1,0-0.2-0.1l-0.2-0.1L5,43.7
			l0.2,0.1c0.1,0.1,0.3,0.1,0.4,0.2v0.8l-0.7-0.4C5,44.3,5,44.1,5,44v-0.2H4.5V44c0,0.1,0,0.2,0,0.2L4,43.9l-0.2,0.3l0.5,0.3
			c-0.1,0-0.1,0.1-0.2,0.1L4,44.7L4.2,45l0.2-0.1c0.1-0.1,0.2-0.2,0.3-0.3L5.4,45l-0.7,0.4c-0.1-0.1-0.2-0.2-0.3-0.3L4.2,45L4,45.2
			l0.2,0.1c0.1,0,0.1,0.1,0.2,0.1l-0.5,0.5l0.2,0.3l0.5-0.3c0,0.1,0,0.2,0,0.2v0.2H5v-0.2c0-0.1,0-0.3-0.1-0.4l0.7-0.4v0.8
			c-0.1,0-0.3,0.1-0.4,0.2L5,46.4l0.2,0.3l0.2-0.1c0.1,0,0.1-0.1,0.2-0.1V47H6v-0.5c0.1,0,0.1,0,0.2,0.1l0.2,0.1l0.2-0.3l-0.2-0.1
			c-0.1-0.1-0.3-0.1-0.4-0.2v-0.8l0.7,0.4c-0.1,0.1-0.1,0.3-0.1,0.4v0.2H7v-0.2c0-0.1,0-0.2,0-0.2l0.5,0.3l0.2-0.3l-0.5-0.3
			C7.1,45.6,7.1,45.6,7.2,45.5z"/>
		<path class="st15" d="M7.2,45.5l0.2-0.1l-0.2-0.3L7,45.2c-0.1,0.1-0.2,0.2-0.3,0.3L6,45l0.7-0.4C6.9,44.8,7,44.9,7.1,45h0.2
			l0.2-0.3l-0.2-0.1c-0.1,0-0.1-0.1-0.2-0.1l0.5-0.3l-0.2-0.3l-0.5,0.3c0-0.1,0-0.2,0-0.2v-0.2H6.5V44c0,0.1,0,0.3,0.1,0.4l-0.7,0.4
			V44c0.1,0,0.3-0.1,0.4-0.2l0.2-0.1l-0.2-0.3l-0.2,0.1c-0.1,0-0.1,0.1-0.2,0.1v-0.5H5.5v0.5c-0.1,0-0.1,0-0.2-0.1l-0.2-0.1L5,43.7
			l0.2,0.1c0.1,0.1,0.3,0.1,0.4,0.2v0.8l-0.7-0.4C5,44.3,5,44.1,5,44v-0.2H4.5V44c0,0.1,0,0.2,0,0.2L4,43.9l-0.2,0.3l0.5,0.3
			c-0.1,0-0.1,0.1-0.2,0.1L4,44.7L4.2,45l0.2-0.1c0.1-0.1,0.2-0.2,0.3-0.3L5.4,45l-0.7,0.4c-0.1-0.1-0.2-0.2-0.3-0.3L4.2,45L4,45.2
			l0.2,0.1c0.1,0,0.1,0.1,0.2,0.1l-0.5,0.5l0.2,0.3l0.5-0.3c0,0.1,0,0.2,0,0.2v0.2H5v-0.2c0-0.1,0-0.3-0.1-0.4l0.7-0.4v0.8
			c-0.1,0-0.3,0.1-0.4,0.2L5,46.4l0.2,0.3l0.2-0.1c0.1,0,0.1-0.1,0.2-0.1V47H6v-0.5c0.1,0,0.1,0,0.2,0.1l0.2,0.1l0.2-0.3l-0.2-0.1
			c-0.1-0.1-0.3-0.1-0.4-0.2v-0.8l0.7,0.4c-0.1,0.1-0.1,0.3-0.1,0.4v0.2H7v-0.2c0-0.1,0-0.2,0-0.2l0.5,0.3l0.2-0.3l-0.5-0.3
			C7.1,45.6,7.1,45.6,7.2,45.5z"/>
	</g>
</g>
</svg>
