<?xml version="1.0" encoding="utf-8"?>
<!-- Generator: Adobe Illustrator 19.0.0, SVG Export Plug-In . SVG Version: 6.00 Build 0)  -->
<svg version="1.1" id="Capa_1" xmlns="http://www.w3.org/2000/svg" xmlns:xlink="http://www.w3.org/1999/xlink" x="0px" y="0px"
	 viewBox="-17 17 32 32" style="enable-background:new -17 17 32 32;" xml:space="preserve">
<style type="text/css">
	.st0{fill:#193372;stroke:url(#SVGID_1_);stroke-width:0.5;stroke-miterlimit:10;}
	.st1{fill:none;stroke:url(#SVGID_2_);stroke-width:0.25;stroke-miterlimit:10;}
	.st2{fill:#193372;}
	.st3{fill:none;stroke:url(#SVGID_3_);stroke-width:0.25;stroke-miterlimit:10;}
	.st4{fill:url(#SVGID_4_);}
</style>
<g>
	
		<linearGradient id="SVGID_1_" gradientUnits="userSpaceOnUse" x1="9.536" y1="44.3636" x2="-6.7146" y2="27.8399" gradientTransform="matrix(0.9997 -2.626982e-002 2.626982e-002 0.9997 -0.9263 1.037041e-002)">
		<stop  offset="0" style="stop-color:#D300FF"/>
		<stop  offset="0.8565" style="stop-color:#42FFFF"/>
	</linearGradient>
	<path class="st0" d="M14.4,37.4c0.1-2.4-1.8-4.5-4.3-4.5c-0.1,0-0.2,0-0.4,0c0.5-0.9,0.7-1.8,0.8-2.9c0.1-3.6-2.7-6.6-6.3-6.7
		c-3.2-0.1-5.9,2.1-6.5,5.1c-4.5-1.6-7.7,2.4-7.3,5.5c-2.3-0.2-3.8,1.6-3.9,3.6c-0.1,1.8,1,3.4,2.5,4.1l0,0l0,0
		c0.5,0.2,1.1,0.4,1.7,0.4l20.4-0.5C12.9,41,14.3,39.4,14.4,37.4z"/>
</g>
<g>
	<linearGradient id="SVGID_2_" gradientUnits="userSpaceOnUse" x1="0.428" y1="45.1112" x2="4.7283" y2="45.1112">
		<stop  offset="0" style="stop-color:#D300FF"/>
		<stop  offset="0.8565" style="stop-color:#42FFFF"/>
	</linearGradient>
	<path class="st1" d="M4.3,45.6l0.2-0.1l-0.2-0.3l-0.2,0.1c-0.1,0.1-0.2,0.2-0.3,0.3L3,45.1l0.8-0.4c0.1,0.1,0.2,0.2,0.3,0.3L4.3,45
		l0.2-0.3l-0.2-0.1c-0.1,0-0.1-0.1-0.2-0.1l0.5-0.3l-0.2-0.3l-0.5,0.3c0-0.1,0-0.2,0-0.2l0-0.2l-0.4,0l0,0.2c0,0.1,0,0.3,0.1,0.4
		l-0.8,0.4v-0.9c0.1,0,0.3-0.1,0.4-0.2l0.2-0.1l-0.2-0.3L3,43.4c-0.1,0-0.1,0.1-0.2,0.1V43H2.4v0.5c-0.1,0-0.1,0-0.2-0.1L2,43.3
		l-0.2,0.3L2,43.7c0.1,0.1,0.3,0.1,0.4,0.2v0.9l-0.8-0.4c0.1-0.1,0.1-0.3,0.1-0.4l0-0.2l-0.4,0l0,0.2c0,0.1,0,0.2,0,0.2l-0.5-0.3
		l-0.2,0.3l0.5,0.3C1,44.5,1,44.6,0.9,44.6l-0.2,0.1L0.9,45l0.2-0.1c0.1-0.1,0.2-0.2,0.3-0.3l0.8,0.4l-0.8,0.4
		c-0.1-0.1-0.2-0.2-0.3-0.3l-0.2-0.1l-0.2,0.3l0.2,0.1c0.1,0,0.1,0.1,0.2,0.1L0.6,46l0.2,0.3l0.5-0.3c0,0.1,0,0.2,0,0.2l0,0.2l0.4,0
		l0-0.2c0-0.1,0-0.3-0.1-0.4l0.8-0.4v0.9c-0.1,0-0.3,0.1-0.4,0.2l-0.2,0.1L2,46.9l0.2-0.1c0.1,0,0.1-0.1,0.2-0.1v0.5h0.4v-0.5
		c0.1,0,0.1,0,0.2,0.1l0.2,0.1l0.2-0.3l-0.2-0.1c-0.1-0.1-0.3-0.1-0.4-0.2v-0.9l0.8,0.4c-0.1,0.1-0.1,0.3-0.1,0.4l0,0.2l0.4,0l0-0.2
		c0-0.1,0-0.2,0-0.2l0.5,0.3L4.6,46l-0.5-0.3C4.1,45.7,4.2,45.7,4.3,45.6z"/>
	<path class="st2" d="M4.3,45.6l0.2-0.1l-0.2-0.3l-0.2,0.1c-0.1,0.1-0.2,0.2-0.3,0.3L3,45.1l0.8-0.4c0.1,0.1,0.2,0.2,0.3,0.3L4.3,45
		l0.2-0.3l-0.2-0.1c-0.1,0-0.1-0.1-0.2-0.1l0.5-0.3l-0.2-0.3l-0.5,0.3c0-0.1,0-0.2,0-0.2l0-0.2l-0.4,0l0,0.2c0,0.1,0,0.3,0.1,0.4
		l-0.8,0.4v-0.9c0.1,0,0.3-0.1,0.4-0.2l0.2-0.1l-0.2-0.3L3,43.4c-0.1,0-0.1,0.1-0.2,0.1V43H2.4v0.5c-0.1,0-0.1,0-0.2-0.1L2,43.3
		l-0.2,0.3L2,43.7c0.1,0.1,0.3,0.1,0.4,0.2v0.9l-0.8-0.4c0.1-0.1,0.1-0.3,0.1-0.4l0-0.2l-0.4,0l0,0.2c0,0.1,0,0.2,0,0.2l-0.5-0.3
		l-0.2,0.3l0.5,0.3C1,44.5,1,44.6,0.9,44.6l-0.2,0.1L0.9,45l0.2-0.1c0.1-0.1,0.2-0.2,0.3-0.3l0.8,0.4l-0.8,0.4
		c-0.1-0.1-0.2-0.2-0.3-0.3l-0.2-0.1l-0.2,0.3l0.2,0.1c0.1,0,0.1,0.1,0.2,0.1L0.6,46l0.2,0.3l0.5-0.3c0,0.1,0,0.2,0,0.2l0,0.2l0.4,0
		l0-0.2c0-0.1,0-0.3-0.1-0.4l0.8-0.4v0.9c-0.1,0-0.3,0.1-0.4,0.2l-0.2,0.1L2,46.9l0.2-0.1c0.1,0,0.1-0.1,0.2-0.1v0.5h0.4v-0.5
		c0.1,0,0.1,0,0.2,0.1l0.2,0.1l0.2-0.3l-0.2-0.1c-0.1-0.1-0.3-0.1-0.4-0.2v-0.9l0.8,0.4c-0.1,0.1-0.1,0.3-0.1,0.4l0,0.2l0.4,0l0-0.2
		c0-0.1,0-0.2,0-0.2l0.5,0.3L4.6,46l-0.5-0.3C4.1,45.7,4.2,45.7,4.3,45.6z"/>
</g>
<g>
	<linearGradient id="SVGID_3_" gradientUnits="userSpaceOnUse" x1="-4.7283" y1="45.1112" x2="-0.428" y2="45.1112">
		<stop  offset="0" style="stop-color:#D300FF"/>
		<stop  offset="0.8565" style="stop-color:#42FFFF"/>
	</linearGradient>
	<path class="st3" d="M-0.9,45.6l0.2-0.1l-0.2-0.3l-0.2,0.1c-0.1,0.1-0.2,0.2-0.3,0.3l-0.8-0.4l0.8-0.4c0.1,0.1,0.2,0.2,0.3,0.3
		l0.2,0.1l0.2-0.3l-0.2-0.1c-0.1,0-0.1-0.1-0.2-0.1l0.5-0.3l-0.2-0.3l-0.5,0.3c0-0.1,0-0.2,0-0.2l0-0.2l-0.4,0l0,0.2
		c0,0.1,0,0.3,0.1,0.4l-0.8,0.4v-0.9c0.1,0,0.3-0.1,0.4-0.2l0.2-0.1L-2,43.3l-0.2,0.1c-0.1,0-0.1,0.1-0.2,0.1V43h-0.4v0.5
		c-0.1,0-0.1,0-0.2-0.1l-0.2-0.1l-0.2,0.3l0.2,0.1c0.1,0.1,0.3,0.1,0.4,0.2v0.9l-0.8-0.4c0.1-0.1,0.1-0.3,0.1-0.4l0-0.2l-0.4,0
		l0,0.2c0,0.1,0,0.2,0,0.2l-0.5-0.3l-0.2,0.3l0.5,0.3c-0.1,0.1-0.1,0.1-0.2,0.1l-0.2,0.1l0.2,0.3l0.2-0.1c0.1-0.1,0.2-0.2,0.3-0.3
		l0.8,0.4l-0.8,0.4c-0.1-0.1-0.2-0.2-0.3-0.3l-0.2-0.1l-0.2,0.3l0.2,0.1c0.1,0,0.1,0.1,0.2,0.1L-4.6,46l0.2,0.3l0.5-0.3
		c0,0.1,0,0.2,0,0.2l0,0.2l0.4,0l0-0.2c0-0.1,0-0.3-0.1-0.4l0.8-0.4v0.9c-0.1,0-0.3,0.1-0.4,0.2l-0.2,0.1l0.2,0.3l0.2-0.1
		c0.1,0,0.1-0.1,0.2-0.1v0.5h0.4v-0.5c0.1,0,0.1,0,0.2,0.1l0.2,0.1l0.2-0.3L-2,46.5c-0.1-0.1-0.3-0.1-0.4-0.2v-0.9l0.8,0.4
		c-0.1,0.1-0.1,0.3-0.1,0.4l0,0.2l0.4,0l0-0.2c0-0.1,0-0.2,0-0.2l0.5,0.3l0.2-0.3l-0.5-0.3C-1,45.7-1,45.7-0.9,45.6z"/>
	<path class="st2" d="M-0.9,45.6l0.2-0.1l-0.2-0.3l-0.2,0.1c-0.1,0.1-0.2,0.2-0.3,0.3l-0.8-0.4l0.8-0.4c0.1,0.1,0.2,0.2,0.3,0.3
		l0.2,0.1l0.2-0.3l-0.2-0.1c-0.1,0-0.1-0.1-0.2-0.1l0.5-0.3l-0.2-0.3l-0.5,0.3c0-0.1,0-0.2,0-0.2l0-0.2l-0.4,0l0,0.2
		c0,0.1,0,0.3,0.1,0.4l-0.8,0.4v-0.9c0.1,0,0.3-0.1,0.4-0.2l0.2-0.1L-2,43.3l-0.2,0.1c-0.1,0-0.1,0.1-0.2,0.1V43h-0.4v0.5
		c-0.1,0-0.1,0-0.2-0.1l-0.2-0.1l-0.2,0.3l0.2,0.1c0.1,0.1,0.3,0.1,0.4,0.2v0.9l-0.8-0.4c0.1-0.1,0.1-0.3,0.1-0.4l0-0.2l-0.4,0
		l0,0.2c0,0.1,0,0.2,0,0.2l-0.5-0.3l-0.2,0.3l0.5,0.3c-0.1,0.1-0.1,0.1-0.2,0.1l-0.2,0.1l0.2,0.3l0.2-0.1c0.1-0.1,0.2-0.2,0.3-0.3
		l0.8,0.4l-0.8,0.4c-0.1-0.1-0.2-0.2-0.3-0.3l-0.2-0.1l-0.2,0.3l0.2,0.1c0.1,0,0.1,0.1,0.2,0.1L-4.6,46l0.2,0.3l0.5-0.3
		c0,0.1,0,0.2,0,0.2l0,0.2l0.4,0l0-0.2c0-0.1,0-0.3-0.1-0.4l0.8-0.4v0.9c-0.1,0-0.3,0.1-0.4,0.2l-0.2,0.1l0.2,0.3l0.2-0.1
		c0.1,0,0.1-0.1,0.2-0.1v0.5h0.4v-0.5c0.1,0,0.1,0,0.2,0.1l0.2,0.1l0.2-0.3L-2,46.5c-0.1-0.1-0.3-0.1-0.4-0.2v-0.9l0.8,0.4
		c-0.1,0.1-0.1,0.3-0.1,0.4l0,0.2l0.4,0l0-0.2c0-0.1,0-0.2,0-0.2l0.5,0.3l0.2-0.3l-0.5-0.3C-1,45.7-1,45.7-0.9,45.6z"/>
</g>
<linearGradient id="SVGID_4_" gradientUnits="userSpaceOnUse" x1="-6.0039" y1="24.7143" x2="-14.0248" y2="18.8876" gradientTransform="matrix(1.0578 -0.174 0.1623 0.9867 -4.4013 -0.2672)">
	<stop  offset="0" style="stop-color:#D300FF"/>
	<stop  offset="0.8565" style="stop-color:#42FFFF"/>
</linearGradient>
<path class="st4" d="M-11.4,23.7c-0.3-2.1,0.9-4.1,2.8-4.9c-0.7-0.1-1.4-0.1-2.1,0.1c-2.7,0.6-4.5,3.1-4.2,5.7
	c0.4,2.8,3.2,4.7,6.1,4.2c1.1-0.2,2-0.6,2.8-1.3C-8.6,27.8-11,26.2-11.4,23.7z"/>
</svg>
