<?xml version="1.0" encoding="utf-8"?>
<!-- Generator: Adobe Illustrator 19.0.0, SVG Export Plug-In . SVG Version: 6.00 Build 0)  -->
<svg version="1.1" id="Capa_1" xmlns="http://www.w3.org/2000/svg" xmlns:xlink="http://www.w3.org/1999/xlink" x="0px" y="0px"
	 viewBox="-17 17 32 32" style="enable-background:new -17 17 32 32;" xml:space="preserve">
<style type="text/css">
	.st0{fill:#193372;stroke:url(#SVGID_1_);stroke-width:0.5;stroke-miterlimit:10;}
	.st1{fill:#193372;stroke:url(#SVGID_2_);stroke-width:0.5;stroke-miterlimit:10;}
	.st2{fill:#193372;stroke:url(#SVGID_3_);stroke-width:0.5;stroke-miterlimit:10;}
	.st3{fill:none;stroke:url(#SVGID_4_);stroke-width:0.25;stroke-miterlimit:10;}
	.st4{fill:#193372;}
	.st5{fill:none;stroke:url(#SVGID_5_);stroke-width:0.25;stroke-miterlimit:10;}
	.st6{fill:url(#SVGID_6_);}
</style>
<g>
	
		<linearGradient id="SVGID_1_" gradientUnits="userSpaceOnUse" x1="9.5302" y1="44.5857" x2="-6.7205" y2="28.0619" gradientTransform="matrix(0.9997 -2.626982e-002 2.626982e-002 0.9997 -0.9263 1.037041e-002)">
		<stop  offset="0" style="stop-color:#D300FF"/>
		<stop  offset="0.8565" style="stop-color:#42FFFF"/>
	</linearGradient>
	<path class="st0" d="M14.4,37.6c0.1-2.4-1.8-4.5-4.3-4.5c-0.1,0-0.2,0-0.4,0c0.5-0.9,0.7-1.8,0.8-2.9c0.1-3.6-2.7-6.6-6.3-6.7
		c-3.2-0.1-5.9,2.1-6.5,5.1C-6.8,27-10,31-9.6,34c-2.3-0.2-3.8,1.6-3.9,3.6c-0.1,1.8,1,3.4,2.5,4.1l0,0l0,0c0.5,0.2,1.1,0.4,1.7,0.4
		l20.4-0.5C12.9,41.2,14.3,39.6,14.4,37.6z"/>
</g>
<g>
	<linearGradient id="SVGID_2_" gradientUnits="userSpaceOnUse" x1="-11.5225" y1="45.3636" x2="-7.3795" y2="45.3636">
		<stop  offset="0" style="stop-color:#D300FF"/>
		<stop  offset="0.8565" style="stop-color:#42FFFF"/>
	</linearGradient>
	<polygon class="st1" points="-9.3,47 -11.1,47 -9.6,43.7 -7.8,43.7 	"/>
	<linearGradient id="SVGID_3_" gradientUnits="userSpaceOnUse" x1="-4.864" y1="45.3636" x2="-0.721" y2="45.3636">
		<stop  offset="0" style="stop-color:#D300FF"/>
		<stop  offset="0.8565" style="stop-color:#42FFFF"/>
	</linearGradient>
	<polygon class="st2" points="-2.6,47 -4.5,47 -2.9,43.7 -1.1,43.7 	"/>
	<g>
		<linearGradient id="SVGID_4_" gradientUnits="userSpaceOnUse" x1="0.7388" y1="45.3636" x2="5.0391" y2="45.3636">
			<stop  offset="0" style="stop-color:#D300FF"/>
			<stop  offset="0.8565" style="stop-color:#42FFFF"/>
		</linearGradient>
		<path class="st3" d="M4.6,45.9l0.2-0.1l-0.2-0.3l-0.2,0.1c-0.1,0.1-0.2,0.2-0.3,0.3l-0.8-0.4l0.8-0.4c0.1,0.1,0.2,0.2,0.3,0.3
			l0.2,0.1L4.8,45l-0.2-0.1c-0.1,0-0.1-0.1-0.2-0.1l0.5-0.3l-0.2-0.3l-0.5,0.3c0-0.1,0-0.2,0-0.2l0-0.2l-0.4,0l0,0.2
			c0,0.1,0,0.3,0.1,0.4L3.1,45v-0.9c0.1,0,0.3-0.1,0.4-0.2l0.2-0.1l-0.2-0.3l-0.2,0.1c-0.1,0-0.1,0.1-0.2,0.1v-0.5H2.7v0.5
			c-0.1,0-0.1,0-0.2-0.1l-0.2-0.1l-0.2,0.3L2.3,44c0.1,0.1,0.3,0.1,0.4,0.2V45l-0.8-0.4C2,44.4,2,44.3,2,44.1l0-0.2l-0.4,0l0,0.2
			c0,0.1,0,0.2,0,0.2l-0.5-0.3l-0.2,0.3l0.5,0.3c-0.1,0.1-0.1,0.1-0.2,0.1L1,45l0.2,0.3l0.2-0.1c0.1-0.1,0.2-0.2,0.3-0.3l0.8,0.4
			l-0.8,0.4c-0.1-0.1-0.2-0.2-0.3-0.3l-0.2-0.1L1,45.8l0.2,0.1c0.1,0,0.1,0.1,0.2,0.1l-0.5,0.3l0.2,0.3l0.5-0.3c0,0.1,0,0.2,0,0.2
			l0,0.2l0.4,0l0-0.2c0-0.1,0-0.3-0.1-0.4l0.8-0.4v0.9c-0.1,0-0.3,0.1-0.4,0.2l-0.2,0.1l0.2,0.3l0.2-0.1C2.5,47,2.6,47,2.7,47v0.5
			h0.4V47c0.1,0,0.1,0,0.2,0.1l0.2,0.1l0.2-0.3l-0.2-0.1c-0.1-0.1-0.3-0.1-0.4-0.2v-0.9l0.8,0.4c-0.1,0.1-0.1,0.3-0.1,0.4l0,0.2
			l0.4,0l0-0.2c0-0.1,0-0.2,0-0.2l0.5,0.3l0.2-0.3L4.4,46C4.5,46,4.5,45.9,4.6,45.9z"/>
		<path class="st4" d="M4.6,45.9l0.2-0.1l-0.2-0.3l-0.2,0.1c-0.1,0.1-0.2,0.2-0.3,0.3l-0.8-0.4l0.8-0.4c0.1,0.1,0.2,0.2,0.3,0.3
			l0.2,0.1L4.8,45l-0.2-0.1c-0.1,0-0.1-0.1-0.2-0.1l0.5-0.3l-0.2-0.3l-0.5,0.3c0-0.1,0-0.2,0-0.2l0-0.2l-0.4,0l0,0.2
			c0,0.1,0,0.3,0.1,0.4L3.1,45v-0.9c0.1,0,0.3-0.1,0.4-0.2l0.2-0.1l-0.2-0.3l-0.2,0.1c-0.1,0-0.1,0.1-0.2,0.1v-0.5H2.7v0.5
			c-0.1,0-0.1,0-0.2-0.1l-0.2-0.1l-0.2,0.3L2.3,44c0.1,0.1,0.3,0.1,0.4,0.2V45l-0.8-0.4C2,44.4,2,44.3,2,44.1l0-0.2l-0.4,0l0,0.2
			c0,0.1,0,0.2,0,0.2l-0.5-0.3l-0.2,0.3l0.5,0.3c-0.1,0.1-0.1,0.1-0.2,0.1L1,45l0.2,0.3l0.2-0.1c0.1-0.1,0.2-0.2,0.3-0.3l0.8,0.4
			l-0.8,0.4c-0.1-0.1-0.2-0.2-0.3-0.3l-0.2-0.1L1,45.8l0.2,0.1c0.1,0,0.1,0.1,0.2,0.1l-0.5,0.3l0.2,0.3l0.5-0.3c0,0.1,0,0.2,0,0.2
			l0,0.2l0.4,0l0-0.2c0-0.1,0-0.3-0.1-0.4l0.8-0.4v0.9c-0.1,0-0.3,0.1-0.4,0.2l-0.2,0.1l0.2,0.3l0.2-0.1C2.5,47,2.6,47,2.7,47v0.5
			h0.4V47c0.1,0,0.1,0,0.2,0.1l0.2,0.1l0.2-0.3l-0.2-0.1c-0.1-0.1-0.3-0.1-0.4-0.2v-0.9l0.8,0.4c-0.1,0.1-0.1,0.3-0.1,0.4l0,0.2
			l0.4,0l0-0.2c0-0.1,0-0.2,0-0.2l0.5,0.3l0.2-0.3L4.4,46C4.5,46,4.5,45.9,4.6,45.9z"/>
	</g>
	<g>
		<linearGradient id="SVGID_5_" gradientUnits="userSpaceOnUse" x1="6.5721" y1="45.3636" x2="10.8724" y2="45.3636">
			<stop  offset="0" style="stop-color:#D300FF"/>
			<stop  offset="0.8565" style="stop-color:#42FFFF"/>
		</linearGradient>
		<path class="st5" d="M10.4,45.9l0.2-0.1l-0.2-0.3l-0.2,0.1c-0.1,0.1-0.2,0.2-0.3,0.3l-0.8-0.4l0.8-0.4c0.1,0.1,0.2,0.2,0.3,0.3
			l0.2,0.1l0.2-0.3l-0.2-0.1c-0.1,0-0.1-0.1-0.2-0.1l0.5-0.3l-0.2-0.3L10,44.4c0-0.1,0-0.2,0-0.2l0-0.2l-0.4,0l0,0.2
			c0,0.1,0,0.3,0.1,0.4L8.9,45v-0.9c0.1,0,0.3-0.1,0.4-0.2l0.2-0.1l-0.2-0.3l-0.2,0.1c-0.1,0-0.1,0.1-0.2,0.1v-0.5H8.5v0.5
			c-0.1,0-0.1,0-0.2-0.1l-0.2-0.1l-0.2,0.3L8.1,44c0.1,0.1,0.3,0.1,0.4,0.2V45l-0.8-0.4c0.1-0.1,0.1-0.3,0.1-0.4l0-0.2l-0.4,0l0,0.2
			c0,0.1,0,0.2,0,0.2l-0.5-0.3l-0.2,0.3l0.5,0.3c-0.1,0.1-0.1,0.1-0.2,0.1L6.9,45L7,45.3l0.2-0.1c0.1-0.1,0.2-0.2,0.3-0.3l0.8,0.4
			l-0.8,0.4c-0.1-0.1-0.2-0.2-0.3-0.3L7,45.4l-0.2,0.3L7,45.9c0.1,0,0.1,0.1,0.2,0.1l-0.5,0.3l0.2,0.3l0.5-0.3c0,0.1,0,0.2,0,0.2
			l0,0.2l0.4,0l0-0.2c0-0.1,0-0.3-0.1-0.4l0.8-0.4v0.9c-0.1,0-0.3,0.1-0.4,0.2l-0.2,0.1l0.2,0.3l0.2-0.1C8.4,47,8.5,47,8.5,47v0.5
			h0.4V47c0.1,0,0.1,0,0.2,0.1l0.2,0.1l0.2-0.3l-0.2-0.1c-0.1-0.1-0.3-0.1-0.4-0.2v-0.9l0.8,0.4c-0.1,0.1-0.1,0.3-0.1,0.4l0,0.2
			l0.4,0l0-0.2c0-0.1,0-0.2,0-0.2l0.5,0.3l0.2-0.3L10.2,46C10.3,46,10.3,45.9,10.4,45.9z"/>
		<path class="st4" d="M10.4,45.9l0.2-0.1l-0.2-0.3l-0.2,0.1c-0.1,0.1-0.2,0.2-0.3,0.3l-0.8-0.4l0.8-0.4c0.1,0.1,0.2,0.2,0.3,0.3
			l0.2,0.1l0.2-0.3l-0.2-0.1c-0.1,0-0.1-0.1-0.2-0.1l0.5-0.3l-0.2-0.3L10,44.4c0-0.1,0-0.2,0-0.2l0-0.2l-0.4,0l0,0.2
			c0,0.1,0,0.3,0.1,0.4L8.9,45v-0.9c0.1,0,0.3-0.1,0.4-0.2l0.2-0.1l-0.2-0.3l-0.2,0.1c-0.1,0-0.1,0.1-0.2,0.1v-0.5H8.5v0.5
			c-0.1,0-0.1,0-0.2-0.1l-0.2-0.1l-0.2,0.3L8.1,44c0.1,0.1,0.3,0.1,0.4,0.2V45l-0.8-0.4c0.1-0.1,0.1-0.3,0.1-0.4l0-0.2l-0.4,0l0,0.2
			c0,0.1,0,0.2,0,0.2l-0.5-0.3l-0.2,0.3l0.5,0.3c-0.1,0.1-0.1,0.1-0.2,0.1L6.9,45L7,45.3l0.2-0.1c0.1-0.1,0.2-0.2,0.3-0.3l0.8,0.4
			l-0.8,0.4c-0.1-0.1-0.2-0.2-0.3-0.3L7,45.4l-0.2,0.3L7,45.9c0.1,0,0.1,0.1,0.2,0.1l-0.5,0.3l0.2,0.3l0.5-0.3c0,0.1,0,0.2,0,0.2
			l0,0.2l0.4,0l0-0.2c0-0.1,0-0.3-0.1-0.4l0.8-0.4v0.9c-0.1,0-0.3,0.1-0.4,0.2l-0.2,0.1l0.2,0.3l0.2-0.1C8.4,47,8.5,47,8.5,47v0.5
			h0.4V47c0.1,0,0.1,0,0.2,0.1l0.2,0.1l0.2-0.3l-0.2-0.1c-0.1-0.1-0.3-0.1-0.4-0.2v-0.9l0.8,0.4c-0.1,0.1-0.1,0.3-0.1,0.4l0,0.2
			l0.4,0l0-0.2c0-0.1,0-0.2,0-0.2l0.5,0.3l0.2-0.3L10.2,46C10.3,46,10.3,45.9,10.4,45.9z"/>
	</g>
</g>
<linearGradient id="SVGID_6_" gradientUnits="userSpaceOnUse" x1="-5.8127" y1="24.4947" x2="-13.8335" y2="18.668" gradientTransform="matrix(1.0578 -0.174 0.1623 0.9867 -4.4013 -0.2672)">
	<stop  offset="0" style="stop-color:#D300FF"/>
	<stop  offset="0.8565" style="stop-color:#42FFFF"/>
</linearGradient>
<path class="st6" d="M-11.3,23.4c-0.3-2.1,0.9-4.1,2.8-4.9c-0.7-0.1-1.4-0.1-2.1,0.1c-2.7,0.6-4.5,3.1-4.2,5.7
	c0.4,2.8,3.2,4.7,6.1,4.2c1.1-0.2,2-0.6,2.8-1.3C-8.4,27.5-10.9,25.9-11.3,23.4z"/>
</svg>
