<?xml version="1.0" encoding="utf-8"?>
<!-- Generator: Adobe Illustrator 19.0.0, SVG Export Plug-In . SVG Version: 6.00 Build 0)  -->
<svg version="1.1" id="Capa_1" xmlns="http://www.w3.org/2000/svg" xmlns:xlink="http://www.w3.org/1999/xlink" x="0px" y="0px"
	 viewBox="-15 17 32 32" style="enable-background:new -15 17 32 32;" xml:space="preserve">
<style type="text/css">
	.st0{fill:#69B0B7;stroke:url(#SVGID_1_);stroke-width:0.5;stroke-miterlimit:10;}
	.st1{fill:#193372;stroke:url(#SVGID_2_);stroke-width:0.25;stroke-miterlimit:10;}
	.st2{fill:#193372;stroke:url(#SVGID_3_);stroke-width:0.25;stroke-miterlimit:10;}
	.st3{fill:#478E91;stroke:url(#SVGID_4_);stroke-width:0.25;stroke-miterlimit:10;}
</style>
<g>
	<g>
		
			<linearGradient id="SVGID_1_" gradientUnits="userSpaceOnUse" x1="10.1739" y1="39.7911" x2="-6.0767" y2="23.2673" gradientTransform="matrix(0.9997 -2.626982e-002 2.626982e-002 0.9997 -0.9443 2.4342)">
			<stop  offset="0" style="stop-color:#D300FF"/>
			<stop  offset="0.8565" style="stop-color:#42FFFF"/>
		</linearGradient>
		<path class="st0" d="M15,35.3c0.1-2.4-1.8-4.5-4.3-4.5c-0.1,0-0.2,0-0.4,0c0.5-0.9,0.7-1.8,0.8-2.9c0.1-3.6-2.7-6.6-6.3-6.7
			c-3.2-0.1-5.9,2.1-6.5,5.1c-4.5-1.6-7.7,2.4-7.3,5.5c-2.3-0.2-3.8,1.6-3.9,3.6c-0.1,1.8,1,3.4,2.5,4.1l0,0l0,0
			c0.5,0.2,1.1,0.4,1.7,0.4l20.4-0.5C13.5,38.9,14.9,37.3,15,35.3z"/>
	</g>
	
		<linearGradient id="SVGID_2_" gradientUnits="userSpaceOnUse" x1="-5.4663" y1="38.2016" x2="12.6798" y2="38.2016" gradientTransform="matrix(1 0 0 1 0 4)">
		<stop  offset="0.1435" style="stop-color:#42FFFF"/>
		<stop  offset="1" style="stop-color:#D300FF"/>
	</linearGradient>
	<path class="st1" d="M12,42.8c0.3,0,0.6-0.3,0.6-0.6s-0.3-0.6-0.6-0.6H-4.5l-0.6,1.3H12V42.8z"/>
	
		<linearGradient id="SVGID_3_" gradientUnits="userSpaceOnUse" x1="-6.3928" y1="40.0016" x2="12.6908" y2="40.0016" gradientTransform="matrix(1 0 0 1 0 4)">
		<stop  offset="0.1435" style="stop-color:#42FFFF"/>
		<stop  offset="1" style="stop-color:#D300FF"/>
	</linearGradient>
	<path class="st2" d="M12,43.4H-5.5l-0.6,1.3H12c0.3,0,0.6-0.3,0.6-0.6S12.4,43.4,12,43.4z"/>
	
		<linearGradient id="SVGID_4_" gradientUnits="userSpaceOnUse" x1="-9.0705" y1="39.2868" x2="-5.291" y2="39.2868" gradientTransform="matrix(1 0 0 1 0 4)">
		<stop  offset="0" style="stop-color:#D300FF"/>
		<stop  offset="0.8565" style="stop-color:#42FFFF"/>
	</linearGradient>
	<polygon class="st3" points="-6,42.8 -5.4,41.5 -8.5,41.5 -8.8,41.5 -8.7,41.6 -8.1,42.8 -7.8,43.4 -7.2,44.6 -7.1,44.9 -7,44.6 
		-6.3,43.4 	"/>
</g>
</svg>
