<?xml version="1.0" encoding="utf-8"?>
<!-- Generator: Adobe Illustrator 19.0.0, SVG Export Plug-In . SVG Version: 6.00 Build 0)  -->
<svg version="1.1" id="Capa_1" xmlns="http://www.w3.org/2000/svg" xmlns:xlink="http://www.w3.org/1999/xlink" x="0px" y="0px"
	 viewBox="-15 17 32 32" style="enable-background:new -15 17 32 32;" xml:space="preserve">
<style type="text/css">
	.st0{fill:#3F5889;stroke:url(#SVGID_1_);stroke-width:0.5;stroke-miterlimit:10;}
	.st1{fill:#193372;stroke:url(#SVGID_2_);stroke-width:0.5;stroke-miterlimit:10;}
	.st2{fill:#193372;stroke:url(#SVGID_3_);stroke-width:0.5;stroke-miterlimit:10;}
	.st3{fill:#193372;stroke:url(#SVGID_4_);stroke-width:0.5;stroke-miterlimit:10;}
	.st4{fill:#193372;stroke:url(#SVGID_5_);stroke-width:0.5;stroke-miterlimit:10;}
	.st5{fill:#193372;stroke:url(#SVGID_6_);stroke-width:0.5;stroke-miterlimit:10;}
	.st6{fill:#193372;stroke:url(#SVGID_7_);stroke-width:0.5;stroke-miterlimit:10;}
	.st7{fill:url(#SVGID_8_);}
</style>
<g>
	<g>
		
			<linearGradient id="SVGID_1_" gradientUnits="userSpaceOnUse" x1="11.1501" y1="24.9168" x2="-5.1062" y2="41.4463" gradientTransform="matrix(0.9997 -2.626982e-002 -2.626982e-002 -0.9997 0.7805 69.6263)">
			<stop  offset="0" style="stop-color:#D300FF"/>
			<stop  offset="0.8565" style="stop-color:#42FFFF"/>
		</linearGradient>
		<path class="st0" d="M15.9,37.7c0.1-2.4-1.8-4.5-4.3-4.5c-0.1,0-0.2,0-0.4,0c0.5-0.9,0.7-1.8,0.8-2.9c0.1-3.6-2.7-6.6-6.3-6.7
			c-3.1-0.1-5.8,2.1-6.5,5.1c-4.5-1.6-7.7,2.4-7.3,5.5c-2.3-0.2-3.8,1.6-3.9,3.6c-0.1,1.8,1,3.4,2.5,4.1l0,0l0,0
			c0.5,0.3,1.1,0.5,1.7,0.5l20.4-0.5C14.4,41.4,15.8,39.7,15.9,37.7z"/>
	</g>
	
		<linearGradient id="SVGID_2_" gradientUnits="userSpaceOnUse" x1="-1.7159" y1="26.4972" x2="2.4271" y2="26.4972" gradientTransform="matrix(1 0 0 -1 0 72)">
		<stop  offset="0" style="stop-color:#D300FF"/>
		<stop  offset="0.8565" style="stop-color:#42FFFF"/>
	</linearGradient>
	<polygon class="st1" points="0.5,47.2 -1.3,47.2 0.2,43.9 2.1,43.9 	"/>
	
		<linearGradient id="SVGID_3_" gradientUnits="userSpaceOnUse" x1="1.8915" y1="26.4972" x2="6.0345" y2="26.4972" gradientTransform="matrix(1 0 0 -1 0 72)">
		<stop  offset="0" style="stop-color:#D300FF"/>
		<stop  offset="0.8565" style="stop-color:#42FFFF"/>
	</linearGradient>
	<polygon class="st2" points="4.2,47.2 2.3,47.2 3.8,43.9 5.7,43.9 	"/>
	
		<linearGradient id="SVGID_4_" gradientUnits="userSpaceOnUse" x1="-8.9159" y1="26.4972" x2="-4.7729" y2="26.4972" gradientTransform="matrix(1 0 0 -1 0 72)">
		<stop  offset="0" style="stop-color:#D300FF"/>
		<stop  offset="0.8565" style="stop-color:#42FFFF"/>
	</linearGradient>
	<polygon class="st3" points="-6.7,47.2 -8.5,47.2 -7,43.9 -5.1,43.9 	"/>
	
		<linearGradient id="SVGID_5_" gradientUnits="userSpaceOnUse" x1="-5.3085" y1="26.4972" x2="-1.1655" y2="26.4972" gradientTransform="matrix(1 0 0 -1 0 72)">
		<stop  offset="0" style="stop-color:#D300FF"/>
		<stop  offset="0.8565" style="stop-color:#42FFFF"/>
	</linearGradient>
	<polygon class="st4" points="-3,47.2 -4.9,47.2 -3.4,43.9 -1.5,43.9 	"/>
	
		<linearGradient id="SVGID_6_" gradientUnits="userSpaceOnUse" x1="5.676" y1="26.4972" x2="9.819" y2="26.4972" gradientTransform="matrix(1 0 0 -1 0 72)">
		<stop  offset="0" style="stop-color:#D300FF"/>
		<stop  offset="0.8565" style="stop-color:#42FFFF"/>
	</linearGradient>
	<polygon class="st5" points="7.9,47.2 6.1,47.2 7.6,43.9 9.5,43.9 	"/>
	
		<linearGradient id="SVGID_7_" gradientUnits="userSpaceOnUse" x1="9.2841" y1="26.4972" x2="13.4271" y2="26.4972" gradientTransform="matrix(1 0 0 -1 0 72)">
		<stop  offset="0" style="stop-color:#D300FF"/>
		<stop  offset="0.8565" style="stop-color:#42FFFF"/>
	</linearGradient>
	<polygon class="st6" points="11.6,47.2 9.7,47.2 11.2,43.9 13.1,43.9 	"/>
	
		<linearGradient id="SVGID_8_" gradientUnits="userSpaceOnUse" x1="-4.9187" y1="24.6824" x2="-12.9396" y2="18.8557" gradientTransform="matrix(1.0578 -0.174 0.1623 0.9867 -4.5169 8.078986e-002)">
		<stop  offset="0" style="stop-color:#D300FF"/>
		<stop  offset="0.8565" style="stop-color:#42FFFF"/>
	</linearGradient>
	<path class="st7" d="M-10.4,23.8c-0.3-2.1,0.9-4.1,2.8-4.9C-8.2,18.8-9,18.8-9.7,19c-2.7,0.6-4.5,3.1-4.2,5.7
		c0.4,2.8,3.2,4.7,6.1,4.2c1.1-0.2,2-0.6,2.8-1.3C-7.6,27.9-10,26.3-10.4,23.8z"/>
</g>
</svg>
