<?xml version="1.0" encoding="utf-8"?>
<!-- Generator: Adobe Illustrator 19.0.0, SVG Export Plug-In . SVG Version: 6.00 Build 0)  -->
<svg version="1.1" id="Capa_1" xmlns="http://www.w3.org/2000/svg" xmlns:xlink="http://www.w3.org/1999/xlink" x="0px" y="0px"
	 viewBox="-15 17 32 32" style="enable-background:new -15 17 32 32;" xml:space="preserve">
<style type="text/css">
	.st0{fill:#3F5889;stroke:url(#SVGID_1_);stroke-width:0.5;stroke-miterlimit:10;}
	.st1{fill:#193372;stroke:url(#SVGID_2_);stroke-width:0.5;stroke-miterlimit:10;}
	.st2{fill:#193372;stroke:url(#SVGID_3_);stroke-width:0.5;stroke-miterlimit:10;}
	.st3{fill:#193372;stroke:url(#SVGID_4_);stroke-width:0.5;stroke-miterlimit:10;}
	.st4{fill:#193372;stroke:url(#SVGID_5_);stroke-width:0.5;stroke-miterlimit:10;}
	.st5{fill:#193372;stroke:url(#SVGID_6_);stroke-width:0.5;stroke-miterlimit:10;}
</style>
<g>
	<g>
		
			<linearGradient id="SVGID_1_" gradientUnits="userSpaceOnUse" x1="10.2667" y1="28.445" x2="-5.984" y2="44.9688" gradientTransform="matrix(0.9997 -2.626982e-002 -2.626982e-002 -0.9997 0.7805 69.6263)">
			<stop  offset="0" style="stop-color:#D300FF"/>
			<stop  offset="0.8565" style="stop-color:#42FFFF"/>
		</linearGradient>
		<path class="st0" d="M15,34.2c0.1-2.4-1.8-4.5-4.3-4.5c-0.1,0-0.2,0-0.4,0c0.5-0.9,0.7-1.8,0.8-2.9c0.1-3.6-2.7-6.6-6.3-6.7
			C1.7,20-1,22.2-1.7,25.2c-4.5-1.6-7.7,2.4-7.3,5.5c-2.3-0.2-3.8,1.6-3.9,3.6c-0.1,1.8,1,3.4,2.5,4.1l0,0l0,0
			c0.5,0.2,1.1,0.4,1.7,0.4l20.4-0.5C13.5,37.8,14.9,36.2,15,34.2z"/>
	</g>
	
		<linearGradient id="SVGID_2_" gradientUnits="userSpaceOnUse" x1="-3.6341" y1="28.8984" x2="1.4419" y2="28.8984" gradientTransform="matrix(1 0 0 -1 0 72)">
		<stop  offset="0" style="stop-color:#D300FF"/>
		<stop  offset="0.8565" style="stop-color:#42FFFF"/>
	</linearGradient>
	<polygon class="st1" points="-1.4,45.9 -3.2,45.9 -0.7,40.3 1.2,40.3 	"/>
	
		<linearGradient id="SVGID_3_" gradientUnits="userSpaceOnUse" x1="-2.732774e-002" y1="28.8984" x2="5.0556" y2="28.8984" gradientTransform="matrix(1 0 0 -1 0 72)">
		<stop  offset="0" style="stop-color:#D300FF"/>
		<stop  offset="0.8565" style="stop-color:#42FFFF"/>
	</linearGradient>
	<polygon class="st2" points="2.3,45.9 0.4,45.9 2.9,40.3 4.8,40.3 	"/>
	
		<linearGradient id="SVGID_4_" gradientUnits="userSpaceOnUse" x1="3.7551" y1="28.8984" x2="8.8311" y2="28.8984" gradientTransform="matrix(1 0 0 -1 0 72)">
		<stop  offset="0" style="stop-color:#D300FF"/>
		<stop  offset="0.8565" style="stop-color:#42FFFF"/>
	</linearGradient>
	<polygon class="st3" points="6,45.9 4.2,45.9 6.6,40.3 8.5,40.3 	"/>
	
		<linearGradient id="SVGID_5_" gradientUnits="userSpaceOnUse" x1="7.3665" y1="28.8984" x2="12.4493" y2="28.8984" gradientTransform="matrix(1 0 0 -1 0 72)">
		<stop  offset="0" style="stop-color:#D300FF"/>
		<stop  offset="0.8565" style="stop-color:#42FFFF"/>
	</linearGradient>
	<polygon class="st4" points="9.7,45.9 7.8,45.9 10.2,40.3 12.1,40.3 	"/>
	
		<linearGradient id="SVGID_6_" gradientUnits="userSpaceOnUse" x1="-3.6751" y1="23.9997" x2="-8.5444" y2="28.6974" gradientTransform="matrix(1 0 0 -1 0 68)">
		<stop  offset="0" style="stop-color:#D300FF"/>
		<stop  offset="0.8565" style="stop-color:#42FFFF"/>
	</linearGradient>
	<polygon class="st5" points="-6,45.9 -8.8,40.3 -3.2,40.3 	"/>
</g>
</svg>
