<?xml version="1.0" encoding="utf-8"?>
<!-- Generator: Adobe Illustrator 19.0.0, SVG Export Plug-In . SVG Version: 6.00 Build 0)  -->
<svg version="1.1" id="Capa_1" xmlns="http://www.w3.org/2000/svg" xmlns:xlink="http://www.w3.org/1999/xlink" x="0px" y="0px"
	 viewBox="-15 17 32 32" style="enable-background:new -15 17 32 32;" xml:space="preserve">
<style type="text/css">
	.st0{fill:#3F5889;stroke:url(#SVGID_1_);stroke-width:0.5;stroke-miterlimit:10;}
	.st1{fill:none;stroke:url(#SVGID_2_);stroke-width:0.25;stroke-miterlimit:10;}
	.st2{fill:#193372;}
	.st3{fill:none;stroke:url(#SVGID_3_);stroke-width:0.25;stroke-miterlimit:10;}
	.st4{fill:url(#SVGID_4_);}
</style>
<g>
	<g>
		
			<linearGradient id="SVGID_1_" gradientUnits="userSpaceOnUse" x1="11.1484" y1="42.2774" x2="-5.1022" y2="25.7537" gradientTransform="matrix(0.9997 -2.626982e-002 2.626982e-002 0.9997 -0.9443 2.4342)">
			<stop  offset="0" style="stop-color:#D300FF"/>
			<stop  offset="0.8565" style="stop-color:#42FFFF"/>
		</linearGradient>
		<path class="st0" d="M15.9,37.7c0.1-2.4-1.8-4.5-4.3-4.5c-0.1,0-0.2,0-0.4,0c0.5-0.9,0.7-1.8,0.8-2.9c0.1-3.6-2.7-6.6-6.3-6.7
			c-3.2-0.1-5.9,2.1-6.5,5.1c-4.5-1.6-7.7,2.4-7.3,5.5c-2.3-0.2-3.8,1.6-3.9,3.6c-0.1,1.8,1,3.4,2.5,4.1l0,0l0,0
			c0.5,0.2,1.1,0.4,1.7,0.4l20.4-0.5C14.4,41.2,15.8,39.7,15.9,37.7z"/>
	</g>
	<g>
		
			<linearGradient id="SVGID_2_" gradientUnits="userSpaceOnUse" x1="-2.7783" y1="41.2641" x2="1.522" y2="41.2641" gradientTransform="matrix(1 0 0 1 0 4)">
			<stop  offset="0" style="stop-color:#D300FF"/>
			<stop  offset="0.8565" style="stop-color:#42FFFF"/>
		</linearGradient>
		<path class="st1" d="M1.1,45.8l0.2-0.1l-0.2-0.3l-0.2,0.1c-0.1,0.1-0.2,0.2-0.3,0.3l-0.8-0.5l0.8-0.4c0.1,0.1,0.2,0.2,0.3,0.3h0.2
			l0.2-0.3l-0.2-0.1c-0.1,0-0.1-0.1-0.2-0.1l0.5-0.3l-0.2-0.2l-0.5,0.3c0-0.1,0-0.2,0-0.2v-0.2H0.3v0.2c0,0.1,0,0.3,0.1,0.4
			l-0.8,0.4v-0.9c0.1,0,0.3-0.1,0.4-0.2l0.2-0.1L0,43.6l-0.2,0.1c-0.1,0-0.1,0.1-0.2,0.1v-0.6h-0.4v0.5c-0.1,0-0.1,0-0.2-0.1
			l-0.2-0.1l-0.2,0.3l0.2,0.1c0.1,0.1,0.3,0.1,0.4,0.2V45l-0.8-0.4c0.1,0,0.1-0.2,0.1-0.4V44h-0.4v0.2c0,0.1,0,0.2,0,0.2l-0.5-0.2
			l-0.2,0.3l0.5,0.3c-0.1,0-0.1,0.1-0.2,0.1l-0.2,0l0.2,0.3l0.2-0.1c0.1-0.1,0.2-0.2,0.3-0.3l0.8,0.4l-0.8,0.4
			c-0.1-0.1-0.2-0.2-0.3-0.3l-0.2-0.1l-0.2,0.4l0.2,0.1c0.1,0,0.1,0.1,0.2,0.1l-0.5,0.4l0.2,0.3l0.5-0.3c0,0.1,0,0.2,0,0.2v0.2h0.4
			v-0.2c0-0.1,0-0.3-0.1-0.4l0.8-0.4v0.9c-0.1,0-0.3,0.1-0.4,0.2l-0.2,0.1l0.2,0.3L-1,47c0.1,0,0.1-0.1,0.2-0.1v0.5h0.4v-0.5
			c0.1,0,0.1,0,0.2,0.1L0,47.2l0.2-0.3L0,46.8c-0.1-0.1-0.3-0.1-0.4-0.2v-0.9l0.8,0.4c-0.1,0.1-0.1,0.3-0.1,0.4v0.2h0.4v-0.2
			c0-0.1,0-0.2,0-0.2l0.5,0.3l0.2-0.4l-0.5-0.3C0.9,46,1,46,1.1,45.8z"/>
		<path class="st2" d="M1.1,45.8l0.2-0.1l-0.2-0.3l-0.2,0.1c-0.1,0.1-0.2,0.2-0.3,0.3l-0.8-0.5l0.8-0.4c0.1,0.1,0.2,0.2,0.3,0.3h0.2
			l0.2-0.3l-0.2-0.1c-0.1,0-0.1-0.1-0.2-0.1l0.5-0.3l-0.2-0.2l-0.5,0.3c0-0.1,0-0.2,0-0.2v-0.2H0.3v0.2c0,0.1,0,0.3,0.1,0.4
			l-0.8,0.4v-0.9c0.1,0,0.3-0.1,0.4-0.2l0.2-0.1L0,43.6l-0.2,0.1c-0.1,0-0.1,0.1-0.2,0.1v-0.6h-0.4v0.5c-0.1,0-0.1,0-0.2-0.1
			l-0.2-0.1l-0.2,0.3l0.2,0.1c0.1,0.1,0.3,0.1,0.4,0.2V45l-0.8-0.4c0.1,0,0.1-0.2,0.1-0.4V44h-0.4v0.2c0,0.1,0,0.2,0,0.2l-0.5-0.2
			l-0.2,0.3l0.5,0.3c-0.1,0-0.1,0.1-0.2,0.1l-0.2,0l0.2,0.3l0.2-0.1c0.1-0.1,0.2-0.2,0.3-0.3l0.8,0.4l-0.8,0.4
			c-0.1-0.1-0.2-0.2-0.3-0.3l-0.2-0.1l-0.2,0.4l0.2,0.1c0.1,0,0.1,0.1,0.2,0.1l-0.5,0.4l0.2,0.3l0.5-0.3c0,0.1,0,0.2,0,0.2v0.2h0.4
			v-0.2c0-0.1,0-0.3-0.1-0.4l0.8-0.4v0.9c-0.1,0-0.3,0.1-0.4,0.2l-0.2,0.1l0.2,0.3L-1,47c0.1,0,0.1-0.1,0.2-0.1v0.5h0.4v-0.5
			c0.1,0,0.1,0,0.2,0.1L0,47.2l0.2-0.3L0,46.8c-0.1-0.1-0.3-0.1-0.4-0.2v-0.9l0.8,0.4c-0.1,0.1-0.1,0.3-0.1,0.4v0.2h0.4v-0.2
			c0-0.1,0-0.2,0-0.2l0.5,0.3l0.2-0.4l-0.5-0.3C0.9,46,1,46,1.1,45.8z"/>
	</g>
	<g>
		
			<linearGradient id="SVGID_3_" gradientUnits="userSpaceOnUse" x1="2.5133" y1="41.3141" x2="6.8136" y2="41.3141" gradientTransform="matrix(1 0 0 1 0 4)">
			<stop  offset="0" style="stop-color:#D300FF"/>
			<stop  offset="0.8565" style="stop-color:#42FFFF"/>
		</linearGradient>
		<path class="st3" d="M6.3,45.8l0.2-0.1l-0.2-0.3l-0.2,0.1c-0.1,0.1-0.2,0.2-0.3,0.3L5,45.3l0.8-0.4C5.9,45,6,45.1,6.1,45.2h0.2
			L6.5,45l-0.2-0.1c-0.1,0-0.1-0.1-0.2-0.1l0.5-0.3l-0.2-0.3l-0.5,0.3c0-0.1,0-0.2,0-0.2v-0.2H5.5v0.2c0,0.1,0,0.3,0.1,0.4l-0.8,0.4
			v-0.9c0.1,0,0.3-0.1,0.4-0.2l0.2-0.1l-0.2-0.3L5,43.7c-0.1,0-0.1,0.1-0.2,0.1v-0.6H4.4v0.5c-0.1,0-0.1,0-0.2-0.1L4,43.5l-0.2,0.3
			L4,43.9C4.1,44,4.3,44,4.4,44.1V45l-0.8-0.4c0.1-0.1,0.1-0.3,0.1-0.4V44H3.3v0.2c0,0.1,0,0.2,0,0.2l-0.5-0.2l-0.2,0.3l0.5,0.3
			c-0.1,0-0.1,0.1-0.2,0.1L2.7,45l0.2,0.2l0.2-0.1c0.1-0.1,0.2-0.2,0.3-0.3l0.8,0.4l-0.8,0.4c-0.1-0.1-0.2-0.2-0.3-0.3l-0.2-0.1
			l-0.2,0.3l0.2,0.1c0.1,0,0.1,0.1,0.2,0.1l-0.5,0.5l0.2,0.3l0.5-0.3c0,0.1,0,0.2,0,0.2v0.2h0.4v-0.2c0-0.1,0-0.3-0.1-0.4l0.8-0.4
			v0.9c-0.1,0-0.3,0.1-0.4,0.2l-0.2,0.1L4,47.2l0.2-0.1c0.1,0,0.1-0.1,0.2-0.1v0.5h0.4V47c0.1,0,0.1,0,0.2,0.1l0.2,0.1l0.2-0.3
			l-0.2-0.1c-0.1-0.1-0.3-0.1-0.4-0.2v-0.9l0.8,0.4c-0.1,0.1-0.1,0.3-0.1,0.4v0.2h0.4v-0.2c0-0.1,0-0.2,0-0.2l0.5,0.3l0.2-0.4
			l-0.5-0.3C6.1,46,6.2,46,6.3,45.8z"/>
		<path class="st2" d="M6.3,45.8l0.2-0.1l-0.2-0.3l-0.2,0.1c-0.1,0.1-0.2,0.2-0.3,0.3L5,45.3l0.8-0.4C5.9,45,6,45.1,6.1,45.2h0.2
			L6.5,45l-0.2-0.1c-0.1,0-0.1-0.1-0.2-0.1l0.5-0.3l-0.2-0.3l-0.5,0.3c0-0.1,0-0.2,0-0.2v-0.2H5.5v0.2c0,0.1,0,0.3,0.1,0.4l-0.8,0.4
			v-0.9c0.1,0,0.3-0.1,0.4-0.2l0.2-0.1l-0.2-0.3L5,43.7c-0.1,0-0.1,0.1-0.2,0.1v-0.6H4.4v0.5c-0.1,0-0.1,0-0.2-0.1L4,43.5l-0.2,0.3
			L4,43.9C4.1,44,4.3,44,4.4,44.1V45l-0.8-0.4c0.1-0.1,0.1-0.3,0.1-0.4V44H3.3v0.2c0,0.1,0,0.2,0,0.2l-0.5-0.2l-0.2,0.3l0.5,0.3
			c-0.1,0-0.1,0.1-0.2,0.1L2.7,45l0.2,0.2l0.2-0.1c0.1-0.1,0.2-0.2,0.3-0.3l0.8,0.4l-0.8,0.4c-0.1-0.1-0.2-0.2-0.3-0.3l-0.2-0.1
			l-0.2,0.3l0.2,0.1c0.1,0,0.1,0.1,0.2,0.1l-0.5,0.5l0.2,0.3l0.5-0.3c0,0.1,0,0.2,0,0.2v0.2h0.4v-0.2c0-0.1,0-0.3-0.1-0.4l0.8-0.4
			v0.9c-0.1,0-0.3,0.1-0.4,0.2l-0.2,0.1L4,47.2l0.2-0.1c0.1,0,0.1-0.1,0.2-0.1v0.5h0.4V47c0.1,0,0.1,0,0.2,0.1l0.2,0.1l0.2-0.3
			l-0.2-0.1c-0.1-0.1-0.3-0.1-0.4-0.2v-0.9l0.8,0.4c-0.1,0.1-0.1,0.3-0.1,0.4v0.2h0.4v-0.2c0-0.1,0-0.2,0-0.2l0.5,0.3l0.2-0.4
			l-0.5-0.3C6.1,46,6.2,46,6.3,45.8z"/>
	</g>
	
		<linearGradient id="SVGID_4_" gradientUnits="userSpaceOnUse" x1="-4.9351" y1="24.364" x2="-12.956" y2="18.5373" gradientTransform="matrix(1.0578 -0.174 0.1623 0.9867 -4.5169 8.078986e-002)">
		<stop  offset="0" style="stop-color:#D300FF"/>
		<stop  offset="0.8565" style="stop-color:#42FFFF"/>
	</linearGradient>
	<path class="st4" d="M-10.5,23.5c-0.3-2.1,0.9-4.1,2.8-4.9c-0.7-0.1-1.4-0.1-2.1,0.1c-2.7,0.6-4.5,3.1-4.2,5.7
		c0.4,2.8,3.2,4.7,6.1,4.2c1.1-0.2,2-0.6,2.8-1.3C-7.6,27.6-10.1,26-10.5,23.5z"/>
</g>
</svg>
