<?xml version="1.0" encoding="utf-8"?>
<!-- Generator: Adobe Illustrator 19.0.0, SVG Export Plug-In . SVG Version: 6.00 Build 0)  -->
<svg version="1.1" id="Capa_1" xmlns="http://www.w3.org/2000/svg" xmlns:xlink="http://www.w3.org/1999/xlink" x="0px" y="0px"
	 viewBox="-15 17 32 32" style="enable-background:new -15 17 32 32;" xml:space="preserve">
<style type="text/css">
	.st0{fill:#5FC6DD;stroke:url(#SVGID_1_);stroke-width:0.5;stroke-miterlimit:10;}
	.st1{fill:#193372;stroke:url(#SVGID_2_);stroke-width:0.5;stroke-miterlimit:10;}
	.st2{fill:#193372;stroke:url(#SVGID_3_);stroke-width:0.5;stroke-miterlimit:10;}
	.st3{fill:#193372;stroke:url(#SVGID_4_);stroke-width:0.5;stroke-miterlimit:10;}
	.st4{fill:#193372;stroke:url(#SVGID_5_);stroke-width:0.5;stroke-miterlimit:10;}
	.st5{fill:#193372;stroke:url(#SVGID_6_);stroke-width:0.5;stroke-miterlimit:10;}
	.st6{fill:#193372;stroke:url(#SVGID_7_);stroke-width:0.5;stroke-miterlimit:10;}
	.st7{fill:url(#SVGID_8_);}
</style>
<g>
	<g>
		
			<linearGradient id="SVGID_1_" gradientUnits="userSpaceOnUse" x1="11.4685" y1="39.8322" x2="-4.7878" y2="23.3027" gradientTransform="matrix(0.9997 -2.626982e-002 2.626982e-002 0.9997 -0.9623 4.858)">
			<stop  offset="0" style="stop-color:#D300FF"/>
			<stop  offset="0.8565" style="stop-color:#42FFFF"/>
		</linearGradient>
		<path class="st0" d="M16.2,37.6c0.1-2.4-1.8-4.5-4.3-4.5c-0.1,0-0.2,0-0.4,0c0.5-0.9,0.7-1.8,0.8-2.9c0.1-3.6-2.7-6.6-6.3-6.7
			c-3.1-0.1-5.8,2.1-6.5,5.1C-5,27-8.2,31-7.8,34.1c-2.3-0.2-3.8,1.6-3.9,3.6c-0.1,1.8,1,3.4,2.5,4.1l0,0l0,0
			c0.5,0.3,1.1,0.5,1.7,0.5l20.4-0.5C14.7,41.3,16.1,39.6,16.2,37.6z"/>
	</g>
	
		<linearGradient id="SVGID_2_" gradientUnits="userSpaceOnUse" x1="-1.4135" y1="37.4808" x2="2.7295" y2="37.4808" gradientTransform="matrix(1 0 0 1 0 8)">
		<stop  offset="0" style="stop-color:#D300FF"/>
		<stop  offset="0.8565" style="stop-color:#42FFFF"/>
	</linearGradient>
	<polygon class="st1" points="0.8,47.1 -1,47.1 0.5,43.8 2.4,43.8 	"/>
	
		<linearGradient id="SVGID_3_" gradientUnits="userSpaceOnUse" x1="2.192" y1="37.4808" x2="6.335" y2="37.4808" gradientTransform="matrix(1 0 0 1 0 8)">
		<stop  offset="0" style="stop-color:#D300FF"/>
		<stop  offset="0.8565" style="stop-color:#42FFFF"/>
	</linearGradient>
	<polygon class="st2" points="4.5,47.1 2.6,47.1 4.1,43.8 6,43.8 	"/>
	
		<linearGradient id="SVGID_4_" gradientUnits="userSpaceOnUse" x1="-8.6135" y1="37.4808" x2="-4.4705" y2="37.4808" gradientTransform="matrix(1 0 0 1 0 8)">
		<stop  offset="0" style="stop-color:#D300FF"/>
		<stop  offset="0.8565" style="stop-color:#42FFFF"/>
	</linearGradient>
	<polygon class="st3" points="-6.4,47.1 -8.2,47.1 -6.7,43.8 -4.8,43.8 	"/>
	
		<linearGradient id="SVGID_5_" gradientUnits="userSpaceOnUse" x1="-5.008" y1="37.4808" x2="-0.865" y2="37.4808" gradientTransform="matrix(1 0 0 1 0 8)">
		<stop  offset="0" style="stop-color:#D300FF"/>
		<stop  offset="0.8565" style="stop-color:#42FFFF"/>
	</linearGradient>
	<polygon class="st4" points="-2.7,47.1 -4.6,47.1 -3.1,43.8 -1.2,43.8 	"/>
	
		<linearGradient id="SVGID_6_" gradientUnits="userSpaceOnUse" x1="5.9765" y1="37.4808" x2="10.1195" y2="37.4808" gradientTransform="matrix(1 0 0 1 0 8)">
		<stop  offset="0" style="stop-color:#D300FF"/>
		<stop  offset="0.8565" style="stop-color:#42FFFF"/>
	</linearGradient>
	<polygon class="st5" points="8.2,47.1 6.4,47.1 7.9,43.8 9.8,43.8 	"/>
	
		<linearGradient id="SVGID_7_" gradientUnits="userSpaceOnUse" x1="9.5865" y1="37.4808" x2="13.7295" y2="37.4808" gradientTransform="matrix(1 0 0 1 0 8)">
		<stop  offset="0" style="stop-color:#D300FF"/>
		<stop  offset="0.8565" style="stop-color:#42FFFF"/>
	</linearGradient>
	<polygon class="st6" points="11.9,47.1 10,47.1 11.5,43.8 13.4,43.8 	"/>
	
		<linearGradient id="SVGID_8_" gradientUnits="userSpaceOnUse" x1="-5.2004" y1="24.6551" x2="-13.2213" y2="18.8284" gradientTransform="matrix(1.0578 -0.174 0.1623 0.9867 -4.5169 8.078986e-002)">
		<stop  offset="0" style="stop-color:#D300FF"/>
		<stop  offset="0.8565" style="stop-color:#42FFFF"/>
	</linearGradient>
	<path class="st7" d="M-10.7,23.8c-0.3-2.1,0.9-4.1,2.8-4.9c-0.7-0.1-1.4-0.1-2.1,0.1c-2.7,0.6-4.5,3.1-4.2,5.7
		c0.4,2.8,3.2,4.7,6.1,4.2c1.1-0.2,2-0.6,2.8-1.3C-7.9,27.9-10.3,26.3-10.7,23.8z"/>
</g>
</svg>
