<?xml version="1.0" encoding="utf-8"?>
<!-- Generator: Adobe Illustrator 19.0.0, SVG Export Plug-In . SVG Version: 6.00 Build 0)  -->
<svg version="1.1" id="Capa_1" xmlns="http://www.w3.org/2000/svg" xmlns:xlink="http://www.w3.org/1999/xlink" x="0px" y="0px"
	 viewBox="-15 17 32 32" style="enable-background:new -15 17 32 32;" xml:space="preserve">
<style type="text/css">
	.st0{fill:#47C3C9;stroke:url(#SVGID_1_);stroke-width:0.5;stroke-miterlimit:10;}
	.st1{fill:#193372;stroke:url(#SVGID_2_);stroke-width:0.5;stroke-miterlimit:10;}
	.st2{fill:#193372;stroke:url(#SVGID_3_);stroke-width:0.5;stroke-miterlimit:10;}
	.st3{fill:none;stroke:url(#SVGID_4_);stroke-width:0.25;stroke-miterlimit:10;}
	.st4{fill:#193372;}
	.st5{fill:none;stroke:url(#SVGID_5_);stroke-width:0.25;stroke-miterlimit:10;}
	.st6{fill:url(#SVGID_6_);}
</style>
<g>
	<g>
		
			<linearGradient id="SVGID_1_" gradientUnits="userSpaceOnUse" x1="11.3061" y1="25.2558" x2="-4.9446" y2="41.7796" gradientTransform="matrix(0.9997 -2.626982e-002 -2.626982e-002 -0.9997 0.7805 69.6263)">
			<stop  offset="0" style="stop-color:#D300FF"/>
			<stop  offset="0.8565" style="stop-color:#42FFFF"/>
		</linearGradient>
		<path class="st0" d="M16,37.3c0.1-2.4-1.8-4.5-4.3-4.5c-0.1,0-0.2,0-0.4,0c0.5-0.9,0.7-1.8,0.8-2.9c0.1-3.6-2.7-6.6-6.3-6.7
			c-3.1-0.1-5.8,2.1-6.5,5.1c-4.5-1.6-7.7,2.4-7.3,5.5c-2.3-0.2-3.8,1.6-3.9,3.6c-0.1,1.8,1,3.4,2.5,4.1l0,0l0,0
			c0.5,0.2,1.1,0.4,1.7,0.4l20.4-0.5C14.5,40.9,15.9,39.3,16,37.3z"/>
	</g>
	
		<linearGradient id="SVGID_2_" gradientUnits="userSpaceOnUse" x1="-6.5385" y1="26.9109" x2="-2.3955" y2="26.9109" gradientTransform="matrix(1 0 0 -1 0 72)">
		<stop  offset="0" style="stop-color:#D300FF"/>
		<stop  offset="0.8565" style="stop-color:#42FFFF"/>
	</linearGradient>
	<polygon class="st1" points="-4.4,46.7 -6.2,46.7 -4.7,43.4 -2.8,43.4 	"/>
	
		<linearGradient id="SVGID_3_" gradientUnits="userSpaceOnUse" x1="-2.933" y1="26.9109" x2="1.21" y2="26.9109" gradientTransform="matrix(1 0 0 -1 0 72)">
		<stop  offset="0" style="stop-color:#D300FF"/>
		<stop  offset="0.8565" style="stop-color:#42FFFF"/>
	</linearGradient>
	<polygon class="st2" points="-0.7,46.7 -2.6,46.7 -1.1,43.4 0.8,43.4 	"/>
	<g>
		
			<linearGradient id="SVGID_4_" gradientUnits="userSpaceOnUse" x1="1.8236" y1="41.3391" x2="5.7366" y2="41.3391" gradientTransform="matrix(1 0 0 1 0 4)">
			<stop  offset="0" style="stop-color:#D300FF"/>
			<stop  offset="0.8565" style="stop-color:#42FFFF"/>
		</linearGradient>
		<path class="st3" d="M5.3,45.7l0.2-0.1l-0.2-0.3l-0.2,0.1c-0.1,0.1-0.2,0.2-0.3,0.3l-0.7-0.5l0.7-0.4C4.9,44.9,5,45,5.1,45.1h0.2
			l0.2-0.3l-0.2,0c-0.1,0-0.1-0.1-0.2-0.1l0.5-0.3l-0.2-0.3l-0.5,0.3c0-0.1,0-0.2,0-0.2V44H4.6v0.2c0,0.1,0,0.3,0.1,0.4L3.9,45v-0.8
			c0.1,0,0.3-0.1,0.4-0.2l0.2-0.1l-0.2-0.3l-0.2,0.1c-0.1,0-0.1,0.1-0.2,0.1v-0.5H3.6v0.5c-0.1,0-0.1,0-0.2-0.1l-0.2-0.1L3,43.9
			L3.2,44c0.1,0.1,0.3,0.1,0.4,0.2V45l-0.7-0.4C3,44.5,3,44.3,3,44.2V44H2.6v0.2c0,0.1,0,0.2,0,0.2l-0.5-0.3l-0.2,0.3l0.5,0.3
			c-0.1,0-0.1,0.1-0.2,0.1L2,44.9l0.2,0.3l0.2-0.1c0.1-0.1,0.2-0.2,0.3-0.3l0.7,0.4l-0.7,0.4c-0.1-0.1-0.2-0.2-0.3-0.3l-0.2-0.1
			L2,45.5l0.2,0.1c0.1,0,0.1,0.1,0.2,0.1l-0.5,0.5l0.2,0.3l0.5-0.3c0,0.1,0,0.2,0,0.2v0.2H3v-0.2c0-0.1,0-0.3-0.1-0.4l0.7-0.4v0.8
			c-0.1,0-0.3,0.1-0.4,0.2L3,46.7L3.2,47l0.2-0.1c0.1,0,0.1-0.1,0.2-0.1v0.5H4v-0.5c0.1,0,0.1,0,0.2,0.1l0.1,0l0.2-0.3l-0.2-0.1
			c-0.1-0.1-0.3-0.1-0.4-0.2v-0.8l0.7,0.4c-0.1,0.1-0.1,0.3-0.1,0.4v0.2h0.4v-0.2c0-0.1,0-0.2,0-0.2l0.5,0.3l0.2-0.3l-0.5-0.3
			C5.1,45.8,5.2,45.8,5.3,45.7z"/>
		<path class="st4" d="M5.3,45.7l0.2-0.1l-0.2-0.3l-0.2,0.1c-0.1,0.1-0.2,0.2-0.3,0.3l-0.7-0.5l0.7-0.4C4.9,44.9,5,45,5.1,45.1h0.2
			l0.2-0.3l-0.2,0c-0.1,0-0.1-0.1-0.2-0.1l0.5-0.3l-0.2-0.3l-0.5,0.3c0-0.1,0-0.2,0-0.2V44H4.6v0.2c0,0.1,0,0.3,0.1,0.4L3.9,45v-0.8
			c0.1,0,0.3-0.1,0.4-0.2l0.2-0.1l-0.2-0.3l-0.2,0.1c-0.1,0-0.1,0.1-0.2,0.1v-0.5H3.6v0.5c-0.1,0-0.1,0-0.2-0.1l-0.2-0.1L3,43.9
			L3.2,44c0.1,0.1,0.3,0.1,0.4,0.2V45l-0.7-0.4C3,44.5,3,44.3,3,44.2V44H2.6v0.2c0,0.1,0,0.2,0,0.2l-0.5-0.3l-0.2,0.3l0.5,0.3
			c-0.1,0-0.1,0.1-0.2,0.1L2,44.9l0.2,0.3l0.2-0.1c0.1-0.1,0.2-0.2,0.3-0.3l0.7,0.4l-0.7,0.4c-0.1-0.1-0.2-0.2-0.3-0.3l-0.2-0.1
			L2,45.5l0.2,0.1c0.1,0,0.1,0.1,0.2,0.1l-0.5,0.5l0.2,0.3l0.5-0.3c0,0.1,0,0.2,0,0.2v0.2H3v-0.2c0-0.1,0-0.3-0.1-0.4l0.7-0.4v0.8
			c-0.1,0-0.3,0.1-0.4,0.2L3,46.7L3.2,47l0.2-0.1c0.1,0,0.1-0.1,0.2-0.1v0.5H4v-0.5c0.1,0,0.1,0,0.2,0.1l0.1,0l0.2-0.3l-0.2-0.1
			c-0.1-0.1-0.3-0.1-0.4-0.2v-0.8l0.7,0.4c-0.1,0.1-0.1,0.3-0.1,0.4v0.2h0.4v-0.2c0-0.1,0-0.2,0-0.2l0.5,0.3l0.2-0.3l-0.5-0.3
			C5.1,45.8,5.2,45.8,5.3,45.7z"/>
	</g>
	<g>
		
			<linearGradient id="SVGID_5_" gradientUnits="userSpaceOnUse" x1="6.6788" y1="41.3391" x2="10.5918" y2="41.3391" gradientTransform="matrix(1 0 0 1 0 4)">
			<stop  offset="0" style="stop-color:#D300FF"/>
			<stop  offset="0.8565" style="stop-color:#42FFFF"/>
		</linearGradient>
		<path class="st5" d="M10.1,45.7l0.2-0.1l-0.2-0.3l-0.2,0.1c-0.1,0.1-0.2,0.2-0.3,0.3l-0.7-0.5l0.7-0.4c0.1,0.1,0.2,0.2,0.3,0.3
			h0.2l0.2-0.3l-0.2-0.1c-0.1,0-0.1-0.1-0.2-0.1l0.5-0.3L10.2,44l-0.5,0.3c0-0.1,0-0.2,0-0.2v-0.2H9.3v0.2c0,0.1,0,0.3,0.1,0.4
			L8.8,45v-0.8c0.1,0,0.3-0.1,0.4-0.2l0.2-0.1l-0.2-0.3L9,43.7c-0.1,0-0.1,0.1-0.2,0.1v-0.5H8.4v0.5c-0.1,0-0.1,0-0.2-0.1L8,43.6
			l-0.2,0.3L8.1,44c0.1,0.1,0.3,0.1,0.4,0.2V45l-0.7-0.4c0.1-0.1,0.1-0.3,0.1-0.4V44H7.4v0.2c0,0.1,0,0.2,0,0.2l-0.5-0.3l-0.2,0.3
			l0.6,0.3c-0.1,0-0.1,0.1-0.2,0.1l-0.2,0.1l0.2,0.3l0.2-0.1c0-0.1,0.1-0.2,0.2-0.3l0.7,0.4l-0.7,0.4c-0.1-0.2-0.2-0.3-0.2-0.3
			l-0.2-0.1l-0.2,0.3l0.2,0.1c0.1,0,0.1,0.1,0.2,0.1l-0.5,0.5L7,46.5l0.5-0.3c0,0.1,0,0.2,0,0.2v0.2h0.4v-0.2c0-0.1,0-0.3-0.1-0.4
			l0.7-0.4v0.8c-0.1,0-0.3,0.1-0.4,0.2l-0.2,0.1L8.1,47l0.2-0.1c0.1,0,0.1-0.1,0.2-0.1v0.5h0.4v-0.5c0.1,0,0.1,0,0.2,0.1L9.3,47
			l0.2-0.3l-0.2-0.1c-0.1-0.1-0.3-0.1-0.4-0.2v-0.8L9.6,46c-0.1,0.1-0.1,0.3-0.1,0.4v0.2h0.4v-0.2c0-0.1,0-0.2,0-0.2l0.5,0.3
			l0.2-0.3l-0.5-0.3C10,45.8,10,45.8,10.1,45.7z"/>
		<path class="st4" d="M10.1,45.7l0.2-0.1l-0.2-0.3l-0.2,0.1c-0.1,0.1-0.2,0.2-0.3,0.3l-0.7-0.5l0.7-0.4c0.1,0.1,0.2,0.2,0.3,0.3
			h0.2l0.2-0.3l-0.2-0.1c-0.1,0-0.1-0.1-0.2-0.1l0.5-0.3L10.2,44l-0.5,0.3c0-0.1,0-0.2,0-0.2v-0.2H9.3v0.2c0,0.1,0,0.3,0.1,0.4
			L8.8,45v-0.8c0.1,0,0.3-0.1,0.4-0.2l0.2-0.1l-0.2-0.3L9,43.7c-0.1,0-0.1,0.1-0.2,0.1v-0.5H8.4v0.5c-0.1,0-0.1,0-0.2-0.1L8,43.6
			l-0.2,0.3L8.1,44c0.1,0.1,0.3,0.1,0.4,0.2V45l-0.7-0.4c0.1-0.1,0.1-0.3,0.1-0.4V44H7.4v0.2c0,0.1,0,0.2,0,0.2l-0.5-0.3l-0.2,0.3
			l0.6,0.3c-0.1,0-0.1,0.1-0.2,0.1l-0.2,0.1l0.2,0.3l0.2-0.1c0-0.1,0.1-0.2,0.2-0.3l0.7,0.4l-0.7,0.4c-0.1-0.2-0.2-0.3-0.2-0.3
			l-0.2-0.1l-0.2,0.3l0.2,0.1c0.1,0,0.1,0.1,0.2,0.1l-0.5,0.5L7,46.5l0.5-0.3c0,0.1,0,0.2,0,0.2v0.2h0.4v-0.2c0-0.1,0-0.3-0.1-0.4
			l0.7-0.4v0.8c-0.1,0-0.3,0.1-0.4,0.2l-0.2,0.1L8.1,47l0.2-0.1c0.1,0,0.1-0.1,0.2-0.1v0.5h0.4v-0.5c0.1,0,0.1,0,0.2,0.1L9.3,47
			l0.2-0.3l-0.2-0.1c-0.1-0.1-0.3-0.1-0.4-0.2v-0.8L9.6,46c-0.1,0.1-0.1,0.3-0.1,0.4v0.2h0.4v-0.2c0-0.1,0-0.2,0-0.2l0.5,0.3
			l0.2-0.3l-0.5-0.3C10,45.8,10,45.8,10.1,45.7z"/>
	</g>
	
		<linearGradient id="SVGID_6_" gradientUnits="userSpaceOnUse" x1="-5.0538" y1="24.4698" x2="-13.0747" y2="18.6431" gradientTransform="matrix(1.0578 -0.174 0.1623 0.9867 -4.5169 8.078986e-002)">
		<stop  offset="0" style="stop-color:#D300FF"/>
		<stop  offset="0.8565" style="stop-color:#42FFFF"/>
	</linearGradient>
	<path class="st6" d="M-10.6,23.6c-0.3-2.1,0.9-4.1,2.8-4.9c-0.7-0.1-1.4-0.1-2.1,0.1c-2.7,0.6-4.5,3.1-4.2,5.7
		c0.4,2.8,3.2,4.7,6.1,4.2c1.1-0.2,2-0.6,2.8-1.3C-7.7,27.7-10.2,26.1-10.6,23.6z"/>
</g>
</svg>
