<?xml version="1.0" encoding="utf-8"?>
<!-- Generator: Adobe Illustrator 19.0.0, SVG Export Plug-In . SVG Version: 6.00 Build 0)  -->
<svg version="1.1" id="Capa_1" xmlns="http://www.w3.org/2000/svg" xmlns:xlink="http://www.w3.org/1999/xlink" x="0px" y="0px"
	 viewBox="-15 17 32 32" style="enable-background:new -15 17 32 32;" xml:space="preserve">
<style type="text/css">
	.st0{fill:#193372;stroke:url(#SVGID_1_);stroke-width:0.5;stroke-miterlimit:10;}
	.st1{fill:url(#SVGID_2_);stroke:url(#SVGID_3_);stroke-width:0.25;stroke-miterlimit:10;}
	.st2{fill:none;stroke:url(#SVGID_4_);stroke-width:0.25;stroke-miterlimit:10;}
	.st3{fill:#0F234C;}
	.st4{fill:url(#SVGID_5_);}
</style>
<g>
	
		<linearGradient id="SVGID_1_" gradientUnits="userSpaceOnUse" x1="10.65" y1="42.2143" x2="-5.6007" y2="25.6906" gradientTransform="matrix(0.9997 -2.626982e-002 2.626982e-002 0.9997 -0.9443 2.4342)">
		<stop  offset="0" style="stop-color:#D300FF"/>
		<stop  offset="0.8565" style="stop-color:#42FFFF"/>
	</linearGradient>
	<path class="st0" d="M15.4,37.6c0.1-2.4-1.8-4.5-4.3-4.5c-0.1,0-0.2,0-0.4,0c0.5-0.9,0.7-1.8,0.8-2.9c0.1-3.6-2.7-6.6-6.3-6.7
		c-3.2-0.1-5.9,2.1-6.5,5.1C-5.8,27-9,31-8.6,34.1c-2.3-0.2-3.8,1.6-3.9,3.6c-0.1,1.8,1,3.4,2.5,4.1l0,0l0,0
		c0.5,0.2,1.1,0.4,1.7,0.4l20.4-0.5C13.9,41.2,15.3,39.6,15.4,37.6z"/>
	
		<linearGradient id="SVGID_2_" gradientUnits="userSpaceOnUse" x1="-2.3687" y1="15.5788" x2="1.9871" y2="15.5788" gradientTransform="matrix(0.9386 0.3451 -0.3451 0.9386 10.999 27.7953)">
		<stop  offset="0" style="stop-color:#D300FF"/>
		<stop  offset="0.8565" style="stop-color:#42FFFF"/>
	</linearGradient>
	
		<linearGradient id="SVGID_3_" gradientUnits="userSpaceOnUse" x1="-2.602" y1="15.6012" x2="2.2187" y2="15.6012" gradientTransform="matrix(0.9386 0.3451 -0.3451 0.9386 10.999 27.7953)">
		<stop  offset="0" style="stop-color:#D300FF"/>
		<stop  offset="0.8565" style="stop-color:#42FFFF"/>
	</linearGradient>
	<polygon class="st1" points="7.6,36.8 9.3,37.4 6.5,40.1 8.4,40.5 5.3,43.1 7,43.6 3.2,47.5 1.3,47.2 4.2,44.5 2.5,43.9 5.3,41.4 
		3.7,40.6 	"/>
	<g>
		
			<linearGradient id="SVGID_4_" gradientUnits="userSpaceOnUse" x1="-5.812" y1="38.9141" x2="0.6099" y2="38.9141" gradientTransform="matrix(1 0 0 1 0 4)">
			<stop  offset="0" style="stop-color:#D300FF"/>
			<stop  offset="0.8565" style="stop-color:#42FFFF"/>
		</linearGradient>
		<path class="st2" d="M0,43.6l0.2-0.1L-0.1,43l-0.2,0.1c-0.2,0.1-0.4,0.2-0.5,0.4L-2,42.9l1.2-0.6c0.1,0.2,0.3,0.3,0.5,0.4l0.2,0.1
			l0.3-0.5L0,42.1C-0.1,42-0.2,42-0.3,41.9l0.7-0.4L0.1,41l-0.8,0.4c0-0.1,0-0.2,0-0.3v-0.3h-0.6v0.3c0,0.2,0,0.4,0.1,0.6l-1.2,0.7
			V41c0.2,0,0.4-0.1,0.6-0.2l0.2-0.1l-0.3-0.5l-0.2,0.1c-0.1,0.1-0.2,0.1-0.3,0.1v-0.7h-0.5v0.7c-0.1,0-0.2-0.1-0.3-0.1l-0.2-0.1
			l-0.3,0.5l0.2,0.1c0.2,0.1,0.4,0.2,0.6,0.2v1.4l-1.2-0.6C-4,41.5-4,41.3-4,41.1v-0.3h-0.6v0.3c0,0.1,0,0.2,0,0.3L-5.3,41l-0.3,0.5
			l0.7,0.4C-5,42-5.1,42-5.2,42.1l-0.2,0.1l0.3,0.5l0.2-0.2c0.2-0.1,0.4-0.2,0.5-0.4l1.2,0.6l-1.2,0.7c-0.1-0.2-0.3-0.3-0.5-0.4
			l-0.2-0.1l-0.4,0.5l0.2,0.2c0.1,0.1,0.2,0.1,0.3,0.2l-0.7,0.4l0.3,0.5l0.7-0.4c0,0.1,0,0.2,0,0.3v0.3H-4v-0.3c0-0.2,0-0.4-0.1-0.6
			l1.2-0.6v1.3c-0.2,0-0.4,0.1-0.6,0.2L-3.7,45l0.3,0.5l0.2-0.1c0.1,0,0.2,0,0.3,0v0.7h0.5v-0.7c0.1,0,0.2,0.1,0.3,0.1l0.2,0.1
			l0.3-0.5L-1.8,45c-0.1-0.1-0.3-0.1-0.6-0.2v-1.4l1.2,0.6c0,0.3-0.1,0.5,0,0.7V45h0.6v-0.3c0-0.1,0-0.2,0-0.3L0,44.7l0.3-0.5
			l-0.7-0.4C-0.2,43.7-0.1,43.6,0,43.6z"/>
		<path class="st3" d="M0,43.6l0.2-0.1L-0.1,43l-0.2,0.1c-0.2,0.1-0.4,0.2-0.5,0.4L-2,42.9l1.2-0.6c0.1,0.2,0.3,0.3,0.5,0.4l0.2,0.1
			l0.3-0.5L0,42.1C-0.1,42-0.2,42-0.3,41.9l0.7-0.4L0.1,41l-0.8,0.4c0-0.1,0-0.2,0-0.3v-0.3h-0.6v0.3c0,0.2,0,0.4,0.1,0.6l-1.2,0.7
			V41c0.2,0,0.4-0.1,0.6-0.2l0.2-0.1l-0.3-0.5l-0.2,0.1c-0.1,0.1-0.2,0.1-0.3,0.1v-0.7h-0.5v0.7c-0.1,0-0.2-0.1-0.3-0.1l-0.2-0.1
			l-0.3,0.5l0.2,0.1c0.2,0.1,0.4,0.2,0.6,0.2v1.4l-1.2-0.6C-4,41.5-4,41.3-4,41.1v-0.3h-0.6v0.3c0,0.1,0,0.2,0,0.3L-5.3,41l-0.3,0.5
			l0.7,0.4C-5,42-5.1,42-5.2,42.1l-0.2,0.1l0.3,0.5l0.2-0.2c0.2-0.1,0.4-0.2,0.5-0.4l1.2,0.6l-1.2,0.7c-0.1-0.2-0.3-0.3-0.5-0.4
			l-0.2-0.1l-0.4,0.5l0.2,0.2c0.1,0.1,0.2,0.1,0.3,0.2l-0.7,0.4l0.3,0.5l0.7-0.4c0,0.1,0,0.2,0,0.3v0.3H-4v-0.3c0-0.2,0-0.4-0.1-0.6
			l1.2-0.6v1.3c-0.2,0-0.4,0.1-0.6,0.2L-3.7,45l0.3,0.5l0.2-0.1c0.1,0,0.2,0,0.3,0v0.7h0.5v-0.7c0.1,0,0.2,0.1,0.3,0.1l0.2,0.1
			l0.3-0.5L-1.8,45c-0.1-0.1-0.3-0.1-0.6-0.2v-1.4l1.2,0.6c0,0.3-0.1,0.5,0,0.7V45h0.6v-0.3c0-0.1,0-0.2,0-0.3L0,44.7l0.3-0.5
			l-0.7-0.4C-0.2,43.7-0.1,43.6,0,43.6z"/>
	</g>
	
		<linearGradient id="SVGID_5_" gradientUnits="userSpaceOnUse" x1="-4.4673" y1="24.3959" x2="-12.4882" y2="18.5692" gradientTransform="matrix(1.0578 -0.174 0.1623 0.9867 -4.5169 8.078986e-002)">
		<stop  offset="0" style="stop-color:#D300FF"/>
		<stop  offset="0.8565" style="stop-color:#42FFFF"/>
	</linearGradient>
	<path class="st4" d="M-10,23.5c-0.3-2.1,0.9-4.1,2.8-4.9c-0.7-0.1-1.4-0.1-2.1,0.1c-2.7,0.6-4.5,3.1-4.2,5.7
		c0.4,2.8,3.2,4.7,6.1,4.2c1.1-0.2,2-0.6,2.8-1.3C-7.1,27.6-9.6,25.9-10,23.5z"/>
</g>
</svg>
